BriemScript-Black.ufo
<glyph name="quotedbl" format="2">
  <advance width="449"/>
  <unicode hex="0022"/>
  <outline>
    <contour>
      <point x="317" y="412" type="curve" smooth="yes"/>
      <point x="349" y="412"/>
      <point x="363" y="421"/>
      <point x="386" y="464" type="curve" smooth="yes"/>
      <point x="418" y="525"/>
      <point x="457" y="600"/>
      <point x="457" y="620" type="curve" smooth="yes"/>
      <point x="457" y="643"/>
      <point x="423" y="651"/>
      <point x="357" y="651" type="curve" smooth="yes"/>
      <point x="289" y="651"/>
      <point x="260" y="641"/>
      <point x="260" y="610" type="curve" smooth="yes"/>
      <point x="260" y="584"/>
      <point x="270" y="494"/>
      <point x="273" y="468" type="curve" smooth="yes"/>
      <point x="278" y="423"/>
      <point x="285" y="412"/>
    </contour>
    <contour>
      <point x="101" y="413" type="curve" smooth="yes"/>
      <point x="133" y="413"/>
      <point x="147" y="422"/>
      <point x="170" y="465" type="curve" smooth="yes"/>
      <point x="202" y="526"/>
      <point x="241" y="601"/>
      <point x="241" y="621" type="curve" smooth="yes"/>
      <point x="241" y="644"/>
      <point x="207" y="652"/>
      <point x="141" y="652" type="curve" smooth="yes"/>
      <point x="73" y="652"/>
      <point x="44" y="642"/>
      <point x="44" y="611" type="curve" smooth="yes"/>
      <point x="44" y="585"/>
      <point x="54" y="495"/>
      <point x="57" y="469" type="curve" smooth="yes"/>
      <point x="62" y="424"/>
      <point x="69" y="413"/>
    </contour>
  </outline>
</glyph>
<glyph name="dollar" format="2">
  <advance width="554"/>
  <unicode hex="0024"/>
  <outline>
    <contour>
      <point x="322" y="-244" type="curve" smooth="yes"/>
      <point x="357" y="-244"/>
      <point x="360" y="-235"/>
      <point x="360" y="-210" type="curve" smooth="yes"/>
      <point x="360" y="-153"/>
      <point x="358" y="-77"/>
      <point x="360" y="1" type="curve"/>
      <point x="447" y="29"/>
      <point x="501" y="101"/>
      <point x="501" y="200" type="curve" smooth="yes"/>
      <point x="501" y="253"/>
      <point x="478" y="294"/>
      <point x="446" y="329" type="curve" smooth="yes"/>
      <point x="404" y="375"/>
      <point x="346" y="408"/>
      <point x="313" y="440" type="curve" smooth="yes"/>
      <point x="296" y="456"/>
      <point x="285" y="472"/>
      <point x="285" y="489" type="curve" smooth="yes"/>
      <point x="285" y="517"/>
      <point x="305" y="524"/>
      <point x="327" y="524" type="curve" smooth="yes"/>
      <point x="370" y="524"/>
      <point x="416" y="510"/>
      <point x="441" y="499" type="curve" smooth="yes"/>
      <point x="458" y="491"/>
      <point x="471" y="483"/>
      <point x="482" y="483" type="curve" smooth="yes"/>
      <point x="497" y="483"/>
      <point x="506" y="511"/>
      <point x="506" y="551" type="curve" smooth="yes"/>
      <point x="506" y="579"/>
      <point x="501" y="597"/>
      <point x="466" y="615" type="curve" smooth="yes"/>
      <point x="444" y="626"/>
      <point x="416" y="640"/>
      <point x="379" y="646" type="curve"/>
      <point x="381" y="695"/>
      <point x="383" y="729"/>
      <point x="383" y="734" type="curve" smooth="yes"/>
      <point x="383" y="784"/>
      <point x="300" y="806"/>
      <point x="251" y="806" type="curve" smooth="yes"/>
      <point x="216" y="806"/>
      <point x="213" y="797"/>
      <point x="213" y="772" type="curve" smooth="yes"/>
      <point x="213" y="735"/>
      <point x="214" y="689"/>
      <point x="214" y="641" type="curve"/>
      <point x="126" y="614"/>
      <point x="71" y="541"/>
      <point x="71" y="437" type="curve" smooth="yes"/>
      <point x="71" y="372"/>
      <point x="105" y="326"/>
      <point x="146" y="289" type="curve" smooth="yes"/>
      <point x="183" y="255"/>
      <point x="226" y="228"/>
      <point x="253" y="200" type="curve" smooth="yes"/>
      <point x="269" y="184"/>
      <point x="279" y="167"/>
      <point x="279" y="149" type="curve" smooth="yes"/>
      <point x="279" y="127"/>
      <point x="266" y="114"/>
      <point x="231" y="114" type="curve" smooth="yes"/>
      <point x="170" y="114"/>
      <point x="138" y="128"/>
      <point x="113" y="140" type="curve" smooth="yes"/>
      <point x="99" y="147"/>
      <point x="88" y="155"/>
      <point x="74" y="155" type="curve" smooth="yes"/>
      <point x="58" y="155"/>
      <point x="48" y="127"/>
      <point x="48" y="87" type="curve" smooth="yes"/>
      <point x="48" y="58"/>
      <point x="54" y="44"/>
      <point x="90" y="23" type="curve" smooth="yes"/>
      <point x="114" y="9"/>
      <point x="151" y="-4"/>
      <point x="197" y="-9" type="curve"/>
      <point x="194" y="-98"/>
      <point x="190" y="-164"/>
      <point x="190" y="-172" type="curve" smooth="yes"/>
      <point x="190" y="-222"/>
      <point x="273" y="-244"/>
    </contour>
  </outline>
</glyph>
<glyph name="percent" format="2">
  <advance width="1155"/>
  <unicode hex="0025"/>
  <outline>
    <contour>
      <point x="512" y="-35" type="curve" smooth="yes"/>
      <point x="537" y="-35"/>
      <point x="552" y="-31"/>
      <point x="570" y="13" type="curve" smooth="yes"/>
      <point x="595" y="74"/>
      <point x="765" y="499"/>
      <point x="778" y="528" type="curve" smooth="yes"/>
      <point x="789" y="552"/>
      <point x="810" y="593"/>
      <point x="810" y="602" type="curve" smooth="yes"/>
      <point x="810" y="636"/>
      <point x="712" y="675"/>
      <point x="673" y="675" type="curve" smooth="yes"/>
      <point x="648" y="675"/>
      <point x="634" y="671"/>
      <point x="615" y="627" type="curve" smooth="yes"/>
      <point x="607" y="608"/>
      <point x="421" y="141"/>
      <point x="407" y="112" type="curve" smooth="yes"/>
      <point x="393" y="82"/>
      <point x="375" y="47"/>
      <point x="375" y="38" type="curve" smooth="yes"/>
      <point x="375" y="5"/>
      <point x="493" y="-35"/>
    </contour>
    <contour>
      <point x="255" y="275" type="curve" smooth="yes"/>
      <point x="419" y="275"/>
      <point x="502" y="358"/>
      <point x="502" y="493" type="curve" smooth="yes"/>
      <point x="502" y="600"/>
      <point x="417" y="651"/>
      <point x="300" y="651" type="curve" smooth="yes"/>
      <point x="135" y="651"/>
      <point x="53" y="568"/>
      <point x="53" y="432" type="curve" smooth="yes"/>
      <point x="53" y="326"/>
      <point x="138" y="275"/>
    </contour>
    <contour>
      <point x="272" y="328" type="curve" smooth="yes"/>
      <point x="252" y="328"/>
      <point x="236" y="373"/>
      <point x="236" y="438" type="curve" smooth="yes"/>
      <point x="236" y="532"/>
      <point x="254" y="594"/>
      <point x="285" y="594" type="curve" smooth="yes"/>
      <point x="306" y="594"/>
      <point x="319" y="550"/>
      <point x="319" y="486" type="curve" smooth="yes"/>
      <point x="319" y="392"/>
      <point x="303" y="328"/>
    </contour>
    <contour>
      <point x="885" y="-14" type="curve" smooth="yes"/>
      <point x="1049" y="-14"/>
      <point x="1132" y="69"/>
      <point x="1132" y="205" type="curve" smooth="yes"/>
      <point x="1132" y="311"/>
      <point x="1047" y="362"/>
      <point x="930" y="362" type="curve" smooth="yes"/>
      <point x="765" y="362"/>
      <point x="683" y="279"/>
      <point x="683" y="143" type="curve" smooth="yes"/>
      <point x="683" y="37"/>
      <point x="768" y="-14"/>
    </contour>
    <contour>
      <point x="902" y="39" type="curve" smooth="yes"/>
      <point x="882" y="39"/>
      <point x="866" y="84"/>
      <point x="866" y="149" type="curve" smooth="yes"/>
      <point x="866" y="243"/>
      <point x="884" y="305"/>
      <point x="915" y="305" type="curve" smooth="yes"/>
      <point x="936" y="305"/>
      <point x="949" y="261"/>
      <point x="949" y="197" type="curve" smooth="yes"/>
      <point x="949" y="103"/>
      <point x="933" y="39"/>
    </contour>
  </outline>
</glyph>
<glyph name="quotesingle" format="2">
  <advance width="233"/>
  <unicode hex="0027"/>
  <outline>
    <contour>
      <point x="101" y="413" type="curve" smooth="yes"/>
      <point x="133" y="413"/>
      <point x="147" y="422"/>
      <point x="170" y="465" type="curve" smooth="yes"/>
      <point x="202" y="526"/>
      <point x="241" y="601"/>
      <point x="241" y="620" type="curve" smooth="yes"/>
      <point x="241" y="644"/>
      <point x="207" y="652"/>
      <point x="141" y="652" type="curve" smooth="yes"/>
      <point x="73" y="652"/>
      <point x="44" y="642"/>
      <point x="44" y="611" type="curve" smooth="yes"/>
      <point x="44" y="585"/>
      <point x="54" y="495"/>
      <point x="57" y="469" type="curve" smooth="yes"/>
      <point x="62" y="424"/>
      <point x="69" y="413"/>
    </contour>
  </outline>
</glyph>
<glyph name="parenleft" format="2">
  <advance width="390"/>
  <unicode hex="0028"/>
  <outline>
    <contour>
      <point x="323" y="-244" type="curve" smooth="yes"/>
      <point x="352" y="-244"/>
      <point x="357" y="-237"/>
      <point x="357" y="-223" type="curve" smooth="yes"/>
      <point x="357" y="-208"/>
      <point x="272" y="-66"/>
      <point x="272" y="237" type="curve" smooth="yes"/>
      <point x="272" y="430"/>
      <point x="326" y="587"/>
      <point x="364" y="668" type="curve" smooth="yes"/>
      <point x="384" y="710"/>
      <point x="386" y="721"/>
      <point x="386" y="732" type="curve" smooth="yes"/>
      <point x="386" y="749"/>
      <point x="378" y="756"/>
      <point x="350" y="756" type="curve" smooth="yes"/>
      <point x="309" y="756"/>
      <point x="261" y="746"/>
      <point x="235" y="718" type="curve" smooth="yes"/>
      <point x="162" y="639"/>
      <point x="77" y="468"/>
      <point x="77" y="245" type="curve" smooth="yes"/>
      <point x="77" y="95"/>
      <point x="115" y="-64"/>
      <point x="213" y="-206" type="curve" smooth="yes"/>
      <point x="235" y="-238"/>
      <point x="306" y="-244"/>
    </contour>
  </outline>
</glyph>
<glyph name="plus" format="2">
  <advance width="580"/>
  <unicode hex="002B"/>
  <outline>
    <contour>
      <point x="337" y="81" type="curve" smooth="yes"/>
      <point x="365" y="81"/>
      <point x="368" y="86"/>
      <point x="368" y="104" type="curve" smooth="yes"/>
      <point x="368" y="150"/>
      <point x="369" y="187"/>
      <point x="372" y="258" type="curve"/>
      <point x="514" y="258" type="line" smooth="yes"/>
      <point x="531" y="258"/>
      <point x="544" y="286"/>
      <point x="544" y="331" type="curve" smooth="yes"/>
      <point x="544" y="359"/>
      <point x="540" y="363"/>
      <point x="529" y="363" type="curve" smooth="yes"/>
      <point x="371" y="363" type="line"/>
      <point x="374" y="445"/>
      <point x="376" y="483"/>
      <point x="376" y="489" type="curve" smooth="yes"/>
      <point x="376" y="523"/>
      <point x="310" y="539"/>
      <point x="270" y="539" type="curve" smooth="yes"/>
      <point x="242" y="539"/>
      <point x="238" y="532"/>
      <point x="238" y="515" type="curve" smooth="yes"/>
      <point x="238" y="469"/>
      <point x="237" y="430"/>
      <point x="235" y="363" type="curve"/>
      <point x="95" y="363" type="line" smooth="yes"/>
      <point x="78" y="363"/>
      <point x="65" y="335"/>
      <point x="65" y="290" type="curve" smooth="yes"/>
      <point x="65" y="262"/>
      <point x="68" y="258"/>
      <point x="80" y="258" type="curve" smooth="yes"/>
      <point x="236" y="258" type="line"/>
      <point x="233" y="173"/>
      <point x="230" y="137"/>
      <point x="230" y="131" type="curve" smooth="yes"/>
      <point x="230" y="96"/>
      <point x="297" y="81"/>
    </contour>
  </outline>
</glyph>
<glyph name="hyphen" format="2">
  <advance width="275"/>
  <unicode hex="002D"/>
  <outline>
    <contour>
      <point x="27" y="239" type="curve" smooth="yes"/>
      <point x="234" y="239" type="line" smooth="yes"/>
      <point x="249" y="239"/>
      <point x="260" y="271"/>
      <point x="260" y="325" type="curve" smooth="yes"/>
      <point x="260" y="360"/>
      <point x="257" y="364"/>
      <point x="247" y="364" type="curve" smooth="yes"/>
      <point x="40" y="364" type="line" smooth="yes"/>
      <point x="25" y="364"/>
      <point x="14" y="331"/>
      <point x="14" y="278" type="curve" smooth="yes"/>
      <point x="14" y="243"/>
      <point x="17" y="239"/>
    </contour>
  </outline>
</glyph>
<glyph name="one" format="2">
  <advance width="445"/>
  <unicode hex="0031"/>
  <outline>
    <contour>
      <point x="329" y="-13" type="curve" smooth="yes"/>
      <point x="373" y="-13"/>
      <point x="378" y="-4"/>
      <point x="378" y="21" type="curve" smooth="yes"/>
      <point x="378" y="199"/>
      <point x="402" y="562"/>
      <point x="402" y="580" type="curve" smooth="yes"/>
      <point x="402" y="630"/>
      <point x="293" y="652"/>
      <point x="270" y="652" type="curve" smooth="yes"/>
      <point x="256" y="652"/>
      <point x="71" y="510"/>
      <point x="62" y="500" type="curve" smooth="yes"/>
      <point x="52" y="489"/>
      <point x="50" y="459"/>
      <point x="50" y="435" type="curve" smooth="yes"/>
      <point x="50" y="386"/>
      <point x="59" y="375"/>
      <point x="69" y="375" type="curve" smooth="yes"/>
      <point x="80" y="375"/>
      <point x="142" y="435"/>
      <point x="179" y="463" type="curve"/>
      <point x="174" y="332"/>
      <point x="158" y="74"/>
      <point x="158" y="59" type="curve" smooth="yes"/>
      <point x="158" y="9"/>
      <point x="265" y="-13"/>
    </contour>
  </outline>
</glyph>
<glyph name="three" format="2">
  <advance width="574"/>
  <unicode hex="0033"/>
  <outline>
    <contour>
      <point x="235" y="-13" type="curve" smooth="yes"/>
      <point x="426" y="-13"/>
      <point x="519" y="95"/>
      <point x="519" y="197" type="curve" smooth="yes"/>
      <point x="519" y="287"/>
      <point x="463" y="346"/>
      <point x="366" y="359" type="curve"/>
      <point x="405" y="365"/>
      <point x="511" y="417"/>
      <point x="511" y="510" type="curve" smooth="yes"/>
      <point x="511" y="600"/>
      <point x="439" y="652"/>
      <point x="292" y="652" type="curve" smooth="yes"/>
      <point x="209" y="652"/>
      <point x="155" y="639"/>
      <point x="112" y="616" type="curve" smooth="yes"/>
      <point x="93" y="606"/>
      <point x="85" y="591"/>
      <point x="85" y="564" type="curve" smooth="yes"/>
      <point x="85" y="506"/>
      <point x="92" y="500"/>
      <point x="107" y="500" type="curve" smooth="yes"/>
      <point x="117" y="500"/>
      <point x="132" y="507"/>
      <point x="151" y="514" type="curve" smooth="yes"/>
      <point x="174" y="523"/>
      <point x="203" y="533"/>
      <point x="239" y="533" type="curve" smooth="yes"/>
      <point x="299" y="533"/>
      <point x="310" y="495"/>
      <point x="310" y="466" type="curve" smooth="yes"/>
      <point x="310" y="411"/>
      <point x="259" y="366"/>
      <point x="194" y="358" type="curve" smooth="yes"/>
      <point x="183" y="357"/>
      <point x="177" y="347"/>
      <point x="177" y="323" type="curve" smooth="yes"/>
      <point x="177" y="307"/>
      <point x="180" y="299"/>
      <point x="192" y="299" type="curve" smooth="yes"/>
      <point x="264" y="299"/>
      <point x="308" y="262"/>
      <point x="308" y="198" type="curve" smooth="yes"/>
      <point x="308" y="124"/>
      <point x="264" y="104"/>
      <point x="214" y="104" type="curve" smooth="yes"/>
      <point x="146" y="104"/>
      <point x="89" y="135"/>
      <point x="82" y="135" type="curve" smooth="yes"/>
      <point x="66" y="135"/>
      <point x="62" y="127"/>
      <point x="62" y="72" type="curve" smooth="yes"/>
      <point x="62" y="41"/>
      <point x="76" y="27"/>
      <point x="95" y="16" type="curve" smooth="yes"/>
      <point x="126" y="-1"/>
      <point x="166" y="-13"/>
    </contour>
  </outline>
</glyph>
<glyph name="five" format="2">
  <advance width="540"/>
  <unicode hex="0035"/>
  <outline>
    <contour>
      <point x="235" y="-13" type="curve" smooth="yes"/>
      <point x="358" y="-13"/>
      <point x="502" y="42"/>
      <point x="502" y="208" type="curve" smooth="yes"/>
      <point x="502" y="334"/>
      <point x="428" y="397"/>
      <point x="264" y="397" type="curve" smooth="yes"/>
      <point x="248" y="397"/>
      <point x="231" y="396"/>
      <point x="220" y="394" type="curve"/>
      <point x="229" y="492" type="line"/>
      <point x="439" y="492" type="line" smooth="yes"/>
      <point x="469" y="492"/>
      <point x="489" y="517"/>
      <point x="489" y="596" type="curve" smooth="yes"/>
      <point x="489" y="626"/>
      <point x="483" y="639"/>
      <point x="463" y="639" type="curve" smooth="yes"/>
      <point x="119" y="639" type="line"/>
      <point x="81" y="275" type="line"/>
      <point x="102" y="277"/>
      <point x="144" y="280"/>
      <point x="162" y="280" type="curve" smooth="yes"/>
      <point x="252" y="280"/>
      <point x="291" y="248"/>
      <point x="291" y="193" type="curve" smooth="yes"/>
      <point x="291" y="123"/>
      <point x="250" y="104"/>
      <point x="210" y="104" type="curve" smooth="yes"/>
      <point x="126" y="104"/>
      <point x="102" y="135"/>
      <point x="90" y="135" type="curve" smooth="yes"/>
      <point x="74" y="135"/>
      <point x="64" y="127"/>
      <point x="64" y="71" type="curve" smooth="yes"/>
      <point x="64" y="41"/>
      <point x="79" y="26"/>
      <point x="96" y="16" type="curve" smooth="yes"/>
      <point x="132" y="-4"/>
      <point x="173" y="-13"/>
    </contour>
  </outline>
</glyph>
<glyph name="six" format="2">
  <advance width="585"/>
  <unicode hex="0036"/>
  <outline>
    <contour>
      <point x="304" y="-13" type="curve" smooth="yes"/>
      <point x="469" y="-13"/>
      <point x="565" y="81"/>
      <point x="565" y="221" type="curve" smooth="yes"/>
      <point x="565" y="385"/>
      <point x="464" y="419"/>
      <point x="353" y="419" type="curve" smooth="yes"/>
      <point x="311" y="419"/>
      <point x="282" y="414"/>
      <point x="273" y="408" type="curve"/>
      <point x="273" y="448"/>
      <point x="339" y="558"/>
      <point x="453" y="558" type="curve" smooth="yes"/>
      <point x="464" y="558"/>
      <point x="468" y="570"/>
      <point x="468" y="586" type="curve" smooth="yes"/>
      <point x="468" y="629"/>
      <point x="457" y="652"/>
      <point x="405" y="652" type="curve" smooth="yes"/>
      <point x="294" y="652"/>
      <point x="55" y="553"/>
      <point x="55" y="259" type="curve" smooth="yes"/>
      <point x="55" y="90"/>
      <point x="129" y="-13"/>
    </contour>
    <contour>
      <point x="311" y="65" type="curve" smooth="yes"/>
      <point x="267" y="65"/>
      <point x="257" y="158"/>
      <point x="257" y="226" type="curve" smooth="yes"/>
      <point x="257" y="237"/>
      <point x="257" y="256"/>
      <point x="258" y="263" type="curve" smooth="yes"/>
      <point x="265" y="315"/>
      <point x="286" y="340"/>
      <point x="317" y="340" type="curve" smooth="yes"/>
      <point x="341" y="340"/>
      <point x="364" y="305"/>
      <point x="364" y="215" type="curve" smooth="yes"/>
      <point x="364" y="118"/>
      <point x="337" y="65"/>
    </contour>
  </outline>
</glyph>
<glyph name="semicolon" format="2">
  <advance width="299"/>
  <unicode hex="003B"/>
  <outline>
    <contour>
      <point x="171" y="299" type="curve" smooth="yes"/>
      <point x="222" y="299"/>
      <point x="287" y="342"/>
      <point x="287" y="399" type="curve" smooth="yes"/>
      <point x="287" y="467"/>
      <point x="241" y="490"/>
      <point x="194" y="490" type="curve" smooth="yes"/>
      <point x="137" y="490"/>
      <point x="80" y="466"/>
      <point x="80" y="395" type="curve" smooth="yes"/>
      <point x="80" y="353"/>
      <point x="116" y="299"/>
    </contour>
    <contour>
      <point x="73" y="-79" type="curve" smooth="yes"/>
      <point x="105" y="-79"/>
      <point x="116" y="-76"/>
      <point x="142" y="-58" type="curve" smooth="yes"/>
      <point x="180" y="-32"/>
      <point x="259" y="47"/>
      <point x="259" y="78" type="curve" smooth="yes"/>
      <point x="259" y="95"/>
      <point x="251" y="111"/>
      <point x="229" y="135" type="curve" smooth="yes"/>
      <point x="209" y="156"/>
      <point x="162" y="192"/>
      <point x="141" y="192" type="curve" smooth="yes"/>
      <point x="129" y="192"/>
      <point x="124" y="188"/>
      <point x="116" y="166" type="curve" smooth="yes"/>
      <point x="104" y="133"/>
      <point x="46" y="16"/>
      <point x="21" y="-33" type="curve" smooth="yes"/>
      <point x="15" y="-45"/>
      <point x="11" y="-51"/>
      <point x="11" y="-54" type="curve" smooth="yes"/>
      <point x="11" y="-57"/>
      <point x="45" y="-79"/>
    </contour>
  </outline>
</glyph>
<glyph name="equal" format="2">
  <advance width="560"/>
  <unicode hex="003D"/>
  <outline>
    <contour>
      <point x="475" y="486" type="curve" smooth="yes"/>
      <point x="138" y="486" type="line" smooth="yes"/>
      <point x="123" y="486"/>
      <point x="110" y="453"/>
      <point x="110" y="399" type="curve" smooth="yes"/>
      <point x="110" y="363"/>
      <point x="115" y="359"/>
      <point x="125" y="359" type="curve" smooth="yes"/>
      <point x="462" y="359" type="line" smooth="yes"/>
      <point x="477" y="359"/>
      <point x="490" y="392"/>
      <point x="490" y="447" type="curve" smooth="yes"/>
      <point x="490" y="482"/>
      <point x="485" y="486"/>
    </contour>
    <contour>
      <point x="464" y="258" type="curve" smooth="yes"/>
      <point x="127" y="258" type="line" smooth="yes"/>
      <point x="112" y="258"/>
      <point x="99" y="224"/>
      <point x="99" y="169" type="curve" smooth="yes"/>
      <point x="99" y="135"/>
      <point x="104" y="131"/>
      <point x="114" y="131" type="curve" smooth="yes"/>
      <point x="451" y="131" type="line" smooth="yes"/>
      <point x="466" y="131"/>
      <point x="479" y="163"/>
      <point x="479" y="217" type="curve" smooth="yes"/>
      <point x="479" y="253"/>
      <point x="474" y="258"/>
    </contour>
  </outline>
</glyph>
<glyph name="greater" format="2">
  <advance width="570"/>
  <unicode hex="003E"/>
  <outline>
    <contour>
      <point x="94" y="84" type="curve" smooth="yes"/>
      <point x="101" y="84"/>
      <point x="111" y="87"/>
      <point x="128" y="94" type="curve" smooth="yes"/>
      <point x="472" y="243" type="line" smooth="yes"/>
      <point x="495" y="253"/>
      <point x="501" y="299"/>
      <point x="501" y="341" type="curve" smooth="yes"/>
      <point x="501" y="365"/>
      <point x="495" y="378"/>
      <point x="472" y="389" type="curve" smooth="yes"/>
      <point x="161" y="535" type="line" smooth="yes"/>
      <point x="148" y="541"/>
      <point x="145" y="542"/>
      <point x="141" y="542" type="curve" smooth="yes"/>
      <point x="132" y="542"/>
      <point x="126" y="509"/>
      <point x="126" y="481" type="curve" smooth="yes"/>
      <point x="126" y="455"/>
      <point x="131" y="436"/>
      <point x="167" y="419" type="curve" smooth="yes"/>
      <point x="314" y="351" type="line"/>
      <point x="112" y="268" type="line" smooth="yes"/>
      <point x="86" y="257"/>
      <point x="76" y="227"/>
      <point x="76" y="144" type="curve" smooth="yes"/>
      <point x="76" y="97"/>
      <point x="85" y="84"/>
    </contour>
  </outline>
</glyph>
<glyph name="question" format="2">
  <advance width="447"/>
  <unicode hex="003F"/>
  <outline>
    <contour>
      <point x="155" y="245" type="curve" smooth="yes"/>
      <point x="169" y="245"/>
      <point x="181" y="257"/>
      <point x="194" y="267" type="curve" smooth="yes"/>
      <point x="307" y="348"/>
      <point x="447" y="357"/>
      <point x="447" y="496" type="curve" smooth="yes"/>
      <point x="447" y="534"/>
      <point x="429" y="569"/>
      <point x="404" y="597" type="curve" smooth="yes"/>
      <point x="361" y="645"/>
      <point x="283" y="652"/>
      <point x="224" y="652" type="curve" smooth="yes"/>
      <point x="170" y="652"/>
      <point x="96" y="638"/>
      <point x="49" y="609" type="curve" smooth="yes"/>
      <point x="28" y="596"/>
      <point x="25" y="579"/>
      <point x="25" y="560" type="curve" smooth="yes"/>
      <point x="25" y="510"/>
      <point x="36" y="493"/>
      <point x="52" y="493" type="curve" smooth="yes"/>
      <point x="56" y="493"/>
      <point x="61" y="494"/>
      <point x="72" y="500" type="curve" smooth="yes"/>
      <point x="103" y="517"/>
      <point x="142" y="535"/>
      <point x="181" y="535" type="curve" smooth="yes"/>
      <point x="204" y="535"/>
      <point x="223" y="519"/>
      <point x="223" y="488" type="curve" smooth="yes"/>
      <point x="223" y="461"/>
      <point x="207" y="421"/>
      <point x="163" y="372" type="curve" smooth="yes"/>
      <point x="135" y="341"/>
      <point x="130" y="314"/>
      <point x="130" y="289" type="curve" smooth="yes"/>
      <point x="130" y="264"/>
      <point x="143" y="245"/>
    </contour>
    <contour>
      <point x="178" y="-1" type="curve" smooth="yes"/>
      <point x="235" y="-1"/>
      <point x="292" y="23"/>
      <point x="292" y="94" type="curve" smooth="yes"/>
      <point x="292" y="136"/>
      <point x="256" y="190"/>
      <point x="201" y="190" type="curve" smooth="yes"/>
      <point x="150" y="190"/>
      <point x="85" y="147"/>
      <point x="85" y="89" type="curve" smooth="yes"/>
      <point x="85" y="22"/>
      <point x="131" y="-1"/>
    </contour>
  </outline>
</glyph>
<glyph name="at" format="2">
  <advance width="911"/>
  <unicode hex="0040"/>
  <outline>
    <contour>
      <point x="173" y="-122" type="curve" smooth="yes"/>
      <point x="183" y="-122"/>
      <point x="190" y="-118"/>
      <point x="190" y="-112" type="curve" smooth="yes"/>
      <point x="190" y="-106"/>
      <point x="185" y="-95"/>
      <point x="180" y="-77" type="curve" smooth="yes"/>
      <point x="157" y="4"/>
      <point x="145" y="83"/>
      <point x="145" y="192" type="curve" smooth="yes"/>
      <point x="145" y="417"/>
      <point x="249" y="570"/>
      <point x="505" y="570" type="curve" smooth="yes"/>
      <point x="774" y="570"/>
      <point x="832" y="470"/>
      <point x="832" y="375" type="curve" smooth="yes"/>
      <point x="832" y="310"/>
      <point x="800" y="239"/>
      <point x="770" y="196" type="curve" smooth="yes"/>
      <point x="753" y="171"/>
      <point x="737" y="155"/>
      <point x="729" y="155" type="curve" smooth="yes"/>
      <point x="722" y="155"/>
      <point x="721" y="167"/>
      <point x="721" y="205" type="curve" smooth="yes"/>
      <point x="721" y="237"/>
      <point x="728" y="364"/>
      <point x="728" y="372" type="curve" smooth="yes"/>
      <point x="732" y="372"/>
      <point x="742" y="391"/>
      <point x="742" y="414" type="curve" smooth="yes"/>
      <point x="742" y="425"/>
      <point x="739" y="425"/>
      <point x="735" y="426" type="curve" smooth="yes"/>
      <point x="602" y="446"/>
      <point x="532" y="451"/>
      <point x="461" y="451" type="curve" smooth="yes"/>
      <point x="374" y="451"/>
      <point x="325" y="414"/>
      <point x="284" y="358" type="curve" smooth="yes"/>
      <point x="240" y="298"/>
      <point x="238" y="121"/>
      <point x="238" y="95" type="curve" smooth="yes"/>
      <point x="238" y="81"/>
      <point x="239" y="71"/>
      <point x="241" y="57" type="curve" smooth="yes"/>
      <point x="247" y="14"/>
      <point x="335" y="-13"/>
      <point x="351" y="-13" type="curve" smooth="yes"/>
      <point x="397" y="-13"/>
      <point x="519" y="136"/>
      <point x="533" y="191" type="curve"/>
      <point x="531" y="171"/>
      <point x="529" y="123"/>
      <point x="529" y="95" type="curve" smooth="yes"/>
      <point x="529" y="81"/>
      <point x="530" y="71"/>
      <point x="532" y="57" type="curve" smooth="yes"/>
      <point x="538" y="14"/>
      <point x="626" y="-13"/>
      <point x="642" y="-13" type="curve" smooth="yes"/>
      <point x="656" y="-13"/>
      <point x="683" y="5"/>
      <point x="715" y="36" type="curve" smooth="yes"/>
      <point x="835" y="153"/>
      <point x="903" y="277"/>
      <point x="903" y="394" type="curve" smooth="yes"/>
      <point x="903" y="474"/>
      <point x="866" y="652"/>
      <point x="515" y="652" type="curve" smooth="yes"/>
      <point x="193" y="652"/>
      <point x="43" y="491"/>
      <point x="43" y="231" type="curve" smooth="yes"/>
      <point x="43" y="133"/>
      <point x="67" y="25"/>
      <point x="116" y="-97" type="curve" smooth="yes"/>
      <point x="124" y="-116"/>
      <point x="149" y="-122"/>
    </contour>
    <contour>
      <point x="441" y="154" type="curve" smooth="yes"/>
      <point x="434" y="154"/>
      <point x="432" y="159"/>
      <point x="432" y="201" type="curve" smooth="yes"/>
      <point x="432" y="317"/>
      <point x="451" y="386"/>
      <point x="499" y="386" type="curve" smooth="yes"/>
      <point x="514" y="386"/>
      <point x="532" y="384"/>
      <point x="547" y="379" type="curve" smooth="yes"/>
      <point x="547" y="259"/>
      <point x="456" y="154"/>
    </contour>
  </outline>
</glyph>
<glyph name="A" format="2">
  <advance width="658"/>
  <unicode hex="0041"/>
  <anchor x="303" y="0" name="bottom"/>
  <anchor x="534" y="0" name="ogonek"/>
  <anchor x="387" y="652" name="top"/>
  <outline>
    <contour>
      <point x="101" y="-13" type="curve"/>
      <point x="118" y="-13"/>
      <point x="119" y="-8"/>
      <point x="121" y="-3" type="curve"/>
      <point x="143" y="58"/>
      <point x="175" y="139"/>
      <point x="181" y="154" type="curve"/>
      <point x="195" y="155"/>
      <point x="234" y="157"/>
      <point x="280" y="157" type="curve" smooth="yes"/>
      <point x="306" y="157"/>
      <point x="368" y="155"/>
      <point x="398" y="152" type="curve"/>
      <point x="404" y="124"/>
      <point x="409" y="96"/>
      <point x="412" y="68" type="curve" smooth="yes"/>
      <point x="414" y="51"/>
      <point x="420" y="41"/>
      <point x="428" y="33" type="curve" smooth="yes"/>
      <point x="459" y="2"/>
      <point x="543" y="-13"/>
      <point x="598" y="-13" type="curve" smooth="yes"/>
      <point x="644" y="-13"/>
      <point x="652" y="-4"/>
      <point x="652" y="14" type="curve" smooth="yes"/>
      <point x="652" y="17"/>
      <point x="651" y="24"/>
      <point x="647" y="41" type="curve" smooth="yes"/>
      <point x="630" y="121"/>
      <point x="551" y="425"/>
      <point x="518" y="588" type="curve" smooth="yes"/>
      <point x="511" y="623"/>
      <point x="421" y="652"/>
      <point x="327" y="652" type="curve" smooth="yes"/>
      <point x="282" y="652"/>
      <point x="275" y="646"/>
      <point x="269" y="626" type="curve" smooth="yes"/>
      <point x="254" y="579"/>
      <point x="128" y="311"/>
      <point x="24" y="87" type="curve" smooth="yes"/>
      <point x="16" y="70"/>
      <point x="15" y="66"/>
      <point x="15" y="58" type="curve" smooth="yes"/>
      <point x="15" y="16"/>
      <point x="60" y="-13"/>
    </contour>
    <contour>
      <point x="218" y="247" type="line"/>
      <point x="248" y="318"/>
      <point x="301" y="439"/>
      <point x="323" y="475" type="curve"/>
      <point x="332" y="437"/>
      <point x="364" y="302"/>
      <point x="376" y="247" type="curve"/>
    </contour>
  </outline>
</glyph>
<glyph name="B" format="2">
  <advance width="713"/>
  <unicode hex="0042"/>
  <anchor x="358" y="0" name="bottom"/>
  <anchor x="393" y="652" name="top"/>
  <outline>
    <contour>
      <point x="63" y="0" type="curve"/>
      <point x="413" y="0" type="line" smooth="yes"/>
      <point x="579" y="0"/>
      <point x="680" y="85"/>
      <point x="680" y="205" type="curve" smooth="yes"/>
      <point x="680" y="294"/>
      <point x="614" y="342"/>
      <point x="525" y="351" type="curve"/>
      <point x="589" y="364"/>
      <point x="668" y="413"/>
      <point x="668" y="502" type="curve" smooth="yes"/>
      <point x="668" y="603"/>
      <point x="590" y="639"/>
      <point x="454" y="639" type="curve" smooth="yes"/>
      <point x="92" y="639" type="line"/>
      <point x="92" y="441"/>
      <point x="63" y="42"/>
    </contour>
    <contour>
      <point x="343" y="88" type="curve"/>
      <point x="302" y="88"/>
      <point x="285" y="100"/>
      <point x="287" y="135" type="curve"/>
      <point x="290" y="193"/>
      <point x="292" y="250"/>
      <point x="295" y="308" type="curve"/>
      <point x="304" y="308"/>
      <point x="314" y="308"/>
      <point x="327" y="306" type="curve" smooth="yes"/>
      <point x="393" y="296"/>
      <point x="452" y="265"/>
      <point x="452" y="185" type="curve" smooth="yes"/>
      <point x="452" y="140"/>
      <point x="416" y="88"/>
    </contour>
    <contour>
      <point x="298" y="354" type="curve"/>
      <point x="296" y="386"/>
      <point x="305" y="529"/>
      <point x="310" y="553" type="curve"/>
      <point x="322" y="553"/>
      <point x="333" y="553"/>
      <point x="345" y="553" type="curve" smooth="yes"/>
      <point x="410" y="553"/>
      <point x="443" y="520"/>
      <point x="443" y="471" type="curve" smooth="yes"/>
      <point x="443" y="441"/>
      <point x="432" y="411"/>
      <point x="406" y="388" type="curve" smooth="yes"/>
      <point x="383" y="368"/>
      <point x="348" y="354"/>
    </contour>
  </outline>
</glyph>
<glyph name="E" format="2">
  <advance width="553"/>
  <unicode hex="0045"/>
  <anchor x="287" y="0" name="bottom"/>
  <anchor x="427" y="0" name="ogonek"/>
  <anchor x="308" y="652" name="top"/>
  <anchor x="30" y="652" name="topleft"/>
  <outline>
    <contour>
      <point x="63" y="0" type="curve"/>
      <point x="506" y="0" type="line" smooth="yes"/>
      <point x="535" y="0"/>
      <point x="541" y="67"/>
      <point x="541" y="86" type="curve" smooth="yes"/>
      <point x="541" y="112"/>
      <point x="541" y="119"/>
      <point x="534" y="119" type="curve" smooth="yes"/>
      <point x="524" y="119"/>
      <point x="452" y="106"/>
      <point x="376" y="106" type="curve" smooth="yes"/>
      <point x="299" y="106"/>
      <point x="288" y="115"/>
      <point x="288" y="146" type="curve"/>
      <point x="288" y="190"/>
      <point x="293" y="264"/>
      <point x="293" y="277" type="curve"/>
      <point x="315" y="277" type="line" smooth="yes"/>
      <point x="394" y="277"/>
      <point x="468" y="272"/>
      <point x="477" y="272" type="curve" smooth="yes"/>
      <point x="487" y="272"/>
      <point x="493" y="313"/>
      <point x="493" y="342" type="curve" smooth="yes"/>
      <point x="493" y="367"/>
      <point x="488" y="374"/>
      <point x="472" y="374" type="curve" smooth="yes"/>
      <point x="296" y="374" type="line"/>
      <point x="296" y="418"/>
      <point x="303" y="524"/>
      <point x="308" y="541" type="curve"/>
      <point x="334" y="541" type="line" smooth="yes"/>
      <point x="396" y="541"/>
      <point x="479" y="537"/>
      <point x="488" y="537" type="curve" smooth="yes"/>
      <point x="498" y="537"/>
      <point x="504" y="577"/>
      <point x="504" y="606" type="curve" smooth="yes"/>
      <point x="504" y="631"/>
      <point x="499" y="639"/>
      <point x="483" y="639" type="curve" smooth="yes"/>
      <point x="92" y="639" type="line"/>
      <point x="92" y="441"/>
      <point x="63" y="42"/>
    </contour>
  </outline>
</glyph>
<glyph name="F" format="2">
  <advance width="510"/>
  <unicode hex="0046"/>
  <anchor x="132" y="0" name="bottom"/>
  <anchor x="296" y="652" name="top"/>
  <outline>
    <contour>
      <point x="234" y="-13" type="curve" smooth="yes"/>
      <point x="278" y="-13"/>
      <point x="283" y="-4"/>
      <point x="283" y="21" type="curve" smooth="yes"/>
      <point x="283" y="89"/>
      <point x="286" y="171"/>
      <point x="290" y="253" type="curve"/>
      <point x="310" y="253" type="line" smooth="yes"/>
      <point x="389" y="253"/>
      <point x="463" y="249"/>
      <point x="472" y="249" type="curve" smooth="yes"/>
      <point x="482" y="249"/>
      <point x="488" y="288"/>
      <point x="488" y="317" type="curve" smooth="yes"/>
      <point x="488" y="343"/>
      <point x="483" y="350"/>
      <point x="467" y="350" type="curve" smooth="yes"/>
      <point x="295" y="350" type="line"/>
      <point x="295" y="365"/>
      <point x="303" y="524"/>
      <point x="305" y="541" type="curve"/>
      <point x="333" y="541" type="line" smooth="yes"/>
      <point x="395" y="541"/>
      <point x="474" y="538"/>
      <point x="483" y="538" type="curve" smooth="yes"/>
      <point x="493" y="538"/>
      <point x="499" y="577"/>
      <point x="499" y="606" type="curve" smooth="yes"/>
      <point x="499" y="631"/>
      <point x="494" y="639"/>
      <point x="478" y="639" type="curve" smooth="yes"/>
      <point x="87" y="639" type="line"/>
      <point x="87" y="498"/>
      <point x="72" y="216"/>
      <point x="68" y="148" type="curve" smooth="yes"/>
      <point x="65" y="98"/>
      <point x="63" y="64"/>
      <point x="63" y="59" type="curve" smooth="yes"/>
      <point x="63" y="9"/>
      <point x="170" y="-13"/>
    </contour>
  </outline>
</glyph>
<glyph name="K" format="2">
  <advance width="693"/>
  <unicode hex="004B"/>
  <anchor x="296" y="0" name="bottom"/>
  <anchor x="340" y="652" name="top"/>
  <outline>
    <contour>
      <point x="234" y="-13" type="curve"/>
      <point x="278" y="-13"/>
      <point x="283" y="-4"/>
      <point x="283" y="21" type="curve"/>
      <point x="283" y="88"/>
      <point x="286" y="185"/>
      <point x="290" y="276" type="curve"/>
      <point x="296" y="263"/>
      <point x="321" y="251"/>
      <point x="337" y="246" type="curve"/>
      <point x="381" y="168"/>
      <point x="424" y="89"/>
      <point x="468" y="14" type="curve"/>
      <point x="482" y="-10"/>
      <point x="492" y="-13"/>
      <point x="514" y="-13" type="curve"/>
      <point x="569" y="-13"/>
      <point x="627" y="17"/>
      <point x="669" y="48" type="curve"/>
      <point x="680" y="56"/>
      <point x="688" y="63"/>
      <point x="688" y="70" type="curve"/>
      <point x="688" y="77"/>
      <point x="686" y="83"/>
      <point x="673" y="101" type="curve"/>
      <point x="633" y="157"/>
      <point x="525" y="344"/>
      <point x="502" y="384" type="curve"/>
      <point x="573" y="476"/>
      <point x="628" y="538"/>
      <point x="655" y="570" type="curve"/>
      <point x="666" y="583"/>
      <point x="671" y="590"/>
      <point x="671" y="596" type="curve"/>
      <point x="671" y="614"/>
      <point x="636" y="652"/>
      <point x="589" y="652" type="curve"/>
      <point x="560" y="652"/>
      <point x="552" y="638"/>
      <point x="536" y="619" type="curve"/>
      <point x="498" y="573"/>
      <point x="356" y="390"/>
      <point x="292" y="311" type="curve"/>
      <point x="299" y="447"/>
      <point x="307" y="570"/>
      <point x="307" y="580" type="curve"/>
      <point x="307" y="630"/>
      <point x="200" y="652"/>
      <point x="136" y="652" type="curve"/>
      <point x="92" y="652"/>
      <point x="87" y="643"/>
      <point x="87" y="618" type="curve"/>
      <point x="87" y="440"/>
      <point x="63" y="77"/>
      <point x="63" y="59" type="curve"/>
      <point x="63" y="9"/>
      <point x="170" y="-13"/>
    </contour>
  </outline>
</glyph>
<glyph name="M" format="2">
  <advance width="1017"/>
  <unicode hex="004D"/>
  <anchor x="450" y="0" name="bottom"/>
  <anchor x="524" y="652" name="top"/>
  <outline>
    <contour>
      <point x="134" y="-13" type="curve" smooth="yes"/>
      <point x="151" y="-13"/>
      <point x="157" y="-7"/>
      <point x="158" y="4" type="curve" smooth="yes"/>
      <point x="166" y="69"/>
      <point x="207" y="412"/>
      <point x="221" y="470" type="curve"/>
      <point x="244" y="381"/>
      <point x="306" y="119"/>
      <point x="316" y="59" type="curve" smooth="yes"/>
      <point x="323" y="17"/>
      <point x="406" y="-13"/>
      <point x="495" y="-13" type="curve" smooth="yes"/>
      <point x="533" y="-13"/>
      <point x="541" y="-8"/>
      <point x="548" y="14" type="curve" smooth="yes"/>
      <point x="585" y="129"/>
      <point x="684" y="339"/>
      <point x="743" y="474" type="curve"/>
      <point x="745" y="410"/>
      <point x="747" y="335"/>
      <point x="747" y="266" type="curve" smooth="yes"/>
      <point x="748" y="168"/>
      <point x="748" y="83"/>
      <point x="748" y="61" type="curve" smooth="yes"/>
      <point x="748" y="12"/>
      <point x="848" y="-13"/>
      <point x="922" y="-13" type="curve" smooth="yes"/>
      <point x="958" y="-13"/>
      <point x="972" y="-7"/>
      <point x="972" y="15" type="curve" smooth="yes"/>
      <point x="972" y="43"/>
      <point x="954" y="519"/>
      <point x="954" y="579" type="curve" smooth="yes"/>
      <point x="954" y="630"/>
      <point x="828" y="652"/>
      <point x="754" y="652" type="curve" smooth="yes"/>
      <point x="715" y="652"/>
      <point x="702" y="648"/>
      <point x="697" y="634" type="curve" smooth="yes"/>
      <point x="675" y="570"/>
      <point x="536" y="271"/>
      <point x="503" y="204" type="curve"/>
      <point x="484" y="268"/>
      <point x="424" y="520"/>
      <point x="410" y="581" type="curve" smooth="yes"/>
      <point x="399" y="628"/>
      <point x="282" y="652"/>
      <point x="197" y="652" type="curve" smooth="yes"/>
      <point x="143" y="652"/>
      <point x="139" y="648"/>
      <point x="135" y="618" type="curve" smooth="yes"/>
      <point x="129" y="570"/>
      <point x="48" y="112"/>
      <point x="48" y="59" type="curve" smooth="yes"/>
      <point x="48" y="9"/>
      <point x="102" y="-13"/>
    </contour>
  </outline>
</glyph>
<glyph name="N" format="2">
  <advance width="744"/>
  <unicode hex="004E"/>
  <anchor x="369" y="0" name="bottom"/>
  <anchor x="413" y="642" name="top"/>
  <outline>
    <contour>
      <point x="155" y="-13" type="curve" smooth="yes"/>
      <point x="178" y="-13"/>
      <point x="181" y="-4"/>
      <point x="181" y="21" type="curve" smooth="yes"/>
      <point x="181" y="112"/>
      <point x="188" y="317"/>
      <point x="192" y="361" type="curve"/>
      <point x="234" y="319"/>
      <point x="529" y="8"/>
      <point x="536" y="0" type="curve" smooth="yes"/>
      <point x="543" y="-9"/>
      <point x="553" y="-13"/>
      <point x="563" y="-13" type="curve" smooth="yes"/>
      <point x="595" y="-13"/>
      <point x="689" y="53"/>
      <point x="689" y="86" type="curve" smooth="yes"/>
      <point x="689" y="156"/>
      <point x="711" y="546"/>
      <point x="711" y="580" type="curve" smooth="yes"/>
      <point x="711" y="630"/>
      <point x="654" y="652"/>
      <point x="620" y="652" type="curve" smooth="yes"/>
      <point x="596" y="652"/>
      <point x="593" y="643"/>
      <point x="593" y="618" type="curve" smooth="yes"/>
      <point x="593" y="527"/>
      <point x="586" y="322"/>
      <point x="582" y="280" type="curve"/>
      <point x="540" y="319"/>
      <point x="245" y="631"/>
      <point x="238" y="639" type="curve" smooth="yes"/>
      <point x="231" y="648"/>
      <point x="221" y="652"/>
      <point x="211" y="652" type="curve" smooth="yes"/>
      <point x="179" y="652"/>
      <point x="85" y="586"/>
      <point x="85" y="553" type="curve" smooth="yes"/>
      <point x="85" y="483"/>
      <point x="63" y="93"/>
      <point x="63" y="59" type="curve" smooth="yes"/>
      <point x="63" y="9"/>
      <point x="120" y="-13"/>
    </contour>
  </outline>
</glyph>
<glyph name="W" format="2">
  <advance width="1017"/>
  <unicode hex="0057"/>
  <anchor x="498" y="0" name="bottom"/>
  <anchor x="582" y="652" name="top"/>
  <outline>
    <contour>
      <point x="302" y="-13" type="curve" smooth="yes"/>
      <point x="334" y="-13"/>
      <point x="341" y="-9"/>
      <point x="348" y="11" type="curve" smooth="yes"/>
      <point x="366" y="64"/>
      <point x="484" y="333"/>
      <point x="526" y="422" type="curve"/>
      <point x="550" y="336"/>
      <point x="603" y="119"/>
      <point x="616" y="59" type="curve" smooth="yes"/>
      <point x="626" y="14"/>
      <point x="723" y="-13"/>
      <point x="796" y="-13" type="curve" smooth="yes"/>
      <point x="828" y="-13"/>
      <point x="859" y="-8"/>
      <point x="864" y="15" type="curve" smooth="yes"/>
      <point x="894" y="152"/>
      <point x="1027" y="533"/>
      <point x="1027" y="580" type="curve" smooth="yes"/>
      <point x="1027" y="630"/>
      <point x="973" y="652"/>
      <point x="940" y="652" type="curve" smooth="yes"/>
      <point x="927" y="652"/>
      <point x="918" y="650"/>
      <point x="916" y="626" type="curve" smooth="yes"/>
      <point x="911" y="567"/>
      <point x="816" y="251"/>
      <point x="799" y="193" type="curve"/>
      <point x="776" y="282"/>
      <point x="719" y="519"/>
      <point x="708" y="587" type="curve" smooth="yes"/>
      <point x="702" y="626"/>
      <point x="617" y="652"/>
      <point x="543" y="652" type="curve" smooth="yes"/>
      <point x="512" y="652"/>
      <point x="504" y="650"/>
      <point x="496" y="627" type="curve" smooth="yes"/>
      <point x="472" y="556"/>
      <point x="326" y="216"/>
      <point x="319" y="194" type="curve"/>
      <point x="291" y="377"/>
      <point x="273" y="536"/>
      <point x="271" y="573" type="curve" smooth="yes"/>
      <point x="268" y="621"/>
      <point x="158" y="652"/>
      <point x="94" y="652" type="curve" smooth="yes"/>
      <point x="62" y="652"/>
      <point x="40" y="648"/>
      <point x="40" y="633" type="curve" smooth="yes"/>
      <point x="40" y="628"/>
      <point x="43" y="614"/>
      <point x="45" y="602" type="curve" smooth="yes"/>
      <point x="51" y="566"/>
      <point x="116" y="117"/>
      <point x="121" y="59" type="curve" smooth="yes"/>
      <point x="125" y="9"/>
      <point x="226" y="-13"/>
    </contour>
  </outline>
</glyph>
<glyph name="Y" format="2">
  <advance width="540"/>
  <unicode hex="0059"/>
  <anchor x="253" y="0" name="bottom"/>
  <anchor x="307" y="642" name="top"/>
  <anchor x="69" y="652" name="topleft"/>
  <outline>
    <contour>
      <point x="319" y="-13" type="curve" smooth="yes"/>
      <point x="363" y="-13"/>
      <point x="368" y="-4"/>
      <point x="368" y="21" type="curve" smooth="yes"/>
      <point x="368" y="81"/>
      <point x="371" y="149"/>
      <point x="374" y="232" type="curve"/>
      <point x="402" y="277"/>
      <point x="512" y="453"/>
      <point x="531" y="483" type="curve" smooth="yes"/>
      <point x="546" y="506"/>
      <point x="553" y="535"/>
      <point x="553" y="559" type="curve" smooth="yes"/>
      <point x="553" y="610"/>
      <point x="508" y="652"/>
      <point x="493" y="652" type="curve" smooth="yes"/>
      <point x="483" y="652"/>
      <point x="478" y="642"/>
      <point x="463" y="614" type="curve" smooth="yes"/>
      <point x="439" y="568"/>
      <point x="377" y="447"/>
      <point x="334" y="381" type="curve"/>
      <point x="314" y="446"/>
      <point x="297" y="509"/>
      <point x="284" y="576" type="curve" smooth="yes"/>
      <point x="273" y="633"/>
      <point x="155" y="652"/>
      <point x="77" y="652" type="curve" smooth="yes"/>
      <point x="30" y="652"/>
      <point x="19" y="641"/>
      <point x="19" y="626" type="curve" smooth="yes"/>
      <point x="19" y="622"/>
      <point x="20" y="618"/>
      <point x="22" y="613" type="curve" smooth="yes"/>
      <point x="63" y="530"/>
      <point x="131" y="336"/>
      <point x="159" y="261" type="curve"/>
      <point x="153" y="153"/>
      <point x="148" y="68"/>
      <point x="148" y="59" type="curve" smooth="yes"/>
      <point x="148" y="9"/>
      <point x="255" y="-13"/>
    </contour>
  </outline>
</glyph>
<glyph name="Z" format="2">
  <advance width="579"/>
  <unicode hex="005A"/>
  <anchor x="287" y="0" name="bottom"/>
  <anchor x="244" y="326" name="center"/>
  <anchor x="301" y="652" name="top"/>
  <outline>
    <contour>
      <point x="490" y="639" type="curve" smooth="yes"/>
      <point x="96" y="639" type="line" smooth="yes"/>
      <point x="82" y="639"/>
      <point x="62" y="622"/>
      <point x="62" y="561" type="curve" smooth="yes"/>
      <point x="62" y="524"/>
      <point x="64" y="506"/>
      <point x="71" y="506" type="curve" smooth="yes"/>
      <point x="79" y="506"/>
      <point x="168" y="519"/>
      <point x="224" y="519" type="curve" smooth="yes"/>
      <point x="306" y="519" type="line"/>
      <point x="278" y="477"/>
      <point x="67" y="180"/>
      <point x="47" y="148" type="curve" smooth="yes"/>
      <point x="40" y="136"/>
      <point x="40" y="128"/>
      <point x="40" y="116" type="curve" smooth="yes"/>
      <point x="40" y="95"/>
      <point x="73" y="0"/>
      <point x="104" y="0" type="curve" smooth="yes"/>
      <point x="512" y="0" type="line" smooth="yes"/>
      <point x="526" y="0"/>
      <point x="546" y="20"/>
      <point x="546" y="73" type="curve" smooth="yes"/>
      <point x="546" y="115"/>
      <point x="544" y="133"/>
      <point x="537" y="133" type="curve" smooth="yes"/>
      <point x="529" y="133"/>
      <point x="440" y="120"/>
      <point x="384" y="120" type="curve" smooth="yes"/>
      <point x="285" y="120" type="line"/>
      <point x="293" y="140"/>
      <point x="527" y="460"/>
      <point x="546" y="491" type="curve" smooth="yes"/>
      <point x="554" y="503"/>
      <point x="554" y="511"/>
      <point x="554" y="523" type="curve" smooth="yes"/>
      <point x="554" y="544"/>
      <point x="521" y="639"/>
    </contour>
  </outline>
</glyph>
<glyph name="bracketleft" format="2">
  <advance width="400"/>
  <unicode hex="005B"/>
  <outline>
    <contour>
      <point x="60" y="-244" type="curve"/>
      <point x="321" y="-244" type="line" smooth="yes"/>
      <point x="341" y="-244"/>
      <point x="345" y="-198"/>
      <point x="345" y="-185" type="curve" smooth="yes"/>
      <point x="345" y="-167"/>
      <point x="345" y="-162"/>
      <point x="340" y="-162" type="curve" smooth="yes"/>
      <point x="334" y="-162"/>
      <point x="300" y="-170"/>
      <point x="259" y="-170" type="curve"/>
      <point x="260" y="419"/>
      <point x="302" y="652"/>
      <point x="304" y="687" type="curve"/>
      <point x="338" y="687"/>
      <point x="370" y="684"/>
      <point x="377" y="684" type="curve" smooth="yes"/>
      <point x="384" y="684"/>
      <point x="388" y="713"/>
      <point x="388" y="733" type="curve" smooth="yes"/>
      <point x="388" y="750"/>
      <point x="385" y="756"/>
      <point x="374" y="756" type="curve" smooth="yes"/>
      <point x="110" y="756" type="line"/>
      <point x="103" y="550"/>
      <point x="60" y="-189"/>
    </contour>
  </outline>
</glyph>
<glyph name="backslash" format="2">
  <advance width="467"/>
  <unicode hex="005C"/>
  <outline>
    <contour>
      <point x="285" y="-35" type="curve" smooth="yes"/>
      <point x="320" y="-35"/>
      <point x="426" y="-4"/>
      <point x="426" y="29" type="curve" smooth="yes"/>
      <point x="426" y="39"/>
      <point x="415" y="71"/>
      <point x="409" y="89" type="curve" smooth="yes"/>
      <point x="399" y="120"/>
      <point x="282" y="556"/>
      <point x="264" y="626" type="curve" smooth="yes"/>
      <point x="252" y="673"/>
      <point x="230" y="675"/>
      <point x="204" y="675" type="curve" smooth="yes"/>
      <point x="148" y="675"/>
      <point x="63" y="641"/>
      <point x="63" y="610" type="curve" smooth="yes"/>
      <point x="63" y="601"/>
      <point x="74" y="569"/>
      <point x="80" y="551" type="curve" smooth="yes"/>
      <point x="90" y="520"/>
      <point x="219" y="34"/>
      <point x="225" y="14" type="curve" smooth="yes"/>
      <point x="239" y="-32"/>
      <point x="259" y="-35"/>
    </contour>
  </outline>
</glyph>
<glyph name="bracketright" format="2">
  <advance width="420"/>
  <unicode hex="005D"/>
  <outline>
    <contour>
      <point x="46" y="-244" type="curve" smooth="yes"/>
      <point x="310" y="-244" type="line"/>
      <point x="317" y="-38"/>
      <point x="360" y="701"/>
      <point x="360" y="756" type="curve"/>
      <point x="99" y="756" type="line" smooth="yes"/>
      <point x="79" y="756"/>
      <point x="75" y="710"/>
      <point x="75" y="697" type="curve" smooth="yes"/>
      <point x="75" y="679"/>
      <point x="75" y="674"/>
      <point x="80" y="674" type="curve" smooth="yes"/>
      <point x="86" y="674"/>
      <point x="120" y="682"/>
      <point x="161" y="682" type="curve"/>
      <point x="160" y="93"/>
      <point x="118" y="-140"/>
      <point x="116" y="-175" type="curve"/>
      <point x="82" y="-175"/>
      <point x="50" y="-172"/>
      <point x="43" y="-172" type="curve" smooth="yes"/>
      <point x="36" y="-172"/>
      <point x="32" y="-201"/>
      <point x="32" y="-221" type="curve" smooth="yes"/>
      <point x="32" y="-238"/>
      <point x="35" y="-244"/>
    </contour>
  </outline>
</glyph>
<glyph name="asciicircum" format="2">
  <advance width="530"/>
  <unicode hex="005E"/>
  <outline>
    <contour>
      <point x="132" y="371" type="curve"/>
      <point x="155" y="393"/>
      <point x="243" y="456"/>
      <point x="294" y="488" type="curve"/>
      <point x="334" y="454"/>
      <point x="405" y="389"/>
      <point x="421" y="371" type="curve"/>
      <point x="459" y="405"/>
      <point x="468" y="434"/>
      <point x="468" y="452" type="curve" smooth="yes"/>
      <point x="468" y="464"/>
      <point x="467" y="474"/>
      <point x="462" y="486" type="curve" smooth="yes"/>
      <point x="454" y="507"/>
      <point x="394" y="588"/>
      <point x="345" y="632" type="curve" smooth="yes"/>
      <point x="328" y="648"/>
      <point x="321" y="652"/>
      <point x="306" y="652" type="curve" smooth="yes"/>
      <point x="289" y="652"/>
      <point x="281" y="647"/>
      <point x="261" y="632" type="curve" smooth="yes"/>
      <point x="204" y="591"/>
      <point x="126" y="515"/>
      <point x="108" y="490" type="curve" smooth="yes"/>
      <point x="95" y="472"/>
      <point x="94" y="461"/>
      <point x="94" y="444" type="curve" smooth="yes"/>
      <point x="94" y="429"/>
      <point x="101" y="405"/>
    </contour>
  </outline>
</glyph>
<glyph name="c" format="2">
  <advance width="434"/>
  <unicode hex="0063"/>
  <anchor x="237" y="0" name="bottom"/>
  <anchor x="289" y="524" name="top"/>
  <outline>
    <contour>
      <point x="267" y="-13" type="curve" smooth="yes"/>
      <point x="310" y="-13"/>
      <point x="366" y="6"/>
      <point x="404" y="41" type="curve" smooth="yes"/>
      <point x="413" y="49"/>
      <point x="416" y="55"/>
      <point x="416" y="67" type="curve" smooth="yes"/>
      <point x="416" y="85"/>
      <point x="412" y="105"/>
      <point x="403" y="105" type="curve" smooth="yes"/>
      <point x="399" y="105"/>
      <point x="395" y="103"/>
      <point x="384" y="99" type="curve" smooth="yes"/>
      <point x="371" y="94"/>
      <point x="336" y="87"/>
      <point x="316" y="87" type="curve" smooth="yes"/>
      <point x="262" y="87"/>
      <point x="237" y="109"/>
      <point x="237" y="208" type="curve" smooth="yes"/>
      <point x="237" y="366"/>
      <point x="269" y="430"/>
      <point x="301" y="430" type="curve" smooth="yes"/>
      <point x="333" y="430"/>
      <point x="360" y="409"/>
      <point x="383" y="398" type="curve" smooth="yes"/>
      <point x="390" y="395"/>
      <point x="397" y="393"/>
      <point x="404" y="393" type="curve" smooth="yes"/>
      <point x="423" y="393"/>
      <point x="429" y="445"/>
      <point x="429" y="464" type="curve" smooth="yes"/>
      <point x="429" y="480"/>
      <point x="425" y="493"/>
      <point x="408" y="500" type="curve" smooth="yes"/>
      <point x="378" y="512"/>
      <point x="334" y="524"/>
      <point x="276" y="524" type="curve" smooth="yes"/>
      <point x="131" y="524"/>
      <point x="35" y="441"/>
      <point x="35" y="219" type="curve" smooth="yes"/>
      <point x="35" y="8"/>
      <point x="147" y="-13"/>
    </contour>
  </outline>
</glyph>
<glyph name="d" format="2">
  <advance width="691"/>
  <unicode hex="0064"/>
  <anchor x="303" y="0" name="bottom"/>
  <anchor x="323" y="262" name="center"/>
  <anchor x="496" y="639" name="cross"/>
  <anchor x="184" y="557" name="top"/>
  <anchor x="651" y="591" name="topright"/>
  <outline>
    <contour>
      <point x="175" y="-13" type="curve" smooth="yes"/>
      <point x="228" y="-13"/>
      <point x="370" y="160"/>
      <point x="386" y="224" type="curve"/>
      <point x="384" y="200"/>
      <point x="381" y="144"/>
      <point x="381" y="112" type="curve" smooth="yes"/>
      <point x="381" y="97"/>
      <point x="382" y="84"/>
      <point x="384" y="69" type="curve" smooth="yes"/>
      <point x="391" y="18"/>
      <point x="494" y="-13"/>
      <point x="512" y="-13" type="curve" smooth="yes"/>
      <point x="556" y="-13"/>
      <point x="653" y="104"/>
      <point x="675" y="137" type="curve" smooth="yes"/>
      <point x="682" y="147"/>
      <point x="686" y="157"/>
      <point x="686" y="167" type="curve" smooth="yes"/>
      <point x="686" y="187"/>
      <point x="669" y="211"/>
      <point x="658" y="211" type="curve" smooth="yes"/>
      <point x="654" y="211"/>
      <point x="652" y="209"/>
      <point x="646" y="201" type="curve"/>
      <point x="639" y="192"/>
      <point x="620" y="168"/>
      <point x="612" y="168" type="curve"/>
      <point x="604" y="168"/>
      <point x="601" y="173"/>
      <point x="601" y="226" type="curve" smooth="yes"/>
      <point x="601" y="263"/>
      <point x="611" y="424"/>
      <point x="611" y="433" type="curve"/>
      <point x="617" y="433"/>
      <point x="628" y="455"/>
      <point x="628" y="482" type="curve" smooth="yes"/>
      <point x="628" y="494"/>
      <point x="625" y="496"/>
      <point x="620" y="496" type="curve"/>
      <point x="616" y="496" type="line"/>
      <point x="616" y="504"/>
      <point x="629" y="659"/>
      <point x="629" y="665" type="curve" smooth="yes"/>
      <point x="629" y="726"/>
      <point x="526" y="756"/>
      <point x="446" y="756" type="curve" smooth="yes"/>
      <point x="419" y="756"/>
      <point x="413" y="748"/>
      <point x="413" y="729" type="curve" smooth="yes"/>
      <point x="413" y="724"/>
      <point x="409" y="653"/>
      <point x="399" y="521" type="curve"/>
      <point x="369" y="522"/>
      <point x="339" y="524"/>
      <point x="302" y="524" type="curve" smooth="yes"/>
      <point x="201" y="524"/>
      <point x="146" y="482"/>
      <point x="98" y="417" type="curve" smooth="yes"/>
      <point x="47" y="348"/>
      <point x="44" y="142"/>
      <point x="44" y="112" type="curve" smooth="yes"/>
      <point x="44" y="97"/>
      <point x="45" y="84"/>
      <point x="47" y="69" type="curve" smooth="yes"/>
      <point x="54" y="18"/>
      <point x="157" y="-13"/>
    </contour>
    <contour>
      <point x="275" y="167" type="curve" smooth="yes"/>
      <point x="267" y="167"/>
      <point x="264" y="172"/>
      <point x="264" y="224" type="curve" smooth="yes"/>
      <point x="264" y="368"/>
      <point x="286" y="454"/>
      <point x="341" y="454" type="curve" smooth="yes"/>
      <point x="358" y="454"/>
      <point x="378" y="452"/>
      <point x="395" y="446" type="curve"/>
      <point x="395" y="297"/>
      <point x="292" y="167"/>
    </contour>
  </outline>
</glyph>
<glyph name="f" format="2">
  <advance width="390"/>
  <unicode hex="0066"/>
  <anchor x="153" y="0" name="bottom"/>
  <anchor x="159" y="686" name="top"/>
  <outline>
    <contour>
      <point x="49" y="-244" type="curve" smooth="yes"/>
      <point x="99" y="-244"/>
      <point x="153" y="-229"/>
      <point x="201" y="-185" type="curve" smooth="yes"/>
      <point x="251" y="-139"/>
      <point x="290" y="-61"/>
      <point x="294" y="65" type="curve" smooth="yes"/>
      <point x="305" y="415" type="line"/>
      <point x="384" y="415" type="line" smooth="yes"/>
      <point x="399" y="415"/>
      <point x="410" y="437"/>
      <point x="410" y="473" type="curve" smooth="yes"/>
      <point x="410" y="496"/>
      <point x="407" y="499"/>
      <point x="397" y="499" type="curve" smooth="yes"/>
      <point x="304" y="499" type="line"/>
      <point x="304" y="536" type="line" smooth="yes"/>
      <point x="304" y="644"/>
      <point x="328" y="661"/>
      <point x="361" y="661" type="curve" smooth="yes"/>
      <point x="375" y="661"/>
      <point x="385" y="660"/>
      <point x="395" y="659" type="curve" smooth="yes"/>
      <point x="403" y="658"/>
      <point x="407" y="657"/>
      <point x="410" y="657" type="curve" smooth="yes"/>
      <point x="420" y="657"/>
      <point x="428" y="674"/>
      <point x="428" y="690" type="curve" smooth="yes"/>
      <point x="428" y="713"/>
      <point x="424" y="730"/>
      <point x="409" y="738" type="curve" smooth="yes"/>
      <point x="394" y="746"/>
      <point x="353" y="756"/>
      <point x="306" y="756" type="curve" smooth="yes"/>
      <point x="257" y="756"/>
      <point x="193" y="751"/>
      <point x="140" y="704" type="curve" smooth="yes"/>
      <point x="88" y="658"/>
      <point x="81" y="593"/>
      <point x="81" y="534" type="curve" smooth="yes"/>
      <point x="81" y="499" type="line"/>
      <point x="40" y="499" type="line" smooth="yes"/>
      <point x="25" y="499"/>
      <point x="14" y="477"/>
      <point x="14" y="441" type="curve" smooth="yes"/>
      <point x="14" y="418"/>
      <point x="17" y="415"/>
      <point x="27" y="415" type="curve" smooth="yes"/>
      <point x="86" y="415" type="line"/>
      <point x="86" y="146" type="line" smooth="yes"/>
      <point x="86" y="-90"/>
      <point x="83" y="-151"/>
      <point x="8" y="-151" type="curve" smooth="yes"/>
      <point x="-1" y="-151"/>
      <point x="-15" y="-149"/>
      <point x="-26" y="-147" type="curve" smooth="yes"/>
      <point x="-33" y="-146"/>
      <point x="-38" y="-145"/>
      <point x="-41" y="-145" type="curve" smooth="yes"/>
      <point x="-51" y="-145"/>
      <point x="-59" y="-160"/>
      <point x="-59" y="-182" type="curve" smooth="yes"/>
      <point x="-59" y="-203"/>
      <point x="-56" y="-222"/>
      <point x="-35" y="-231" type="curve" smooth="yes"/>
      <point x="-13" y="-240"/>
      <point x="20" y="-244"/>
    </contour>
  </outline>
</glyph>
<glyph name="g" format="2">
  <advance width="655"/>
  <unicode hex="0067"/>
  <anchor x="273" y="-244" name="bottom"/>
  <anchor x="343" y="524" name="top"/>
  <outline>
    <contour>
      <point x="330" y="-244" type="curve" smooth="yes"/>
      <point x="400" y="-244"/>
      <point x="469" y="-228"/>
      <point x="520" y="-182" type="curve" smooth="yes"/>
      <point x="568" y="-139"/>
      <point x="599" y="-69"/>
      <point x="599" y="38" type="curve" smooth="yes"/>
      <point x="599" y="177"/>
      <point x="602" y="358"/>
      <point x="611" y="433" type="curve"/>
      <point x="617" y="433"/>
      <point x="627" y="455"/>
      <point x="627" y="482" type="curve" smooth="yes"/>
      <point x="627" y="494"/>
      <point x="625" y="495"/>
      <point x="620" y="496" type="curve" smooth="yes"/>
      <point x="466" y="519"/>
      <point x="385" y="524"/>
      <point x="302" y="524" type="curve" smooth="yes"/>
      <point x="201" y="524"/>
      <point x="146" y="482"/>
      <point x="98" y="417" type="curve" smooth="yes"/>
      <point x="47" y="348"/>
      <point x="44" y="142"/>
      <point x="44" y="112" type="curve" smooth="yes"/>
      <point x="44" y="97"/>
      <point x="45" y="84"/>
      <point x="47" y="69" type="curve" smooth="yes"/>
      <point x="54" y="18"/>
      <point x="157" y="-13"/>
      <point x="175" y="-13" type="curve" smooth="yes"/>
      <point x="228" y="-13"/>
      <point x="382" y="171"/>
      <point x="389" y="237" type="curve"/>
      <point x="392" y="192"/>
      <point x="394" y="111"/>
      <point x="393" y="73" type="curve" smooth="yes"/>
      <point x="390" y="-110"/>
      <point x="365" y="-138"/>
      <point x="295" y="-138" type="curve" smooth="yes"/>
      <point x="191" y="-138"/>
      <point x="134" y="-101"/>
      <point x="116" y="-101" type="curve" smooth="yes"/>
      <point x="107" y="-101"/>
      <point x="98" y="-119"/>
      <point x="98" y="-143" type="curve" smooth="yes"/>
      <point x="98" y="-161"/>
      <point x="100" y="-192"/>
      <point x="126" y="-203" type="curve" smooth="yes"/>
      <point x="184" y="-228"/>
      <point x="241" y="-244"/>
    </contour>
    <contour>
      <point x="275" y="167" type="curve" smooth="yes"/>
      <point x="267" y="167"/>
      <point x="264" y="172"/>
      <point x="264" y="225" type="curve" smooth="yes"/>
      <point x="264" y="368"/>
      <point x="286" y="454"/>
      <point x="341" y="454" type="curve" smooth="yes"/>
      <point x="358" y="454"/>
      <point x="378" y="452"/>
      <point x="395" y="446" type="curve"/>
      <point x="395" y="297"/>
      <point x="292" y="167"/>
    </contour>
  </outline>
</glyph>
<glyph name="k" format="2">
  <advance width="642"/>
  <unicode hex="006B"/>
  <anchor x="290" y="0" name="bottom"/>
  <anchor x="398" y="640" name="top"/>
  <outline>
    <contour>
      <point x="238" y="-13" type="curve" smooth="yes"/>
      <point x="264" y="-13"/>
      <point x="271" y="-5"/>
      <point x="271" y="14" type="curve" smooth="yes"/>
      <point x="271" y="77"/>
      <point x="269" y="118"/>
      <point x="289" y="178" type="curve"/>
      <point x="317" y="264"/>
      <point x="373" y="343"/>
      <point x="389" y="343" type="curve" smooth="yes"/>
      <point x="401" y="343"/>
      <point x="418" y="337"/>
      <point x="418" y="307" type="curve" smooth="yes"/>
      <point x="418" y="253"/>
      <point x="349" y="197"/>
      <point x="309" y="185" type="curve"/>
      <point x="330" y="170"/>
      <point x="490" y="18"/>
      <point x="513" y="-4" type="curve" smooth="yes"/>
      <point x="519" y="-10"/>
      <point x="525" y="-13"/>
      <point x="531" y="-13" type="curve" smooth="yes"/>
      <point x="537" y="-13"/>
      <point x="545" y="-8"/>
      <point x="555" y="4" type="curve" smooth="yes"/>
      <point x="592" y="48"/>
      <point x="624" y="106"/>
      <point x="624" y="153" type="curve" smooth="yes"/>
      <point x="624" y="173"/>
      <point x="620" y="190"/>
      <point x="607" y="203" type="curve" smooth="yes"/>
      <point x="579" y="232"/>
      <point x="540" y="266"/>
      <point x="523" y="277" type="curve"/>
      <point x="534" y="285"/>
      <point x="611" y="347"/>
      <point x="611" y="411" type="curve" smooth="yes"/>
      <point x="611" y="498"/>
      <point x="508" y="524"/>
      <point x="490" y="524" type="curve" smooth="yes"/>
      <point x="436" y="524"/>
      <point x="283" y="340"/>
      <point x="276" y="275" type="curve"/>
      <point x="276" y="311"/>
      <point x="307" y="652"/>
      <point x="307" y="665" type="curve" smooth="yes"/>
      <point x="307" y="726"/>
      <point x="204" y="756"/>
      <point x="123" y="756" type="curve" smooth="yes"/>
      <point x="97" y="756"/>
      <point x="90" y="748"/>
      <point x="90" y="729" type="curve" smooth="yes"/>
      <point x="90" y="718"/>
      <point x="54" y="174"/>
      <point x="54" y="78" type="curve" smooth="yes"/>
      <point x="54" y="18"/>
      <point x="157" y="-13"/>
    </contour>
  </outline>
</glyph>
<glyph name="m" format="2">
  <advance width="1032"/>
  <unicode hex="006D"/>
  <anchor x="475" y="-5" name="bottom"/>
  <anchor x="534" y="524" name="top"/>
  <outline>
    <contour>
      <point x="231" y="-13" type="curve" smooth="yes"/>
      <point x="257" y="-13"/>
      <point x="264" y="-5"/>
      <point x="264" y="14" type="curve" smooth="yes"/>
      <point x="264" y="77"/>
      <point x="263" y="118"/>
      <point x="282" y="178" type="curve" smooth="yes"/>
      <point x="309" y="264"/>
      <point x="366" y="343"/>
      <point x="383" y="343" type="curve" smooth="yes"/>
      <point x="391" y="343"/>
      <point x="394" y="338"/>
      <point x="394" y="285" type="curve" smooth="yes"/>
      <point x="394" y="272"/>
      <point x="384" y="120"/>
      <point x="384" y="112" type="curve" smooth="yes"/>
      <point x="384" y="97"/>
      <point x="383" y="93"/>
      <point x="383" y="78" type="curve" smooth="yes"/>
      <point x="383" y="18"/>
      <point x="486" y="-13"/>
      <point x="567" y="-13" type="curve" smooth="yes"/>
      <point x="593" y="-13"/>
      <point x="600" y="-5"/>
      <point x="600" y="14" type="curve" smooth="yes"/>
      <point x="600" y="77"/>
      <point x="599" y="118"/>
      <point x="618" y="178" type="curve" smooth="yes"/>
      <point x="645" y="264"/>
      <point x="702" y="343"/>
      <point x="719" y="343" type="curve" smooth="yes"/>
      <point x="727" y="343"/>
      <point x="730" y="338"/>
      <point x="730" y="285" type="curve" smooth="yes"/>
      <point x="730" y="272"/>
      <point x="720" y="120"/>
      <point x="720" y="112" type="curve" smooth="yes"/>
      <point x="720" y="97"/>
      <point x="721" y="84"/>
      <point x="723" y="69" type="curve" smooth="yes"/>
      <point x="730" y="18"/>
      <point x="833" y="-13"/>
      <point x="851" y="-13" type="curve" smooth="yes"/>
      <point x="895" y="-13"/>
      <point x="992" y="104"/>
      <point x="1014" y="137" type="curve" smooth="yes"/>
      <point x="1021" y="147"/>
      <point x="1025" y="157"/>
      <point x="1025" y="168" type="curve" smooth="yes"/>
      <point x="1025" y="187"/>
      <point x="1008" y="211"/>
      <point x="997" y="211" type="curve" smooth="yes"/>
      <point x="993" y="211"/>
      <point x="991" y="209"/>
      <point x="985" y="201" type="curve"/>
      <point x="978" y="192"/>
      <point x="959" y="168"/>
      <point x="951" y="168" type="curve" smooth="yes"/>
      <point x="943" y="168"/>
      <point x="940" y="173"/>
      <point x="940" y="226" type="curve" smooth="yes"/>
      <point x="940" y="243"/>
      <point x="950" y="387"/>
      <point x="950" y="399" type="curve" smooth="yes"/>
      <point x="950" y="414"/>
      <point x="949" y="427"/>
      <point x="947" y="442" type="curve" smooth="yes"/>
      <point x="940" y="493"/>
      <point x="837" y="524"/>
      <point x="819" y="524" type="curve" smooth="yes"/>
      <point x="766" y="524"/>
      <point x="614" y="342"/>
      <point x="605" y="276" type="curve"/>
      <point x="611" y="325"/>
      <point x="617" y="384"/>
      <point x="617" y="399" type="curve" smooth="yes"/>
      <point x="617" y="414"/>
      <point x="617" y="427"/>
      <point x="615" y="442" type="curve" smooth="yes"/>
      <point x="608" y="493"/>
      <point x="502" y="524"/>
      <point x="483" y="524" type="curve" smooth="yes"/>
      <point x="430" y="524"/>
      <point x="276" y="340"/>
      <point x="269" y="275" type="curve"/>
      <point x="275" y="336"/>
      <point x="284" y="421"/>
      <point x="284" y="433" type="curve" smooth="yes"/>
      <point x="284" y="494"/>
      <point x="181" y="524"/>
      <point x="100" y="524" type="curve" smooth="yes"/>
      <point x="74" y="524"/>
      <point x="67" y="516"/>
      <point x="67" y="497" type="curve" smooth="yes"/>
      <point x="67" y="486"/>
      <point x="47" y="174"/>
      <point x="47" y="78" type="curve" smooth="yes"/>
      <point x="47" y="18"/>
      <point x="150" y="-13"/>
    </contour>
  </outline>
</glyph>
<glyph name="o" format="2">
  <advance width="561"/>
  <unicode hex="006F"/>
  <anchor x="271" y="0" name="bottom"/>
  <anchor x="281" y="262" name="center"/>
  <anchor x="364" y="10" name="ogonek"/>
  <anchor x="305" y="524" name="top"/>
  <anchor x="419" y="479" name="topright"/>
  <outline>
    <contour>
      <point x="296" y="-13" type="curve" smooth="yes"/>
      <point x="441" y="-13"/>
      <point x="536" y="71"/>
      <point x="536" y="292" type="curve" smooth="yes"/>
      <point x="536" y="510"/>
      <point x="424" y="524"/>
      <point x="276" y="524" type="curve" smooth="yes"/>
      <point x="131" y="524"/>
      <point x="35" y="441"/>
      <point x="35" y="219" type="curve" smooth="yes"/>
      <point x="35" y="1"/>
      <point x="147" y="-13"/>
    </contour>
    <contour>
      <point x="271" y="55" type="curve" smooth="yes"/>
      <point x="239" y="55"/>
      <point x="237" y="71"/>
      <point x="237" y="205" type="curve" smooth="yes"/>
      <point x="237" y="372"/>
      <point x="269" y="454"/>
      <point x="301" y="454" type="curve" smooth="yes"/>
      <point x="332" y="454"/>
      <point x="335" y="438"/>
      <point x="335" y="303" type="curve" smooth="yes"/>
      <point x="335" y="137"/>
      <point x="302" y="55"/>
    </contour>
  </outline>
</glyph>
<glyph name="q" format="2">
  <advance width="649"/>
  <unicode hex="0071"/>
  <outline>
    <contour>
      <point x="545" y="-244" type="curve" smooth="yes"/>
      <point x="571" y="-244"/>
      <point x="577" y="-236"/>
      <point x="577" y="-217" type="curve" smooth="yes"/>
      <point x="577" y="-163"/>
      <point x="611" y="404"/>
      <point x="613" y="433" type="curve"/>
      <point x="619" y="433"/>
      <point x="629" y="455"/>
      <point x="629" y="482" type="curve" smooth="yes"/>
      <point x="629" y="494"/>
      <point x="627" y="495"/>
      <point x="622" y="496" type="curve" smooth="yes"/>
      <point x="466" y="519"/>
      <point x="385" y="524"/>
      <point x="302" y="524" type="curve" smooth="yes"/>
      <point x="201" y="524"/>
      <point x="145" y="482"/>
      <point x="98" y="417" type="curve" smooth="yes"/>
      <point x="48" y="348"/>
      <point x="44" y="142"/>
      <point x="44" y="113" type="curve" smooth="yes"/>
      <point x="44" y="97"/>
      <point x="45" y="84"/>
      <point x="47" y="69" type="curve" smooth="yes"/>
      <point x="55" y="18"/>
      <point x="157" y="-13"/>
      <point x="175" y="-13" type="curve" smooth="yes"/>
      <point x="228" y="-13"/>
      <point x="382" y="171"/>
      <point x="389" y="237" type="curve"/>
      <point x="389" y="200"/>
      <point x="361" y="-141"/>
      <point x="361" y="-153" type="curve" smooth="yes"/>
      <point x="361" y="-214"/>
      <point x="464" y="-244"/>
    </contour>
    <contour>
      <point x="275" y="169" type="curve" smooth="yes"/>
      <point x="267" y="169"/>
      <point x="264" y="174"/>
      <point x="264" y="227" type="curve" smooth="yes"/>
      <point x="264" y="370"/>
      <point x="286" y="456"/>
      <point x="341" y="456" type="curve" smooth="yes"/>
      <point x="358" y="456"/>
      <point x="378" y="454"/>
      <point x="395" y="448" type="curve"/>
      <point x="395" y="299"/>
      <point x="292" y="169"/>
    </contour>
  </outline>
</glyph>
<glyph name="s" format="2">
  <advance width="488"/>
  <unicode hex="0073"/>
  <anchor x="234" y="0" name="bottom"/>
  <anchor x="262" y="524" name="top"/>
  <outline>
    <contour>
      <point x="220" y="-13" type="curve" smooth="yes"/>
      <point x="339" y="-13"/>
      <point x="456" y="61"/>
      <point x="456" y="174" type="curve" smooth="yes"/>
      <point x="456" y="221"/>
      <point x="446" y="258"/>
      <point x="412" y="290" type="curve" smooth="yes"/>
      <point x="333" y="364"/>
      <point x="215" y="350"/>
      <point x="215" y="399" type="curve" smooth="yes"/>
      <point x="215" y="416"/>
      <point x="237" y="427"/>
      <point x="261" y="427" type="curve" smooth="yes"/>
      <point x="345" y="427"/>
      <point x="416" y="378"/>
      <point x="432" y="378" type="curve" smooth="yes"/>
      <point x="442" y="378"/>
      <point x="450" y="396"/>
      <point x="450" y="419" type="curve" smooth="yes"/>
      <point x="450" y="438"/>
      <point x="451" y="463"/>
      <point x="426" y="479" type="curve" smooth="yes"/>
      <point x="391" y="502"/>
      <point x="336" y="524"/>
      <point x="262" y="524" type="curve" smooth="yes"/>
      <point x="115" y="524"/>
      <point x="44" y="437"/>
      <point x="44" y="339" type="curve" smooth="yes"/>
      <point x="44" y="293"/>
      <point x="59" y="245"/>
      <point x="93" y="215" type="curve" smooth="yes"/>
      <point x="178" y="140"/>
      <point x="276" y="160"/>
      <point x="276" y="113" type="curve" smooth="yes"/>
      <point x="276" y="96"/>
      <point x="254" y="85"/>
      <point x="230" y="85" type="curve" smooth="yes"/>
      <point x="140" y="85"/>
      <point x="74" y="134"/>
      <point x="57" y="134" type="curve" smooth="yes"/>
      <point x="48" y="134"/>
      <point x="40" y="116"/>
      <point x="40" y="93" type="curve" smooth="yes"/>
      <point x="40" y="76"/>
      <point x="42" y="42"/>
      <point x="67" y="29" type="curve" smooth="yes"/>
      <point x="113" y="5"/>
      <point x="165" y="-13"/>
    </contour>
  </outline>
</glyph>
<glyph name="v" format="2">
  <advance width="519"/>
  <unicode hex="0076"/>
  <anchor x="231" y="0" name="bottom"/>
  <anchor x="291" y="524" name="top"/>
  <outline>
    <contour>
      <point x="271" y="-13" type="curve" smooth="yes"/>
      <point x="298" y="-13"/>
      <point x="305" y="-8"/>
      <point x="323" y="13" type="curve" smooth="yes"/>
      <point x="396" y="99"/>
      <point x="501" y="273"/>
      <point x="501" y="429" type="curve" smooth="yes"/>
      <point x="501" y="475"/>
      <point x="487" y="490"/>
      <point x="480" y="499" type="curve" smooth="yes"/>
      <point x="462" y="521"/>
      <point x="428" y="524"/>
      <point x="396" y="524" type="curve" smooth="yes"/>
      <point x="381" y="524"/>
      <point x="368" y="515"/>
      <point x="368" y="503" type="curve" smooth="yes"/>
      <point x="368" y="489"/>
      <point x="388" y="424"/>
      <point x="388" y="365" type="curve" smooth="yes"/>
      <point x="388" y="240"/>
      <point x="343" y="150"/>
      <point x="321" y="148" type="curve"/>
      <point x="312" y="148"/>
      <point x="310" y="156"/>
      <point x="308" y="169" type="curve" smooth="yes"/>
      <point x="296" y="238"/>
      <point x="275" y="418"/>
      <point x="275" y="433" type="curve" smooth="yes"/>
      <point x="275" y="498"/>
      <point x="150" y="524"/>
      <point x="83" y="524" type="curve" smooth="yes"/>
      <point x="52" y="524"/>
      <point x="38" y="516"/>
      <point x="38" y="497" type="curve" smooth="yes"/>
      <point x="38" y="484"/>
      <point x="89" y="203"/>
      <point x="106" y="57" type="curve" smooth="yes"/>
      <point x="110" y="19"/>
      <point x="182" y="-13"/>
    </contour>
  </outline>
</glyph>
<glyph name="y" format="2">
  <advance width="684"/>
  <unicode hex="0079"/>
  <anchor x="716" y="-36" name="bottom"/>
  <anchor x="361" y="524" name="top"/>
  <outline>
    <contour>
      <point x="346" y="-244" type="curve" smooth="yes"/>
      <point x="481" y="-244"/>
      <point x="615" y="-183"/>
      <point x="615" y="38" type="curve" smooth="yes"/>
      <point x="615" y="348"/>
      <point x="627" y="419"/>
      <point x="627" y="433" type="curve" smooth="yes"/>
      <point x="627" y="494"/>
      <point x="525" y="524"/>
      <point x="445" y="524" type="curve" smooth="yes"/>
      <point x="418" y="524"/>
      <point x="411" y="516"/>
      <point x="411" y="497" type="curve" smooth="yes"/>
      <point x="411" y="434"/>
      <point x="412" y="393"/>
      <point x="393" y="333" type="curve" smooth="yes"/>
      <point x="365" y="247"/>
      <point x="307" y="168"/>
      <point x="291" y="168" type="curve" smooth="yes"/>
      <point x="283" y="168"/>
      <point x="280" y="173"/>
      <point x="280" y="226" type="curve" smooth="yes"/>
      <point x="280" y="270"/>
      <point x="298" y="421"/>
      <point x="298" y="433" type="curve" smooth="yes"/>
      <point x="298" y="494"/>
      <point x="195" y="524"/>
      <point x="114" y="524" type="curve" smooth="yes"/>
      <point x="88" y="524"/>
      <point x="81" y="516"/>
      <point x="81" y="497" type="curve" smooth="yes"/>
      <point x="81" y="486"/>
      <point x="60" y="241"/>
      <point x="60" y="112" type="curve" smooth="yes"/>
      <point x="60" y="97"/>
      <point x="61" y="84"/>
      <point x="63" y="69" type="curve" smooth="yes"/>
      <point x="70" y="18"/>
      <point x="173" y="-13"/>
      <point x="191" y="-13" type="curve" smooth="yes"/>
      <point x="244" y="-13"/>
      <point x="398" y="171"/>
      <point x="405" y="237" type="curve"/>
      <point x="409" y="205"/>
      <point x="409" y="131"/>
      <point x="409" y="119" type="curve" smooth="yes"/>
      <point x="409" y="-106"/>
      <point x="386" y="-138"/>
      <point x="311" y="-138" type="curve" smooth="yes"/>
      <point x="207" y="-138"/>
      <point x="150" y="-101"/>
      <point x="132" y="-101" type="curve" smooth="yes"/>
      <point x="123" y="-101"/>
      <point x="114" y="-119"/>
      <point x="114" y="-143" type="curve" smooth="yes"/>
      <point x="114" y="-161"/>
      <point x="116" y="-192"/>
      <point x="142" y="-203" type="curve" smooth="yes"/>
      <point x="200" y="-228"/>
      <point x="257" y="-244"/>
    </contour>
  </outline>
</glyph>
<glyph name="z" format="2">
  <advance width="448"/>
  <unicode hex="007A"/>
  <anchor x="185" y="0" name="bottom"/>
  <anchor x="225" y="262" name="center"/>
  <anchor x="239" y="524" name="top"/>
  <outline>
    <contour>
      <point x="54" y="0" type="curve" smooth="yes"/>
      <point x="390" y="0" type="line" smooth="yes"/>
      <point x="412" y="0"/>
      <point x="417" y="56"/>
      <point x="417" y="71" type="curve" smooth="yes"/>
      <point x="417" y="91"/>
      <point x="417" y="96"/>
      <point x="411" y="96" type="curve" smooth="yes"/>
      <point x="404" y="96"/>
      <point x="339" y="86"/>
      <point x="280" y="86" type="curve" smooth="yes"/>
      <point x="252" y="86"/>
      <point x="241" y="89"/>
      <point x="241" y="100" type="curve"/>
      <point x="241" y="112"/>
      <point x="255" y="130"/>
      <point x="273" y="155" type="curve" smooth="yes"/>
      <point x="324" y="227"/>
      <point x="374" y="299"/>
      <point x="425" y="371" type="curve" smooth="yes"/>
      <point x="435" y="385"/>
      <point x="438" y="390"/>
      <point x="438" y="408" type="curve" smooth="yes"/>
      <point x="438" y="451"/>
      <point x="426" y="511"/>
      <point x="397" y="511" type="curve" smooth="yes"/>
      <point x="70" y="511" type="line" smooth="yes"/>
      <point x="48" y="511"/>
      <point x="43" y="455"/>
      <point x="43" y="440" type="curve" smooth="yes"/>
      <point x="43" y="420"/>
      <point x="43" y="415"/>
      <point x="49" y="415" type="curve" smooth="yes"/>
      <point x="56" y="415"/>
      <point x="112" y="425"/>
      <point x="171" y="425" type="curve" smooth="yes"/>
      <point x="199" y="425"/>
      <point x="210" y="422"/>
      <point x="210" y="411" type="curve"/>
      <point x="210" y="399"/>
      <point x="196" y="382"/>
      <point x="178" y="356" type="curve" smooth="yes"/>
      <point x="128" y="285"/>
      <point x="77" y="213"/>
      <point x="26" y="140" type="curve" smooth="yes"/>
      <point x="16" y="126"/>
      <point x="13" y="121"/>
      <point x="13" y="103" type="curve" smooth="yes"/>
      <point x="13" y="60"/>
      <point x="25" y="0"/>
    </contour>
  </outline>
</glyph>
<glyph name="asciitilde" format="2">
  <advance width="539"/>
  <unicode hex="007E"/>
  <outline>
    <contour>
      <point x="344" y="212" type="curve"/>
      <point x="379" y="212"/>
      <point x="405" y="227"/>
      <point x="426" y="249" type="curve"/>
      <point x="455" y="279"/>
      <point x="469" y="327"/>
      <point x="469" y="365" type="curve"/>
      <point x="469" y="409"/>
      <point x="455" y="422"/>
      <point x="440" y="422" type="curve"/>
      <point x="432" y="422"/>
      <point x="428" y="417"/>
      <point x="424" y="405" type="curve"/>
      <point x="419" y="390"/>
      <point x="406" y="375"/>
      <point x="386" y="375" type="curve"/>
      <point x="342" y="375"/>
      <point x="310" y="426"/>
      <point x="221" y="426" type="curve"/>
      <point x="182" y="426"/>
      <point x="154" y="408"/>
      <point x="134" y="381" type="curve"/>
      <point x="110" y="349"/>
      <point x="99" y="307"/>
      <point x="99" y="274" type="curve"/>
      <point x="99" y="230"/>
      <point x="112" y="219"/>
      <point x="127" y="219" type="curve"/>
      <point x="136" y="219"/>
      <point x="139" y="222"/>
      <point x="143" y="234" type="curve"/>
      <point x="148" y="249"/>
      <point x="162" y="264"/>
      <point x="181" y="264" type="curve"/>
      <point x="226" y="264"/>
      <point x="257" y="212"/>
    </contour>
  </outline>
</glyph>
<glyph name="currency" format="2">
  <advance width="570"/>
  <unicode hex="00A4"/>
  <outline>
    <contour>
      <point x="77" y="51" type="curve" smooth="yes"/>
      <point x="79" y="51"/>
      <point x="84" y="53"/>
      <point x="94" y="65" type="curve" smooth="yes"/>
      <point x="102" y="75"/>
      <point x="131" y="107"/>
      <point x="155" y="133" type="curve"/>
      <point x="196" y="122"/>
      <point x="246" y="121"/>
      <point x="301" y="121" type="curve" smooth="yes"/>
      <point x="338" y="121"/>
      <point x="371" y="125"/>
      <point x="400" y="133" type="curve"/>
      <point x="422" y="108"/>
      <point x="450" y="75"/>
      <point x="457" y="64" type="curve" smooth="yes"/>
      <point x="465" y="51"/>
      <point x="468" y="49"/>
      <point x="473" y="49" type="curve" smooth="yes"/>
      <point x="484" y="49"/>
      <point x="537" y="72"/>
      <point x="537" y="97" type="curve" smooth="yes"/>
      <point x="537" y="106"/>
      <point x="533" y="115"/>
      <point x="524" y="126" type="curve" smooth="yes"/>
      <point x="517" y="135"/>
      <point x="497" y="157"/>
      <point x="479" y="175" type="curve"/>
      <point x="517" y="210"/>
      <point x="539" y="263"/>
      <point x="539" y="338" type="curve" smooth="yes"/>
      <point x="539" y="390"/>
      <point x="527" y="425"/>
      <point x="505" y="450" type="curve"/>
      <point x="526" y="471"/>
      <point x="550" y="494"/>
      <point x="560" y="507" type="curve" smooth="yes"/>
      <point x="565" y="514"/>
      <point x="566" y="519"/>
      <point x="566" y="526" type="curve" smooth="yes"/>
      <point x="566" y="551"/>
      <point x="520" y="573"/>
      <point x="505" y="573" type="curve" smooth="yes"/>
      <point x="502" y="573"/>
      <point x="498" y="571"/>
      <point x="488" y="559" type="curve" smooth="yes"/>
      <point x="480" y="549"/>
      <point x="451" y="517"/>
      <point x="428" y="491" type="curve"/>
      <point x="386" y="502"/>
      <point x="336" y="503"/>
      <point x="281" y="503" type="curve" smooth="yes"/>
      <point x="244" y="503"/>
      <point x="210" y="499"/>
      <point x="182" y="490" type="curve"/>
      <point x="161" y="515"/>
      <point x="132" y="549"/>
      <point x="125" y="560" type="curve" smooth="yes"/>
      <point x="117" y="573"/>
      <point x="114" y="575"/>
      <point x="109" y="575" type="curve" smooth="yes"/>
      <point x="98" y="575"/>
      <point x="45" y="552"/>
      <point x="45" y="527" type="curve" smooth="yes"/>
      <point x="45" y="518"/>
      <point x="49" y="509"/>
      <point x="58" y="498" type="curve" smooth="yes"/>
      <point x="65" y="489"/>
      <point x="85" y="467"/>
      <point x="104" y="448" type="curve"/>
      <point x="65" y="413"/>
      <point x="44" y="360"/>
      <point x="44" y="286" type="curve" smooth="yes"/>
      <point x="44" y="234"/>
      <point x="56" y="199"/>
      <point x="78" y="175" type="curve"/>
      <point x="57" y="154"/>
      <point x="33" y="130"/>
      <point x="22" y="117" type="curve" smooth="yes"/>
      <point x="16" y="110"/>
      <point x="16" y="105"/>
      <point x="16" y="98" type="curve" smooth="yes"/>
      <point x="16" y="73"/>
      <point x="62" y="51"/>
    </contour>
    <contour>
      <point x="304" y="189" type="curve" smooth="yes"/>
      <point x="250" y="189"/>
      <point x="217" y="217"/>
      <point x="217" y="291" type="curve" smooth="yes"/>
      <point x="217" y="349"/>
      <point x="228" y="437"/>
      <point x="278" y="435" type="curve" smooth="yes"/>
      <point x="332" y="435"/>
      <point x="365" y="408"/>
      <point x="365" y="333" type="curve" smooth="yes"/>
      <point x="365" y="274"/>
      <point x="354" y="189"/>
    </contour>
  </outline>
</glyph>
<glyph name="brokenbar" format="2">
  <advance width="370"/>
  <unicode hex="00A6"/>
  <outline>
    <contour>
      <point x="152" y="678" type="curve" smooth="yes"/>
      <point x="151" y="678" type="line" smooth="yes"/>
      <point x="107" y="678"/>
      <point x="102" y="669"/>
      <point x="102" y="644" type="curve" smooth="yes"/>
      <point x="102" y="523"/>
      <point x="94" y="422"/>
      <point x="94" y="406" type="curve" smooth="yes"/>
      <point x="94" y="356"/>
      <point x="201" y="334"/>
      <point x="265" y="334" type="curve" smooth="yes"/>
      <point x="309" y="334"/>
      <point x="314" y="343"/>
      <point x="314" y="368" type="curve" smooth="yes"/>
      <point x="314" y="489"/>
      <point x="322" y="590"/>
      <point x="322" y="606" type="curve" smooth="yes"/>
      <point x="322" y="656"/>
      <point x="215" y="678"/>
    </contour>
    <contour>
      <point x="137" y="178" type="curve" smooth="yes"/>
      <point x="136" y="178" type="line" smooth="yes"/>
      <point x="92" y="178"/>
      <point x="87" y="169"/>
      <point x="87" y="144" type="curve" smooth="yes"/>
      <point x="87" y="23"/>
      <point x="79" y="-78"/>
      <point x="79" y="-94" type="curve" smooth="yes"/>
      <point x="79" y="-144"/>
      <point x="186" y="-166"/>
      <point x="250" y="-166" type="curve" smooth="yes"/>
      <point x="294" y="-166"/>
      <point x="299" y="-157"/>
      <point x="299" y="-132" type="curve" smooth="yes"/>
      <point x="299" y="-11"/>
      <point x="307" y="90"/>
      <point x="307" y="106" type="curve" smooth="yes"/>
      <point x="307" y="156"/>
      <point x="200" y="178"/>
    </contour>
  </outline>
</glyph>
<glyph name="copyright" format="2">
  <advance width="768"/>
  <unicode hex="00A9"/>
  <outline>
    <contour>
      <point x="377" y="-13" type="curve" smooth="yes"/>
      <point x="599" y="-13"/>
      <point x="744" y="68"/>
      <point x="744" y="335" type="curve" smooth="yes"/>
      <point x="744" y="611"/>
      <point x="570" y="652"/>
      <point x="408" y="652" type="curve" smooth="yes"/>
      <point x="186" y="652"/>
      <point x="41" y="571"/>
      <point x="41" y="303" type="curve" smooth="yes"/>
      <point x="41" y="28"/>
      <point x="215" y="-13"/>
    </contour>
    <contour>
      <point x="381" y="47" type="curve" smooth="yes"/>
      <point x="258" y="47"/>
      <point x="125" y="79"/>
      <point x="125" y="304" type="curve" smooth="yes"/>
      <point x="125" y="524"/>
      <point x="236" y="590"/>
      <point x="404" y="590" type="curve" smooth="yes"/>
      <point x="527" y="590"/>
      <point x="660" y="558"/>
      <point x="660" y="333" type="curve" smooth="yes"/>
      <point x="660" y="113"/>
      <point x="549" y="47"/>
    </contour>
    <contour>
      <point x="405" y="126" type="curve" smooth="yes"/>
      <point x="471" y="126"/>
      <point x="499" y="131"/>
      <point x="533" y="141" type="curve" smooth="yes"/>
      <point x="551" y="146"/>
      <point x="562" y="163"/>
      <point x="562" y="205" type="curve" smooth="yes"/>
      <point x="562" y="213"/>
      <point x="561" y="217"/>
      <point x="555" y="217" type="curve" smooth="yes"/>
      <point x="552" y="217"/>
      <point x="548" y="216"/>
      <point x="542" y="214" type="curve" smooth="yes"/>
      <point x="509" y="202"/>
      <point x="480" y="198"/>
      <point x="453" y="198" type="curve" smooth="yes"/>
      <point x="427" y="198"/>
      <point x="413" y="200"/>
      <point x="396" y="213" type="curve" smooth="yes"/>
      <point x="367" y="235"/>
      <point x="360" y="260"/>
      <point x="360" y="317" type="curve" smooth="yes"/>
      <point x="360" y="422"/>
      <point x="403" y="440"/>
      <point x="447" y="440" type="curve" smooth="yes"/>
      <point x="511" y="440"/>
      <point x="540" y="415"/>
      <point x="551" y="415" type="curve" smooth="yes"/>
      <point x="569" y="415"/>
      <point x="571" y="458"/>
      <point x="571" y="468" type="curve" smooth="yes"/>
      <point x="571" y="484"/>
      <point x="567" y="493"/>
      <point x="556" y="497" type="curve" smooth="yes"/>
      <point x="532" y="505"/>
      <point x="491" y="515"/>
      <point x="436" y="515" type="curve" smooth="yes"/>
      <point x="311" y="515"/>
      <point x="214" y="481"/>
      <point x="214" y="295" type="curve" smooth="yes"/>
      <point x="214" y="171"/>
      <point x="292" y="126"/>
    </contour>
  </outline>
</glyph>
<glyph name="ordfeminine" format="2">
  <advance width="457"/>
  <unicode hex="00AA"/>
  <outline>
    <contour>
      <point x="124" y="313" type="curve" smooth="yes"/>
      <point x="160" y="313"/>
      <point x="256" y="423"/>
      <point x="267" y="463" type="curve" smooth="yes"/>
      <point x="266" y="447"/>
      <point x="264" y="412"/>
      <point x="264" y="392" type="curve" smooth="yes"/>
      <point x="264" y="382"/>
      <point x="265" y="371"/>
      <point x="266" y="365" type="curve" smooth="yes"/>
      <point x="270" y="332"/>
      <point x="339" y="313"/>
      <point x="351" y="313" type="curve" smooth="yes"/>
      <point x="381" y="313"/>
      <point x="450" y="391"/>
      <point x="464" y="412" type="curve" smooth="yes"/>
      <point x="469" y="419"/>
      <point x="472" y="424"/>
      <point x="472" y="431" type="curve" smooth="yes"/>
      <point x="472" y="450"/>
      <point x="459" y="464"/>
      <point x="452" y="464" type="curve" smooth="yes"/>
      <point x="450" y="464"/>
      <point x="449" y="463"/>
      <point x="444" y="458" type="curve" smooth="yes"/>
      <point x="438" y="452"/>
      <point x="424" y="436"/>
      <point x="418" y="436" type="curve"/>
      <point x="414" y="436"/>
      <point x="411" y="439"/>
      <point x="411" y="474" type="curve"/>
      <point x="411" y="496"/>
      <point x="418" y="588"/>
      <point x="418" y="595" type="curve" smooth="yes"/>
      <point x="422" y="595"/>
      <point x="430" y="609"/>
      <point x="430" y="625" type="curve" smooth="yes"/>
      <point x="430" y="633"/>
      <point x="428" y="633"/>
      <point x="424" y="634" type="curve" smooth="yes"/>
      <point x="321" y="649"/>
      <point x="267" y="652"/>
      <point x="210" y="652" type="curve" smooth="yes"/>
      <point x="142" y="652"/>
      <point x="106" y="625"/>
      <point x="73" y="584" type="curve" smooth="yes"/>
      <point x="39" y="541"/>
      <point x="37" y="411"/>
      <point x="37" y="392" type="curve" smooth="yes"/>
      <point x="37" y="382"/>
      <point x="38" y="374"/>
      <point x="39" y="365" type="curve" smooth="yes"/>
      <point x="43" y="332"/>
      <point x="113" y="313"/>
    </contour>
    <contour>
      <point x="189" y="436" type="curve" smooth="yes"/>
      <point x="185" y="436"/>
      <point x="183" y="439"/>
      <point x="183" y="470" type="curve" smooth="yes"/>
      <point x="183" y="554"/>
      <point x="199" y="602"/>
      <point x="237" y="602" type="curve" smooth="yes"/>
      <point x="250" y="602"/>
      <point x="261" y="601"/>
      <point x="276" y="597" type="curve" smooth="yes"/>
      <point x="276" y="512"/>
      <point x="202" y="436"/>
    </contour>
  </outline>
</glyph>
<glyph name="guillemetleft" format="2">
  <advance width="564"/>
  <unicode hex="00AB"/>
  <outline>
    <contour>
      <point x="481" y="113" type="curve" smooth="yes"/>
      <point x="491" y="113"/>
      <point x="496" y="138"/>
      <point x="496" y="157" type="curve" smooth="yes"/>
      <point x="496" y="166"/>
      <point x="496" y="171"/>
      <point x="487" y="183" type="curve" smooth="yes"/>
      <point x="426" y="268" type="line"/>
      <point x="510" y="445" type="line" smooth="yes"/>
      <point x="515" y="456"/>
      <point x="519" y="462"/>
      <point x="519" y="471" type="curve" smooth="yes"/>
      <point x="519" y="490"/>
      <point x="513" y="513"/>
      <point x="504" y="513" type="curve" smooth="yes"/>
      <point x="501" y="513"/>
      <point x="496" y="509"/>
      <point x="489" y="504" type="curve" smooth="yes"/>
      <point x="303" y="350" type="line" smooth="yes"/>
      <point x="289" y="339"/>
      <point x="284" y="330"/>
      <point x="284" y="315" type="curve" smooth="yes"/>
      <point x="284" y="291"/>
      <point x="292" y="275"/>
      <point x="305" y="264" type="curve" smooth="yes"/>
      <point x="465" y="123" type="line" smooth="yes"/>
      <point x="471" y="117"/>
      <point x="478" y="113"/>
    </contour>
    <contour>
      <point x="245" y="113" type="curve" smooth="yes"/>
      <point x="255" y="113"/>
      <point x="260" y="138"/>
      <point x="260" y="157" type="curve" smooth="yes"/>
      <point x="260" y="166"/>
      <point x="260" y="171"/>
      <point x="251" y="183" type="curve" smooth="yes"/>
      <point x="190" y="268" type="line"/>
      <point x="274" y="445" type="line" smooth="yes"/>
      <point x="279" y="456"/>
      <point x="283" y="462"/>
      <point x="283" y="471" type="curve" smooth="yes"/>
      <point x="283" y="490"/>
      <point x="277" y="513"/>
      <point x="268" y="513" type="curve" smooth="yes"/>
      <point x="265" y="513"/>
      <point x="260" y="509"/>
      <point x="253" y="504" type="curve" smooth="yes"/>
      <point x="67" y="350" type="line" smooth="yes"/>
      <point x="53" y="339"/>
      <point x="48" y="330"/>
      <point x="48" y="315" type="curve" smooth="yes"/>
      <point x="48" y="291"/>
      <point x="56" y="275"/>
      <point x="69" y="264" type="curve" smooth="yes"/>
      <point x="229" y="123" type="line" smooth="yes"/>
      <point x="235" y="117"/>
      <point x="242" y="113"/>
    </contour>
  </outline>
</glyph>
<glyph name="logicalnot" format="2">
  <advance width="550"/>
  <unicode hex="00AC"/>
  <outline>
    <contour>
      <point x="447" y="127" type="curve" smooth="yes"/>
      <point x="467" y="127"/>
      <point x="471" y="132"/>
      <point x="471" y="143" type="curve" smooth="yes"/>
      <point x="471" y="171"/>
      <point x="480" y="349"/>
      <point x="480" y="354" type="curve" smooth="yes"/>
      <point x="480" y="363"/>
      <point x="478" y="365"/>
      <point x="472" y="365" type="curve" smooth="yes"/>
      <point x="127" y="365" type="line" smooth="yes"/>
      <point x="111" y="365"/>
      <point x="99" y="336"/>
      <point x="99" y="288" type="curve" smooth="yes"/>
      <point x="99" y="258"/>
      <point x="102" y="255"/>
      <point x="113" y="255" type="curve" smooth="yes"/>
      <point x="372" y="255" type="line"/>
      <point x="370" y="238"/>
      <point x="364" y="171"/>
      <point x="364" y="160" type="curve" smooth="yes"/>
      <point x="364" y="137"/>
      <point x="417" y="127"/>
    </contour>
  </outline>
</glyph>
<glyph name="registered" format="2">
  <advance width="778"/>
  <unicode hex="00AE"/>
  <outline>
    <contour>
      <point x="387" y="-13" type="curve" smooth="yes"/>
      <point x="609" y="-13"/>
      <point x="754" y="68"/>
      <point x="754" y="336" type="curve" smooth="yes"/>
      <point x="754" y="611"/>
      <point x="580" y="652"/>
      <point x="418" y="652" type="curve" smooth="yes"/>
      <point x="196" y="652"/>
      <point x="51" y="571"/>
      <point x="51" y="303" type="curve" smooth="yes"/>
      <point x="51" y="28"/>
      <point x="225" y="-13"/>
    </contour>
    <contour>
      <point x="391" y="47" type="curve" smooth="yes"/>
      <point x="268" y="47"/>
      <point x="135" y="79"/>
      <point x="135" y="304" type="curve" smooth="yes"/>
      <point x="135" y="524"/>
      <point x="246" y="590"/>
      <point x="414" y="590" type="curve" smooth="yes"/>
      <point x="537" y="590"/>
      <point x="670" y="558"/>
      <point x="670" y="334" type="curve" smooth="yes"/>
      <point x="670" y="113"/>
      <point x="559" y="47"/>
    </contour>
    <contour>
      <point x="327" y="125" type="curve" smooth="yes"/>
      <point x="355" y="125"/>
      <point x="358" y="130"/>
      <point x="358" y="145" type="curve" smooth="yes"/>
      <point x="358" y="184"/>
      <point x="360" y="231"/>
      <point x="363" y="284" type="curve"/>
      <point x="370" y="278"/>
      <point x="385" y="271"/>
      <point x="391" y="271" type="curve"/>
      <point x="428" y="205"/>
      <point x="464" y="147"/>
      <point x="471" y="137" type="curve" smooth="yes"/>
      <point x="478" y="127"/>
      <point x="487" y="125"/>
      <point x="502" y="125" type="curve" smooth="yes"/>
      <point x="536" y="125"/>
      <point x="611" y="154"/>
      <point x="611" y="171" type="curve" smooth="yes"/>
      <point x="611" y="176"/>
      <point x="608" y="179"/>
      <point x="599" y="193" type="curve" smooth="yes"/>
      <point x="579" y="223"/>
      <point x="538" y="291"/>
      <point x="529" y="306" type="curve"/>
      <point x="568" y="323"/>
      <point x="607" y="362"/>
      <point x="607" y="411" type="curve" smooth="yes"/>
      <point x="607" y="480"/>
      <point x="562" y="505"/>
      <point x="468" y="505" type="curve" smooth="yes"/>
      <point x="232" y="505" type="line"/>
      <point x="232" y="381"/>
      <point x="218" y="177"/>
      <point x="218" y="167" type="curve" smooth="yes"/>
      <point x="218" y="138"/>
      <point x="285" y="125"/>
    </contour>
    <contour>
      <point x="363" y="314" type="curve"/>
      <point x="364" y="323"/>
      <point x="371" y="431"/>
      <point x="373" y="447" type="curve"/>
      <point x="380" y="447"/>
      <point x="387" y="447"/>
      <point x="394" y="447" type="curve" smooth="yes"/>
      <point x="438" y="447"/>
      <point x="460" y="421"/>
      <point x="460" y="393" type="curve" smooth="yes"/>
      <point x="460" y="373"/>
      <point x="453" y="355"/>
      <point x="438" y="340" type="curve" smooth="yes"/>
      <point x="422" y="324"/>
      <point x="398" y="314"/>
    </contour>
  </outline>
</glyph>
<glyph name="degree" format="2">
  <advance width="404"/>
  <unicode hex="00B0"/>
  <outline>
    <contour>
      <point x="228" y="332" type="curve" smooth="yes"/>
      <point x="315" y="332"/>
      <point x="386" y="404"/>
      <point x="386" y="494" type="curve" smooth="yes"/>
      <point x="386" y="581"/>
      <point x="315" y="652"/>
      <point x="228" y="652" type="curve" smooth="yes"/>
      <point x="139" y="652"/>
      <point x="68" y="581"/>
      <point x="68" y="494" type="curve" smooth="yes"/>
      <point x="68" y="404"/>
      <point x="139" y="332"/>
    </contour>
    <contour>
      <point x="230" y="408" type="curve" smooth="yes"/>
      <point x="183" y="408"/>
      <point x="146" y="445"/>
      <point x="146" y="493" type="curve" smooth="yes"/>
      <point x="146" y="535"/>
      <point x="183" y="577"/>
      <point x="230" y="577" type="curve" smooth="yes"/>
      <point x="278" y="577"/>
      <point x="315" y="535"/>
      <point x="315" y="494" type="curve" smooth="yes"/>
      <point x="315" y="445"/>
      <point x="278" y="408"/>
    </contour>
  </outline>
</glyph>
<glyph name="plusminus" format="2">
  <advance width="512"/>
  <unicode hex="00B1"/>
  <outline>
    <contour>
      <point x="304" y="200" type="curve" smooth="yes"/>
      <point x="332" y="200"/>
      <point x="336" y="207"/>
      <point x="336" y="224" type="curve" smooth="yes"/>
      <point x="336" y="233"/>
      <point x="339" y="330"/>
      <point x="339" y="341" type="curve"/>
      <point x="446" y="341" type="line" smooth="yes"/>
      <point x="463" y="341"/>
      <point x="476" y="369"/>
      <point x="476" y="414" type="curve" smooth="yes"/>
      <point x="476" y="442"/>
      <point x="472" y="446"/>
      <point x="461" y="446" type="curve" smooth="yes"/>
      <point x="338" y="446" type="line"/>
      <point x="338" y="460"/>
      <point x="343" y="532"/>
      <point x="343" y="538" type="curve" smooth="yes"/>
      <point x="343" y="571"/>
      <point x="277" y="587"/>
      <point x="237" y="587" type="curve" smooth="yes"/>
      <point x="209" y="587"/>
      <point x="205" y="580"/>
      <point x="205" y="563" type="curve" smooth="yes"/>
      <point x="205" y="554"/>
      <point x="202" y="457"/>
      <point x="202" y="446" type="curve"/>
      <point x="95" y="446" type="line" smooth="yes"/>
      <point x="78" y="446"/>
      <point x="65" y="418"/>
      <point x="65" y="373" type="curve" smooth="yes"/>
      <point x="65" y="345"/>
      <point x="68" y="341"/>
      <point x="80" y="341" type="curve" smooth="yes"/>
      <point x="203" y="341" type="line"/>
      <point x="203" y="327"/>
      <point x="198" y="255"/>
      <point x="198" y="249" type="curve" smooth="yes"/>
      <point x="198" y="216"/>
      <point x="264" y="200"/>
    </contour>
    <contour>
      <point x="93" y="20" type="curve" smooth="yes"/>
      <point x="403" y="20" type="line" smooth="yes"/>
      <point x="418" y="20"/>
      <point x="429" y="44"/>
      <point x="429" y="89" type="curve" smooth="yes"/>
      <point x="429" y="116"/>
      <point x="426" y="120"/>
      <point x="416" y="120" type="curve" smooth="yes"/>
      <point x="106" y="120" type="line" smooth="yes"/>
      <point x="91" y="120"/>
      <point x="80" y="97"/>
      <point x="80" y="53" type="curve" smooth="yes"/>
      <point x="80" y="24"/>
      <point x="83" y="20"/>
    </contour>
  </outline>
</glyph>
<glyph name="twosuperior" format="2">
  <advance width="465"/>
  <unicode hex="00B2"/>
  <outline>
    <contour>
      <point x="102" y="213" type="curve"/>
      <point x="392" y="213" type="line"/>
      <point x="402" y="213"/>
      <point x="419" y="226"/>
      <point x="419" y="265" type="curve"/>
      <point x="419" y="299"/>
      <point x="418" y="312"/>
      <point x="411" y="312" type="curve"/>
      <point x="405" y="312"/>
      <point x="344" y="303"/>
      <point x="310" y="303" type="curve"/>
      <point x="296" y="303"/>
      <point x="279" y="303"/>
      <point x="261" y="303" type="curve"/>
      <point x="306" y="342"/>
      <point x="344" y="374"/>
      <point x="369" y="409" type="curve"/>
      <point x="395" y="445"/>
      <point x="412" y="484"/>
      <point x="412" y="532" type="curve"/>
      <point x="412" y="631"/>
      <point x="322" y="652"/>
      <point x="239" y="652" type="curve"/>
      <point x="175" y="652"/>
      <point x="135" y="645"/>
      <point x="104" y="625" type="curve"/>
      <point x="91" y="616"/>
      <point x="87" y="604"/>
      <point x="87" y="592" type="curve"/>
      <point x="87" y="541"/>
      <point x="98" y="532"/>
      <point x="111" y="532" type="curve"/>
      <point x="120" y="532"/>
      <point x="151" y="560"/>
      <point x="197" y="560" type="curve"/>
      <point x="230" y="560"/>
      <point x="243" y="544"/>
      <point x="243" y="511" type="curve"/>
      <point x="243" y="486"/>
      <point x="233" y="459"/>
      <point x="222" y="441" type="curve"/>
      <point x="192" y="393"/>
      <point x="150" y="354"/>
      <point x="95" y="307" type="curve"/>
      <point x="80" y="295"/>
      <point x="78" y="284"/>
      <point x="78" y="273" type="curve"/>
      <point x="78" y="260"/>
      <point x="86" y="213"/>
    </contour>
  </outline>
</glyph>
<glyph name="threesuperior" format="2">
  <advance width="485"/>
  <unicode hex="00B3"/>
  <outline>
    <contour>
      <point x="208" y="200" type="curve"/>
      <point x="360" y="200"/>
      <point x="429" y="278"/>
      <point x="429" y="344" type="curve"/>
      <point x="429" y="406"/>
      <point x="388" y="445"/>
      <point x="312" y="454" type="curve"/>
      <point x="343" y="457"/>
      <point x="424" y="491"/>
      <point x="424" y="556" type="curve"/>
      <point x="424" y="615"/>
      <point x="373" y="652"/>
      <point x="254" y="652" type="curve"/>
      <point x="194" y="652"/>
      <point x="156" y="645"/>
      <point x="119" y="632" type="curve"/>
      <point x="102" y="626"/>
      <point x="94" y="616"/>
      <point x="94" y="593" type="curve"/>
      <point x="94" y="545"/>
      <point x="101" y="540"/>
      <point x="110" y="540" type="curve"/>
      <point x="120" y="540"/>
      <point x="132" y="545"/>
      <point x="149" y="550" type="curve"/>
      <point x="164" y="555"/>
      <point x="182" y="560"/>
      <point x="204" y="560" type="curve"/>
      <point x="243" y="560"/>
      <point x="255" y="548"/>
      <point x="255" y="524" type="curve"/>
      <point x="255" y="496"/>
      <point x="239" y="464"/>
      <point x="174" y="455" type="curve"/>
      <point x="164" y="454"/>
      <point x="159" y="446"/>
      <point x="159" y="431" type="curve"/>
      <point x="159" y="419"/>
      <point x="161" y="405"/>
      <point x="172" y="405" type="curve"/>
      <point x="216" y="405"/>
      <point x="251" y="389"/>
      <point x="251" y="348" type="curve"/>
      <point x="251" y="319"/>
      <point x="235" y="290"/>
      <point x="191" y="290" type="curve"/>
      <point x="143" y="290"/>
      <point x="99" y="307"/>
      <point x="96" y="307" type="curve"/>
      <point x="84" y="307"/>
      <point x="79" y="302"/>
      <point x="79" y="259" type="curve"/>
      <point x="79" y="237"/>
      <point x="90" y="228"/>
      <point x="106" y="220" type="curve"/>
      <point x="129" y="209"/>
      <point x="160" y="200"/>
    </contour>
  </outline>
</glyph>
<glyph name="onesuperior" format="2">
  <advance width="430"/>
  <unicode hex="00B9"/>
  <outline>
    <contour>
      <point x="295" y="200" type="curve" smooth="yes"/>
      <point x="333" y="200"/>
      <point x="336" y="208"/>
      <point x="336" y="227" type="curve" smooth="yes"/>
      <point x="336" y="329"/>
      <point x="353" y="585"/>
      <point x="353" y="597" type="curve" smooth="yes"/>
      <point x="353" y="635"/>
      <point x="260" y="652"/>
      <point x="245" y="652" type="curve" smooth="yes"/>
      <point x="232" y="652"/>
      <point x="93" y="554"/>
      <point x="85" y="547" type="curve" smooth="yes"/>
      <point x="76" y="539"/>
      <point x="75" y="516"/>
      <point x="75" y="498" type="curve" smooth="yes"/>
      <point x="75" y="460"/>
      <point x="83" y="455"/>
      <point x="90" y="455" type="curve" smooth="yes"/>
      <point x="100" y="455"/>
      <point x="143" y="493"/>
      <point x="166" y="507" type="curve" smooth="yes"/>
      <point x="166" y="476"/>
      <point x="151" y="266"/>
      <point x="151" y="254" type="curve" smooth="yes"/>
      <point x="151" y="216"/>
      <point x="242" y="200"/>
    </contour>
  </outline>
</glyph>
<glyph name="ordmasculine" format="2">
  <advance width="409"/>
  <unicode hex="00BA"/>
  <outline>
    <contour>
      <point x="399" y="505" type="curve" smooth="yes"/>
      <point x="399" y="642"/>
      <point x="316" y="652"/>
      <point x="211" y="652" type="curve" smooth="yes"/>
      <point x="107" y="652"/>
      <point x="38" y="599"/>
      <point x="38" y="460" type="curve" smooth="yes"/>
      <point x="38" y="322"/>
      <point x="118" y="313"/>
      <point x="227" y="313" type="curve" smooth="yes"/>
      <point x="330" y="313"/>
      <point x="399" y="366"/>
    </contour>
    <contour>
      <point x="262" y="509" type="curve" smooth="yes"/>
      <point x="262" y="417"/>
      <point x="232" y="369"/>
      <point x="206" y="369" type="curve" smooth="yes"/>
      <point x="177" y="369"/>
      <point x="176" y="378"/>
      <point x="176" y="455" type="curve" smooth="yes"/>
      <point x="176" y="549"/>
      <point x="205" y="596"/>
      <point x="230" y="596" type="curve" smooth="yes"/>
      <point x="259" y="596"/>
      <point x="262" y="586"/>
    </contour>
  </outline>
</glyph>
<glyph name="guillemetright" format="2">
  <advance width="558"/>
  <unicode hex="00BB"/>
  <outline>
    <contour>
      <point x="306" y="113" type="curve" smooth="yes"/>
      <point x="309" y="113"/>
      <point x="314" y="117"/>
      <point x="321" y="122" type="curve" smooth="yes"/>
      <point x="507" y="276" type="line" smooth="yes"/>
      <point x="521" y="287"/>
      <point x="526" y="296"/>
      <point x="526" y="311" type="curve" smooth="yes"/>
      <point x="526" y="335"/>
      <point x="518" y="351"/>
      <point x="505" y="362" type="curve" smooth="yes"/>
      <point x="345" y="503" type="line" smooth="yes"/>
      <point x="339" y="509"/>
      <point x="332" y="513"/>
      <point x="329" y="513" type="curve" smooth="yes"/>
      <point x="319" y="513"/>
      <point x="314" y="488"/>
      <point x="314" y="469" type="curve" smooth="yes"/>
      <point x="314" y="460"/>
      <point x="314" y="455"/>
      <point x="323" y="443" type="curve" smooth="yes"/>
      <point x="384" y="358" type="line"/>
      <point x="300" y="181" type="line" smooth="yes"/>
      <point x="295" y="170"/>
      <point x="291" y="164"/>
      <point x="291" y="155" type="curve" smooth="yes"/>
      <point x="291" y="136"/>
      <point x="297" y="113"/>
    </contour>
    <contour>
      <point x="70" y="113" type="curve" smooth="yes"/>
      <point x="73" y="113"/>
      <point x="78" y="117"/>
      <point x="85" y="122" type="curve" smooth="yes"/>
      <point x="271" y="276" type="line" smooth="yes"/>
      <point x="285" y="287"/>
      <point x="290" y="296"/>
      <point x="290" y="311" type="curve" smooth="yes"/>
      <point x="290" y="335"/>
      <point x="282" y="351"/>
      <point x="269" y="362" type="curve" smooth="yes"/>
      <point x="109" y="503" type="line" smooth="yes"/>
      <point x="103" y="509"/>
      <point x="96" y="513"/>
      <point x="93" y="513" type="curve" smooth="yes"/>
      <point x="83" y="513"/>
      <point x="78" y="488"/>
      <point x="78" y="469" type="curve" smooth="yes"/>
      <point x="78" y="460"/>
      <point x="78" y="455"/>
      <point x="87" y="443" type="curve" smooth="yes"/>
      <point x="148" y="358" type="line"/>
      <point x="64" y="181" type="line" smooth="yes"/>
      <point x="59" y="170"/>
      <point x="55" y="164"/>
      <point x="55" y="155" type="curve" smooth="yes"/>
      <point x="55" y="136"/>
      <point x="61" y="113"/>
    </contour>
  </outline>
</glyph>
<glyph name="questiondown" format="2">
  <advance width="447"/>
  <unicode hex="00BF"/>
  <outline>
    <contour>
      <point x="235" y="-129" type="curve" smooth="yes"/>
      <point x="307" y="-129"/>
      <point x="376" y="-107"/>
      <point x="410" y="-86" type="curve" smooth="yes"/>
      <point x="431" y="-73"/>
      <point x="434" y="-56"/>
      <point x="434" y="-37" type="curve" smooth="yes"/>
      <point x="434" y="13"/>
      <point x="423" y="30"/>
      <point x="407" y="30" type="curve" smooth="yes"/>
      <point x="403" y="30"/>
      <point x="398" y="29"/>
      <point x="389" y="24" type="curve" smooth="yes"/>
      <point x="357" y="6"/>
      <point x="319" y="-12"/>
      <point x="278" y="-12" type="curve" smooth="yes"/>
      <point x="255" y="-12"/>
      <point x="236" y="4"/>
      <point x="236" y="35" type="curve" smooth="yes"/>
      <point x="236" y="62"/>
      <point x="252" y="102"/>
      <point x="296" y="151" type="curve" smooth="yes"/>
      <point x="324" y="182"/>
      <point x="329" y="209"/>
      <point x="329" y="234" type="curve" smooth="yes"/>
      <point x="329" y="259"/>
      <point x="316" y="278"/>
      <point x="304" y="278" type="curve" smooth="yes"/>
      <point x="290" y="278"/>
      <point x="278" y="266"/>
      <point x="265" y="256" type="curve" smooth="yes"/>
      <point x="152" y="175"/>
      <point x="12" y="166"/>
      <point x="12" y="28" type="curve" smooth="yes"/>
      <point x="12" y="-12"/>
      <point x="30" y="-47"/>
      <point x="55" y="-74" type="curve" smooth="yes"/>
      <point x="100" y="-122"/>
      <point x="173" y="-129"/>
    </contour>
    <contour>
      <point x="258" y="333" type="curve" smooth="yes"/>
      <point x="309" y="333"/>
      <point x="374" y="376"/>
      <point x="374" y="434" type="curve" smooth="yes"/>
      <point x="374" y="501"/>
      <point x="328" y="524"/>
      <point x="281" y="524" type="curve" smooth="yes"/>
      <point x="224" y="524"/>
      <point x="167" y="500"/>
      <point x="167" y="429" type="curve" smooth="yes"/>
      <point x="167" y="387"/>
      <point x="203" y="333"/>
    </contour>
  </outline>
</glyph>
<glyph name="Eth" format="2">
  <advance width="793"/>
  <unicode hex="00D0"/>
  <outline>
    <contour>
      <point x="73" y="0" type="curve"/>
      <point x="425" y="0" type="line" smooth="yes"/>
      <point x="615" y="0"/>
      <point x="773" y="80"/>
      <point x="773" y="364" type="curve" smooth="yes"/>
      <point x="773" y="623"/>
      <point x="612" y="639"/>
      <point x="456" y="639" type="curve" smooth="yes"/>
      <point x="102" y="639" type="line"/>
      <point x="102" y="566"/>
      <point x="98" y="466"/>
      <point x="94" y="379" type="curve" smooth="yes"/>
      <point x="41" y="379" type="line" smooth="yes"/>
      <point x="26" y="379"/>
      <point x="15" y="348"/>
      <point x="15" y="299" type="curve" smooth="yes"/>
      <point x="15" y="265"/>
      <point x="18" y="261"/>
      <point x="28" y="261" type="curve" smooth="yes"/>
      <point x="43" y="261"/>
      <point x="68" y="261"/>
      <point x="89" y="261" type="curve" smooth="yes"/>
      <point x="81" y="132"/>
      <point x="73" y="21"/>
    </contour>
    <contour>
      <point x="386" y="92" type="curve" smooth="yes"/>
      <point x="309" y="92"/>
      <point x="298" y="98"/>
      <point x="298" y="137" type="curve"/>
      <point x="298" y="181"/>
      <point x="299" y="224"/>
      <point x="301" y="261" type="curve" smooth="yes"/>
      <point x="337" y="261"/>
      <point x="369" y="261"/>
      <point x="403" y="261" type="curve" smooth="yes"/>
      <point x="418" y="261"/>
      <point x="429" y="292"/>
      <point x="429" y="343" type="curve" smooth="yes"/>
      <point x="429" y="376"/>
      <point x="426" y="379"/>
      <point x="416" y="379" type="curve" smooth="yes"/>
      <point x="306" y="379" type="line" smooth="yes"/>
      <point x="310" y="461"/>
      <point x="317" y="529"/>
      <point x="318" y="542" type="curve"/>
      <point x="338" y="545"/>
      <point x="362" y="547"/>
      <point x="408" y="547" type="curve" smooth="yes"/>
      <point x="493" y="547"/>
      <point x="545" y="496"/>
      <point x="545" y="363" type="curve" smooth="yes"/>
      <point x="545" y="122"/>
      <point x="481" y="92"/>
    </contour>
  </outline>
</glyph>
<glyph name="Oslash" format="2">
  <advance width="748"/>
  <unicode hex="00D8"/>
  <anchor x="360" y="0" name="bottom"/>
  <anchor x="394" y="652" name="top"/>
  <outline>
    <contour>
      <point x="71" y="-95" type="curve" smooth="yes"/>
      <point x="75" y="-95"/>
      <point x="81" y="-89"/>
      <point x="88" y="-80" type="curve" smooth="yes"/>
      <point x="166" y="14" type="line"/>
      <point x="232" y="-11"/>
      <point x="293" y="-13"/>
      <point x="352" y="-13" type="curve" smooth="yes"/>
      <point x="567" y="-13"/>
      <point x="723" y="45"/>
      <point x="723" y="364" type="curve" smooth="yes"/>
      <point x="723" y="492"/>
      <point x="688" y="555"/>
      <point x="649" y="589" type="curve"/>
      <point x="719" y="666" type="line" smooth="yes"/>
      <point x="727" y="674"/>
      <point x="730" y="680"/>
      <point x="730" y="685" type="curve" smooth="yes"/>
      <point x="730" y="708"/>
      <point x="697" y="734"/>
      <point x="687" y="734" type="curve" smooth="yes"/>
      <point x="683" y="734"/>
      <point x="677" y="728"/>
      <point x="670" y="719" type="curve" smooth="yes"/>
      <point x="592" y="625" type="line"/>
      <point x="542" y="647"/>
      <point x="478" y="652"/>
      <point x="405" y="652" type="curve" smooth="yes"/>
      <point x="191" y="652"/>
      <point x="35" y="594"/>
      <point x="35" y="274" type="curve" smooth="yes"/>
      <point x="35" y="155"/>
      <point x="66" y="86"/>
      <point x="109" y="50" type="curve"/>
      <point x="39" y="-27" type="line" smooth="yes"/>
      <point x="31" y="-35"/>
      <point x="28" y="-41"/>
      <point x="28" y="-46" type="curve" smooth="yes"/>
      <point x="28" y="-69"/>
      <point x="61" y="-95"/>
    </contour>
    <contour>
      <point x="400" y="69" type="curve" smooth="yes"/>
      <point x="345" y="69"/>
      <point x="307" y="86"/>
      <point x="285" y="132" type="curve"/>
      <point x="345" y="211"/>
      <point x="424" y="320"/>
      <point x="493" y="412" type="curve"/>
      <point x="494" y="390"/>
      <point x="494" y="372"/>
      <point x="494" y="354" type="curve" smooth="yes"/>
      <point x="494" y="249"/>
      <point x="478" y="69"/>
    </contour>
    <contour>
      <point x="266" y="212" type="curve"/>
      <point x="264" y="236"/>
      <point x="263" y="258"/>
      <point x="263" y="278" type="curve" smooth="yes"/>
      <point x="263" y="402"/>
      <point x="280" y="581"/>
      <point x="357" y="581" type="curve" smooth="yes"/>
      <point x="415" y="582"/>
      <point x="456" y="559"/>
      <point x="478" y="497" type="curve"/>
      <point x="418" y="416"/>
      <point x="336" y="302"/>
    </contour>
  </outline>
</glyph>
<glyph name="Thorn" format="2">
  <advance width="650"/>
  <unicode hex="00DE"/>
  <outline>
    <contour>
      <point x="234" y="-13" type="curve" smooth="yes"/>
      <point x="278" y="-13"/>
      <point x="283" y="-4"/>
      <point x="283" y="21" type="curve" smooth="yes"/>
      <point x="283" y="48"/>
      <point x="283" y="80"/>
      <point x="284" y="115" type="curve"/>
      <point x="289" y="107"/>
      <point x="315" y="88"/>
      <point x="335" y="88" type="curve" smooth="yes"/>
      <point x="521" y="88"/>
      <point x="643" y="203"/>
      <point x="643" y="343" type="curve" smooth="yes"/>
      <point x="643" y="455"/>
      <point x="579" y="523"/>
      <point x="444" y="523" type="curve" smooth="yes"/>
      <point x="304" y="523" type="line"/>
      <point x="306" y="555"/>
      <point x="307" y="576"/>
      <point x="307" y="580" type="curve" smooth="yes"/>
      <point x="307" y="630"/>
      <point x="200" y="652"/>
      <point x="136" y="652" type="curve" smooth="yes"/>
      <point x="92" y="652"/>
      <point x="87" y="643"/>
      <point x="87" y="618" type="curve" smooth="yes"/>
      <point x="87" y="440"/>
      <point x="63" y="77"/>
      <point x="63" y="59" type="curve" smooth="yes"/>
      <point x="63" y="9"/>
      <point x="170" y="-13"/>
    </contour>
    <contour>
      <point x="286" y="156" type="curve"/>
      <point x="286" y="171"/>
      <point x="298" y="425"/>
      <point x="299" y="437" type="curve"/>
      <point x="308" y="437"/>
      <point x="317" y="437"/>
      <point x="331" y="437" type="curve" smooth="yes"/>
      <point x="389" y="437"/>
      <point x="416" y="382"/>
      <point x="416" y="321" type="curve" smooth="yes"/>
      <point x="416" y="272"/>
      <point x="402" y="221"/>
      <point x="369" y="189" type="curve" smooth="yes"/>
      <point x="349" y="169"/>
      <point x="322" y="156"/>
    </contour>
  </outline>
</glyph>
<glyph name="germandbls" format="2">
  <advance width="670"/>
  <unicode hex="00DF"/>
  <outline>
    <contour>
      <point x="11" y="-244" type="curve" smooth="yes"/>
      <point x="61" y="-244"/>
      <point x="121" y="-229"/>
      <point x="169" y="-184" type="curve" smooth="yes"/>
      <point x="219" y="-138"/>
      <point x="258" y="-60"/>
      <point x="261" y="65" type="curve" smooth="yes"/>
      <point x="273" y="536" type="line" smooth="yes"/>
      <point x="276" y="644"/>
      <point x="297" y="661"/>
      <point x="330" y="661" type="curve" smooth="yes"/>
      <point x="417" y="661"/>
      <point x="497" y="574"/>
      <point x="497" y="534" type="curve" smooth="yes"/>
      <point x="497" y="508"/>
      <point x="494" y="500"/>
      <point x="382" y="458" type="curve" smooth="yes"/>
      <point x="336" y="441"/>
      <point x="304" y="417"/>
      <point x="304" y="376" type="curve" smooth="yes"/>
      <point x="304" y="348"/>
      <point x="321" y="312"/>
      <point x="358" y="264" type="curve" smooth="yes"/>
      <point x="424" y="180"/>
      <point x="446" y="150"/>
      <point x="446" y="114" type="curve" smooth="yes"/>
      <point x="446" y="99"/>
      <point x="434" y="84"/>
      <point x="406" y="84" type="curve" smooth="yes"/>
      <point x="354" y="84"/>
      <point x="331" y="95"/>
      <point x="321" y="95" type="curve" smooth="yes"/>
      <point x="312" y="95"/>
      <point x="308" y="77"/>
      <point x="308" y="54" type="curve" smooth="yes"/>
      <point x="308" y="37"/>
      <point x="317" y="21"/>
      <point x="332" y="13" type="curve" smooth="yes"/>
      <point x="361" y="-2"/>
      <point x="409" y="-13"/>
      <point x="454" y="-13" type="curve" smooth="yes"/>
      <point x="565" y="-13"/>
      <point x="642" y="49"/>
      <point x="642" y="148" type="curve" smooth="yes"/>
      <point x="642" y="199"/>
      <point x="631" y="239"/>
      <point x="615" y="274" type="curve" smooth="yes"/>
      <point x="583" y="346"/>
      <point x="552" y="395"/>
      <point x="552" y="418" type="curve" smooth="yes"/>
      <point x="552" y="436"/>
      <point x="563" y="443"/>
      <point x="584" y="454" type="curve" smooth="yes"/>
      <point x="626" y="475"/>
      <point x="633" y="484"/>
      <point x="633" y="526" type="curve" smooth="yes"/>
      <point x="633" y="559"/>
      <point x="611" y="595"/>
      <point x="575" y="633" type="curve" smooth="yes"/>
      <point x="514" y="696"/>
      <point x="403" y="756"/>
      <point x="278" y="756" type="curve" smooth="yes"/>
      <point x="229" y="756"/>
      <point x="160" y="751"/>
      <point x="107" y="704" type="curve" smooth="yes"/>
      <point x="55" y="658"/>
      <point x="48" y="593"/>
      <point x="48" y="534" type="curve" smooth="yes"/>
      <point x="48" y="146" type="line" smooth="yes"/>
      <point x="48" y="-28"/>
      <point x="46" y="-107"/>
      <point x="15" y="-136" type="curve" smooth="yes"/>
      <point x="4" y="-147"/>
      <point x="-10" y="-151"/>
      <point x="-23" y="-151" type="curve" smooth="yes"/>
      <point x="-44" y="-151"/>
      <point x="-72" y="-145"/>
      <point x="-79" y="-145" type="curve" smooth="yes"/>
      <point x="-88" y="-145"/>
      <point x="-97" y="-161"/>
      <point x="-97" y="-177" type="curve" smooth="yes"/>
      <point x="-97" y="-203"/>
      <point x="-94" y="-222"/>
      <point x="-73" y="-231" type="curve" smooth="yes"/>
      <point x="-51" y="-240"/>
      <point x="-18" y="-244"/>
    </contour>
  </outline>
</glyph>
<glyph name="eth" format="2">
  <advance width="562"/>
  <unicode hex="00F0"/>
  <outline>
    <contour>
      <point x="267" y="-13" type="curve" smooth="yes"/>
      <point x="455" y="-13"/>
      <point x="536" y="73"/>
      <point x="536" y="297" type="curve" smooth="yes"/>
      <point x="536" y="460"/>
      <point x="458" y="602"/>
      <point x="430" y="636" type="curve"/>
      <point x="455" y="644"/>
      <point x="480" y="652"/>
      <point x="505" y="660" type="curve" smooth="yes"/>
      <point x="518" y="664"/>
      <point x="519" y="682"/>
      <point x="519" y="692" type="curve" smooth="yes"/>
      <point x="519" y="710"/>
      <point x="513" y="741"/>
      <point x="498" y="741" type="curve" smooth="yes"/>
      <point x="494" y="741"/>
      <point x="482" y="737"/>
      <point x="475" y="735" type="curve" smooth="yes"/>
      <point x="469" y="733"/>
      <point x="417" y="716"/>
      <point x="377" y="702" type="curve"/>
      <point x="359" y="720"/>
      <point x="338" y="735"/>
      <point x="324" y="744" type="curve" smooth="yes"/>
      <point x="310" y="753"/>
      <point x="301" y="756"/>
      <point x="293" y="756" type="curve" smooth="yes"/>
      <point x="215" y="756"/>
      <point x="156" y="725"/>
      <point x="156" y="710" type="curve" smooth="yes"/>
      <point x="156" y="704"/>
      <point x="161" y="701"/>
      <point x="171" y="692" type="curve" smooth="yes"/>
      <point x="180" y="684"/>
      <point x="194" y="673"/>
      <point x="212" y="653" type="curve"/>
      <point x="192" y="647"/>
      <point x="171" y="640"/>
      <point x="149" y="633" type="curve" smooth="yes"/>
      <point x="136" y="629"/>
      <point x="135" y="611"/>
      <point x="135" y="601" type="curve" smooth="yes"/>
      <point x="135" y="579"/>
      <point x="142" y="552"/>
      <point x="153" y="552" type="curve" smooth="yes"/>
      <point x="159" y="552"/>
      <point x="171" y="556"/>
      <point x="178" y="558" type="curve" smooth="yes"/>
      <point x="207" y="568"/>
      <point x="236" y="577"/>
      <point x="265" y="587" type="curve"/>
      <point x="276" y="574"/>
      <point x="296" y="541"/>
      <point x="302" y="524" type="curve"/>
      <point x="296" y="524"/>
      <point x="290" y="524"/>
      <point x="283" y="524" type="curve" smooth="yes"/>
      <point x="126" y="524"/>
      <point x="35" y="441"/>
      <point x="35" y="219" type="curve" smooth="yes"/>
      <point x="35" y="1"/>
      <point x="152" y="-13"/>
    </contour>
    <contour>
      <point x="271" y="55" type="curve" smooth="yes"/>
      <point x="239" y="55"/>
      <point x="237" y="71"/>
      <point x="237" y="205" type="curve" smooth="yes"/>
      <point x="237" y="372"/>
      <point x="269" y="454"/>
      <point x="301" y="454" type="curve" smooth="yes"/>
      <point x="332" y="454"/>
      <point x="335" y="438"/>
      <point x="335" y="303" type="curve" smooth="yes"/>
      <point x="335" y="137"/>
      <point x="302" y="55"/>
    </contour>
  </outline>
</glyph>
<glyph name="divide" format="2">
  <advance width="519"/>
  <unicode hex="00F7"/>
  <outline>
    <contour>
      <point x="79" y="232" type="curve" smooth="yes"/>
      <point x="456" y="232" type="line" smooth="yes"/>
      <point x="471" y="232"/>
      <point x="483" y="262"/>
      <point x="483" y="311" type="curve" smooth="yes"/>
      <point x="483" y="343"/>
      <point x="479" y="346"/>
      <point x="469" y="346" type="curve" smooth="yes"/>
      <point x="92" y="346" type="line" smooth="yes"/>
      <point x="77" y="346"/>
      <point x="65" y="316"/>
      <point x="65" y="267" type="curve" smooth="yes"/>
      <point x="65" y="235"/>
      <point x="69" y="232"/>
    </contour>
    <contour>
      <point x="249" y="1" type="curve" smooth="yes"/>
      <point x="295" y="1"/>
      <point x="343" y="19"/>
      <point x="343" y="72" type="curve" smooth="yes"/>
      <point x="343" y="105"/>
      <point x="313" y="146"/>
      <point x="268" y="146" type="curve" smooth="yes"/>
      <point x="226" y="146"/>
      <point x="172" y="113"/>
      <point x="172" y="69" type="curve" smooth="yes"/>
      <point x="172" y="18"/>
      <point x="211" y="1"/>
    </contour>
    <contour>
      <point x="275" y="433" type="curve" smooth="yes"/>
      <point x="317" y="433"/>
      <point x="371" y="466"/>
      <point x="371" y="509" type="curve" smooth="yes"/>
      <point x="371" y="561"/>
      <point x="332" y="578"/>
      <point x="294" y="578" type="curve" smooth="yes"/>
      <point x="248" y="578"/>
      <point x="200" y="560"/>
      <point x="200" y="506" type="curve" smooth="yes"/>
      <point x="200" y="474"/>
      <point x="230" y="433"/>
    </contour>
  </outline>
</glyph>
<glyph name="thorn" format="2">
  <advance width="641"/>
  <unicode hex="00FE"/>
  <outline>
    <contour>
      <point x="208" y="-244" type="curve" smooth="yes"/>
      <point x="235" y="-244"/>
      <point x="241" y="-236"/>
      <point x="241" y="-217" type="curve" smooth="yes"/>
      <point x="241" y="-212"/>
      <point x="244" y="-155"/>
      <point x="254" y="-9" type="curve"/>
      <point x="293" y="-11"/>
      <point x="325" y="-13"/>
      <point x="353" y="-13" type="curve" smooth="yes"/>
      <point x="452" y="-13"/>
      <point x="506" y="16"/>
      <point x="564" y="94" type="curve" smooth="yes"/>
      <point x="611" y="157"/>
      <point x="611" y="326"/>
      <point x="611" y="399" type="curve" smooth="yes"/>
      <point x="611" y="414"/>
      <point x="610" y="427"/>
      <point x="608" y="442" type="curve" smooth="yes"/>
      <point x="601" y="493"/>
      <point x="498" y="524"/>
      <point x="480" y="524" type="curve" smooth="yes"/>
      <point x="427" y="524"/>
      <point x="273" y="340"/>
      <point x="266" y="275" type="curve"/>
      <point x="272" y="336"/>
      <point x="297" y="653"/>
      <point x="297" y="665" type="curve" smooth="yes"/>
      <point x="297" y="726"/>
      <point x="194" y="756"/>
      <point x="113" y="756" type="curve" smooth="yes"/>
      <point x="87" y="756"/>
      <point x="80" y="748"/>
      <point x="80" y="729" type="curve" smooth="yes"/>
      <point x="80" y="718"/>
      <point x="51" y="176"/>
      <point x="43" y="78" type="curve"/>
      <point x="38" y="78"/>
      <point x="27" y="56"/>
      <point x="27" y="29" type="curve" smooth="yes"/>
      <point x="27" y="17"/>
      <point x="30" y="15"/>
      <point x="35" y="15" type="curve"/>
      <point x="39" y="15" type="line"/>
      <point x="30" y="-99"/>
      <point x="24" y="-146"/>
      <point x="24" y="-153" type="curve" smooth="yes"/>
      <point x="24" y="-214"/>
      <point x="128" y="-244"/>
    </contour>
    <contour>
      <point x="314" y="55" type="curve" smooth="yes"/>
      <point x="297" y="55"/>
      <point x="277" y="57"/>
      <point x="260" y="63" type="curve"/>
      <point x="260" y="212"/>
      <point x="363" y="342"/>
      <point x="380" y="342" type="curve" smooth="yes"/>
      <point x="388" y="342"/>
      <point x="391" y="337"/>
      <point x="391" y="284" type="curve" smooth="yes"/>
      <point x="391" y="141"/>
      <point x="369" y="55"/>
    </contour>
  </outline>
</glyph>
<glyph name="iogonek" format="2">
  <advance width="312"/>
  <unicode hex="012F"/>
  <outline>
    <contour>
      <point x="185" y="-14" type="curve" smooth="yes"/>
      <point x="229" y="-14"/>
      <point x="326" y="103"/>
      <point x="348" y="136" type="curve" smooth="yes"/>
      <point x="355" y="146"/>
      <point x="359" y="156"/>
      <point x="359" y="166" type="curve" smooth="yes"/>
      <point x="359" y="186"/>
      <point x="342" y="210"/>
      <point x="331" y="210" type="curve" smooth="yes"/>
      <point x="327" y="210"/>
      <point x="325" y="208"/>
      <point x="319" y="200" type="curve"/>
      <point x="312" y="191"/>
      <point x="293" y="167"/>
      <point x="285" y="167" type="curve" smooth="yes"/>
      <point x="277" y="167"/>
      <point x="274" y="172"/>
      <point x="274" y="225" type="curve" smooth="yes"/>
      <point x="274" y="241"/>
      <point x="292" y="420"/>
      <point x="292" y="432" type="curve" smooth="yes"/>
      <point x="292" y="493"/>
      <point x="189" y="523"/>
      <point x="108" y="523" type="curve" smooth="yes"/>
      <point x="82" y="523"/>
      <point x="75" y="515"/>
      <point x="75" y="496" type="curve" smooth="yes"/>
      <point x="75" y="485"/>
      <point x="54" y="129"/>
      <point x="54" y="111" type="curve" smooth="yes"/>
      <point x="54" y="86"/>
      <point x="56" y="75"/>
      <point x="57" y="68" type="curve" smooth="yes"/>
      <point x="64" y="17"/>
      <point x="167" y="-14"/>
    </contour>
    <contour>
      <point x="176" y="594" type="curve" smooth="yes"/>
      <point x="234" y="594"/>
      <point x="311" y="630"/>
      <point x="311" y="680" type="curve" smooth="yes"/>
      <point x="311" y="737"/>
      <point x="257" y="756"/>
      <point x="203" y="756" type="curve" smooth="yes"/>
      <point x="135" y="756"/>
      <point x="70" y="736"/>
      <point x="70" y="675" type="curve" smooth="yes"/>
      <point x="70" y="640"/>
      <point x="111" y="594"/>
    </contour>
    <contour>
      <point x="179" y="-234" type="curve"/>
      <point x="223" y="-234"/>
      <point x="320" y="-117"/>
      <point x="342" y="-84" type="curve" smooth="yes"/>
      <point x="349" y="-74"/>
      <point x="353" y="-64"/>
      <point x="353" y="-54" type="curve" smooth="yes"/>
      <point x="353" y="-34"/>
      <point x="336" y="-10"/>
      <point x="325" y="-10" type="curve" smooth="yes"/>
      <point x="321" y="-10"/>
      <point x="319" y="-12"/>
      <point x="313" y="-20" type="curve"/>
      <point x="306" y="-29"/>
      <point x="251" y="-87"/>
      <point x="224" y="-87" type="curve"/>
      <point x="210" y="-87"/>
      <point x="191" y="-81"/>
      <point x="191" y="-54" type="curve" smooth="yes"/>
      <point x="191" y="15"/>
      <point x="356" y="71"/>
      <point x="225" y="59" type="curve" smooth="yes"/>
      <point x="158" y="55"/>
      <point x="48" y="-39"/>
      <point x="48" y="-109" type="curve" smooth="yes"/>
      <point x="48" y="-124"/>
      <point x="49" y="-137"/>
      <point x="51" y="-152" type="curve" smooth="yes"/>
      <point x="58" y="-203"/>
      <point x="161" y="-234"/>
    </contour>
  </outline>
</glyph>
<glyph name="idotless" format="2">
  <advance width="312"/>
  <unicode hex="0131"/>
  <anchor x="156" y="0" name="bottom"/>
  <anchor x="281" y="10" name="ogonek"/>
  <anchor x="161" y="524" name="top"/>
  <outline>
    <contour>
      <point x="185" y="-14" type="curve" smooth="yes"/>
      <point x="229" y="-14"/>
      <point x="326" y="103"/>
      <point x="348" y="136" type="curve" smooth="yes"/>
      <point x="355" y="146"/>
      <point x="359" y="156"/>
      <point x="359" y="166" type="curve" smooth="yes"/>
      <point x="359" y="186"/>
      <point x="342" y="210"/>
      <point x="331" y="210" type="curve" smooth="yes"/>
      <point x="327" y="210"/>
      <point x="325" y="208"/>
      <point x="319" y="200" type="curve" smooth="yes"/>
      <point x="312" y="191"/>
      <point x="293" y="167"/>
      <point x="285" y="167" type="curve" smooth="yes"/>
      <point x="277" y="167"/>
      <point x="274" y="172"/>
      <point x="274" y="225" type="curve" smooth="yes"/>
      <point x="274" y="241"/>
      <point x="292" y="420"/>
      <point x="292" y="432" type="curve" smooth="yes"/>
      <point x="292" y="493"/>
      <point x="189" y="523"/>
      <point x="108" y="523" type="curve" smooth="yes"/>
      <point x="82" y="523"/>
      <point x="75" y="515"/>
      <point x="75" y="496" type="curve" smooth="yes"/>
      <point x="75" y="485"/>
      <point x="54" y="129"/>
      <point x="54" y="111" type="curve" smooth="yes"/>
      <point x="54" y="86"/>
      <point x="56" y="75"/>
      <point x="57" y="68" type="curve" smooth="yes"/>
      <point x="64" y="17"/>
      <point x="167" y="-14"/>
    </contour>
  </outline>
</glyph>
<glyph name="lslash" format="2">
  <advance width="359"/>
  <unicode hex="0142"/>
  <outline>
    <contour>
      <point x="393" y="466" type="curve" smooth="yes"/>
      <point x="393" y="481"/>
      <point x="386" y="510"/>
      <point x="373" y="510" type="curve" smooth="yes"/>
      <point x="369" y="510"/>
      <point x="343" y="483"/>
      <point x="290" y="430" type="curve"/>
      <point x="296" y="498"/>
      <point x="307" y="660"/>
      <point x="307" y="665" type="curve" smooth="yes"/>
      <point x="307" y="726"/>
      <point x="204" y="756"/>
      <point x="123" y="756" type="curve" smooth="yes"/>
      <point x="97" y="756"/>
      <point x="90" y="748"/>
      <point x="90" y="729" type="curve" smooth="yes"/>
      <point x="90" y="722"/>
      <point x="73" y="432"/>
      <point x="64" y="288" type="curve"/>
      <point x="26" y="253"/>
      <point x="-11" y="218"/>
      <point x="-16" y="211" type="curve" smooth="yes"/>
      <point x="-21" y="204"/>
      <point x="-25" y="199"/>
      <point x="-25" y="188" type="curve" smooth="yes"/>
      <point x="-25" y="173"/>
      <point x="-18" y="144"/>
      <point x="-5" y="144" type="curve" smooth="yes"/>
      <point x="-2" y="144"/>
      <point x="18" y="164"/>
      <point x="59" y="205" type="curve"/>
      <point x="56" y="153"/>
      <point x="54" y="117"/>
      <point x="54" y="112" type="curve" smooth="yes"/>
      <point x="54" y="87"/>
      <point x="56" y="76"/>
      <point x="57" y="69" type="curve" smooth="yes"/>
      <point x="64" y="18"/>
      <point x="167" y="-13"/>
      <point x="185" y="-13" type="curve" smooth="yes"/>
      <point x="229" y="-13"/>
      <point x="326" y="104"/>
      <point x="348" y="137" type="curve" smooth="yes"/>
      <point x="355" y="147"/>
      <point x="359" y="157"/>
      <point x="359" y="168" type="curve" smooth="yes"/>
      <point x="359" y="187"/>
      <point x="342" y="211"/>
      <point x="331" y="211" type="curve" smooth="yes"/>
      <point x="327" y="211"/>
      <point x="325" y="209"/>
      <point x="319" y="201" type="curve" smooth="yes"/>
      <point x="312" y="192"/>
      <point x="293" y="168"/>
      <point x="285" y="168" type="curve" smooth="yes"/>
      <point x="277" y="168"/>
      <point x="274" y="173"/>
      <point x="274" y="226" type="curve" smooth="yes"/>
      <point x="274" y="233"/>
      <point x="278" y="287"/>
      <point x="284" y="347" type="curve"/>
      <point x="327" y="388"/>
      <point x="378" y="435"/>
      <point x="384" y="443" type="curve" smooth="yes"/>
      <point x="389" y="450"/>
      <point x="393" y="455"/>
    </contour>
  </outline>
</glyph>
<glyph name="Eng" format="2">
  <advance width="766"/>
  <unicode hex="014A"/>
  <outline>
    <contour>
      <point x="460" y="-244" type="curve" smooth="yes"/>
      <point x="509" y="-244"/>
      <point x="573" y="-239"/>
      <point x="626" y="-192" type="curve" smooth="yes"/>
      <point x="678" y="-146"/>
      <point x="695" y="-82"/>
      <point x="700" y="-22" type="curve" smooth="yes"/>
      <point x="718" y="222"/>
      <point x="730" y="383"/>
      <point x="733" y="497" type="curve" smooth="yes"/>
      <point x="733" y="515"/>
      <point x="732" y="531"/>
      <point x="730" y="550" type="curve" smooth="yes"/>
      <point x="721" y="614"/>
      <point x="634" y="652"/>
      <point x="611" y="652" type="curve" smooth="yes"/>
      <point x="545" y="652"/>
      <point x="303" y="423"/>
      <point x="294" y="342" type="curve"/>
      <point x="301" y="418"/>
      <point x="308" y="554"/>
      <point x="308" y="576" type="curve" smooth="yes"/>
      <point x="308" y="630"/>
      <point x="193" y="652"/>
      <point x="129" y="652" type="curve" smooth="yes"/>
      <point x="97" y="652"/>
      <point x="88" y="642"/>
      <point x="88" y="619" type="curve" smooth="yes"/>
      <point x="87" y="440"/>
      <point x="63" y="178"/>
      <point x="63" y="59" type="curve" smooth="yes"/>
      <point x="63" y="9"/>
      <point x="170" y="-13"/>
      <point x="242" y="-16" type="curve" smooth="yes"/>
      <point x="274" y="-17"/>
      <point x="283" y="-6"/>
      <point x="283" y="17" type="curve" smooth="yes"/>
      <point x="283" y="96"/>
      <point x="286" y="147"/>
      <point x="310" y="222" type="curve" smooth="yes"/>
      <point x="345" y="329"/>
      <point x="466" y="427"/>
      <point x="487" y="427" type="curve" smooth="yes"/>
      <point x="497" y="427"/>
      <point x="507" y="421"/>
      <point x="504" y="355" type="curve" smooth="yes"/>
      <point x="500" y="261"/>
      <point x="489" y="125"/>
      <point x="475" y="-24" type="curve" smooth="yes"/>
      <point x="466" y="-118"/>
      <point x="438" y="-149"/>
      <point x="405" y="-149" type="curve" smooth="yes"/>
      <point x="370" y="-149"/>
      <point x="360" y="-148"/>
      <point x="350" y="-147" type="curve" smooth="yes"/>
      <point x="342" y="-146"/>
      <point x="338" y="-145"/>
      <point x="335" y="-145" type="curve" smooth="yes"/>
      <point x="325" y="-145"/>
      <point x="317" y="-162"/>
      <point x="317" y="-178" type="curve" smooth="yes"/>
      <point x="317" y="-201"/>
      <point x="321" y="-218"/>
      <point x="336" y="-226" type="curve" smooth="yes"/>
      <point x="351" y="-234"/>
      <point x="413" y="-244"/>
    </contour>
  </outline>
</glyph>
<glyph name="eng" format="2">
  <advance width="634"/>
  <unicode hex="014B"/>
  <anchor x="305" y="0" name="bottom"/>
  <anchor x="297" y="524" name="top"/>
  <outline>
    <contour>
      <point x="359" y="-222" type="curve" smooth="yes"/>
      <point x="408" y="-222"/>
      <point x="472" y="-217"/>
      <point x="525" y="-170" type="curve" smooth="yes"/>
      <point x="577" y="-124"/>
      <point x="584" y="-49"/>
      <point x="584" y="0" type="curve" smooth="yes"/>
      <point x="584" y="17"/>
      <point x="614" y="387"/>
      <point x="614" y="399" type="curve" smooth="yes"/>
      <point x="614" y="414"/>
      <point x="613" y="427"/>
      <point x="611" y="442" type="curve" smooth="yes"/>
      <point x="604" y="493"/>
      <point x="501" y="524"/>
      <point x="483" y="524" type="curve" smooth="yes"/>
      <point x="430" y="524"/>
      <point x="276" y="340"/>
      <point x="269" y="275" type="curve"/>
      <point x="273" y="309"/>
      <point x="284" y="421"/>
      <point x="284" y="433" type="curve" smooth="yes"/>
      <point x="284" y="494"/>
      <point x="181" y="524"/>
      <point x="100" y="524" type="curve" smooth="yes"/>
      <point x="74" y="524"/>
      <point x="67" y="516"/>
      <point x="67" y="497" type="curve" smooth="yes"/>
      <point x="67" y="486"/>
      <point x="47" y="174"/>
      <point x="47" y="78" type="curve" smooth="yes"/>
      <point x="47" y="18"/>
      <point x="150" y="-13"/>
      <point x="231" y="-13" type="curve" smooth="yes"/>
      <point x="257" y="-13"/>
      <point x="264" y="-5"/>
      <point x="264" y="14" type="curve" smooth="yes"/>
      <point x="264" y="77"/>
      <point x="263" y="118"/>
      <point x="282" y="178" type="curve" smooth="yes"/>
      <point x="310" y="264"/>
      <point x="366" y="343"/>
      <point x="383" y="343" type="curve" smooth="yes"/>
      <point x="391" y="343"/>
      <point x="398" y="338"/>
      <point x="394" y="285" type="curve"/>
      <point x="370" y="27" type="line" smooth="yes"/>
      <point x="364" y="-26"/>
      <point x="361" y="-71"/>
      <point x="351" y="-92" type="curve" smooth="yes"/>
      <point x="337" y="-119"/>
      <point x="318" y="-127"/>
      <point x="304" y="-127" type="curve" smooth="yes"/>
      <point x="292" y="-127"/>
      <point x="252" y="-123"/>
      <point x="255" y="-123" type="curve" smooth="yes"/>
      <point x="245" y="-123"/>
      <point x="237" y="-140"/>
      <point x="237" y="-156" type="curve" smooth="yes"/>
      <point x="237" y="-179"/>
      <point x="241" y="-196"/>
      <point x="256" y="-204" type="curve" smooth="yes"/>
      <point x="271" y="-212"/>
      <point x="312" y="-222"/>
    </contour>
  </outline>
</glyph>
<glyph name="OE" format="2">
  <advance width="966"/>
  <unicode hex="0152"/>
  <outline>
    <contour>
      <point x="366" y="0" type="curve" smooth="yes"/>
      <point x="919" y="0" type="line" smooth="yes"/>
      <point x="948" y="0"/>
      <point x="954" y="67"/>
      <point x="954" y="86" type="curve" smooth="yes"/>
      <point x="954" y="112"/>
      <point x="954" y="119"/>
      <point x="947" y="119" type="curve" smooth="yes"/>
      <point x="937" y="119"/>
      <point x="865" y="106"/>
      <point x="789" y="106" type="curve" smooth="yes"/>
      <point x="712" y="106"/>
      <point x="701" y="115"/>
      <point x="701" y="146" type="curve" smooth="yes"/>
      <point x="701" y="190"/>
      <point x="706" y="264"/>
      <point x="706" y="277" type="curve"/>
      <point x="728" y="277" type="line" smooth="yes"/>
      <point x="807" y="277"/>
      <point x="881" y="272"/>
      <point x="890" y="272" type="curve" smooth="yes"/>
      <point x="900" y="272"/>
      <point x="906" y="313"/>
      <point x="906" y="342" type="curve" smooth="yes"/>
      <point x="906" y="367"/>
      <point x="901" y="374"/>
      <point x="885" y="374" type="curve" smooth="yes"/>
      <point x="709" y="374" type="line"/>
      <point x="709" y="418"/>
      <point x="716" y="524"/>
      <point x="721" y="541" type="curve"/>
      <point x="747" y="541" type="line" smooth="yes"/>
      <point x="809" y="541"/>
      <point x="892" y="537"/>
      <point x="901" y="537" type="curve" smooth="yes"/>
      <point x="911" y="537"/>
      <point x="917" y="577"/>
      <point x="917" y="606" type="curve" smooth="yes"/>
      <point x="917" y="631"/>
      <point x="912" y="639"/>
      <point x="896" y="639" type="curve" smooth="yes"/>
      <point x="365" y="639" type="line" smooth="yes"/>
      <point x="180" y="639"/>
      <point x="50" y="568"/>
      <point x="50" y="302" type="curve" smooth="yes"/>
      <point x="50" y="80"/>
      <point x="176" y="0"/>
    </contour>
    <contour>
      <point x="414" y="92" type="line" smooth="yes"/>
      <point x="372" y="92"/>
      <point x="340" y="99"/>
      <point x="317" y="120" type="curve" smooth="yes"/>
      <point x="289" y="146"/>
      <point x="276" y="194"/>
      <point x="276" y="281" type="curve" smooth="yes"/>
      <point x="276" y="468"/>
      <point x="331" y="547"/>
      <point x="436" y="547" type="curve" smooth="yes"/>
      <point x="503" y="547" type="line"/>
      <point x="499" y="398"/>
      <point x="487" y="206"/>
      <point x="480" y="92" type="curve"/>
    </contour>
  </outline>
</glyph>
<glyph name="oe" format="2">
  <advance width="793"/>
  <unicode hex="0153"/>
  <outline>
    <contour>
      <point x="274" y="-13" type="curve" smooth="yes"/>
      <point x="340" y="-13"/>
      <point x="391" y="10"/>
      <point x="417" y="29" type="curve"/>
      <point x="445" y="0"/>
      <point x="511" y="-13"/>
      <point x="564" y="-13" type="curve" smooth="yes"/>
      <point x="625" y="-13"/>
      <point x="696" y="16"/>
      <point x="740" y="60" type="curve" smooth="yes"/>
      <point x="752" y="72"/>
      <point x="755" y="82"/>
      <point x="755" y="88" type="curve" smooth="yes"/>
      <point x="755" y="111"/>
      <point x="751" y="129"/>
      <point x="742" y="129" type="curve"/>
      <point x="738" y="129"/>
      <point x="731" y="125"/>
      <point x="721" y="119" type="curve" smooth="yes"/>
      <point x="696" y="104"/>
      <point x="658" y="87"/>
      <point x="630" y="87" type="curve" smooth="yes"/>
      <point x="569" y="87"/>
      <point x="534" y="103"/>
      <point x="534" y="207" type="curve" smooth="yes"/>
      <point x="534" y="217"/>
      <point x="534" y="228"/>
      <point x="534" y="239" type="curve"/>
      <point x="544" y="239"/>
      <point x="554" y="239"/>
      <point x="564" y="239" type="curve" smooth="yes"/>
      <point x="667" y="239"/>
      <point x="788" y="285"/>
      <point x="788" y="392" type="curve" smooth="yes"/>
      <point x="788" y="487"/>
      <point x="721" y="524"/>
      <point x="580" y="524" type="curve" smooth="yes"/>
      <point x="530" y="524"/>
      <point x="478" y="509"/>
      <point x="445" y="485" type="curve"/>
      <point x="410" y="508"/>
      <point x="364" y="524"/>
      <point x="276" y="524" type="curve" smooth="yes"/>
      <point x="131" y="524"/>
      <point x="35" y="441"/>
      <point x="35" y="219" type="curve" smooth="yes"/>
      <point x="35" y="42"/>
      <point x="102" y="-13"/>
    </contour>
    <contour>
      <point x="271" y="55" type="curve" smooth="yes"/>
      <point x="239" y="55"/>
      <point x="237" y="71"/>
      <point x="237" y="205" type="curve" smooth="yes"/>
      <point x="237" y="372"/>
      <point x="269" y="454"/>
      <point x="301" y="454" type="curve" smooth="yes"/>
      <point x="332" y="454"/>
      <point x="335" y="438"/>
      <point x="335" y="303" type="curve" smooth="yes"/>
      <point x="335" y="137"/>
      <point x="302" y="55"/>
    </contour>
    <contour>
      <point x="561" y="292" type="curve" smooth="yes"/>
      <point x="546" y="290"/>
      <point x="538" y="290"/>
      <point x="535" y="290" type="curve"/>
      <point x="540" y="426"/>
      <point x="568" y="455"/>
      <point x="598" y="455" type="curve" smooth="yes"/>
      <point x="617" y="455"/>
      <point x="632" y="435"/>
      <point x="632" y="401" type="curve" smooth="yes"/>
      <point x="632" y="316"/>
      <point x="597" y="297"/>
    </contour>
  </outline>
</glyph>
<glyph name="tbar" format="2">
  <advance width="359"/>
  <unicode hex="0167"/>
  <anchor x="180" y="0" name="bottom"/>
  <anchor x="180" y="262" name="center"/>
  <anchor x="180" y="524" name="top"/>
  <anchor x="339" y="524" name="topright"/>
  <outline>
    <contour>
      <point x="224" y="-13" type="curve" smooth="yes"/>
      <point x="312" y="-13"/>
      <point x="369" y="30"/>
      <point x="396" y="62" type="curve" smooth="yes"/>
      <point x="401" y="68"/>
      <point x="404" y="78"/>
      <point x="404" y="94" type="curve" smooth="yes"/>
      <point x="404" y="110"/>
      <point x="398" y="131"/>
      <point x="391" y="131" type="curve" smooth="yes"/>
      <point x="388" y="131"/>
      <point x="372" y="119"/>
      <point x="363" y="114" type="curve" smooth="yes"/>
      <point x="354" y="109"/>
      <point x="343" y="104"/>
      <point x="331" y="104" type="curve" smooth="yes"/>
      <point x="296" y="104"/>
      <point x="291" y="126"/>
      <point x="291" y="167" type="curve" smooth="yes"/>
      <point x="291" y="246"/>
      <point x="299" y="348"/>
      <point x="309" y="415" type="curve"/>
      <point x="390" y="415" type="line" smooth="yes"/>
      <point x="406" y="415"/>
      <point x="413" y="437"/>
      <point x="413" y="473" type="curve" smooth="yes"/>
      <point x="413" y="495"/>
      <point x="410" y="499"/>
      <point x="401" y="499" type="curve" smooth="yes"/>
      <point x="316" y="499" type="line"/>
      <point x="320" y="534"/>
      <point x="322" y="558"/>
      <point x="322" y="560" type="curve" smooth="yes"/>
      <point x="322" y="621"/>
      <point x="219" y="651"/>
      <point x="138" y="651" type="curve" smooth="yes"/>
      <point x="112" y="651"/>
      <point x="105" y="644"/>
      <point x="105" y="625" type="curve" smooth="yes"/>
      <point x="105" y="621"/>
      <point x="100" y="569"/>
      <point x="95" y="499" type="curve"/>
      <point x="78" y="499" type="line" smooth="yes"/>
      <point x="61" y="499"/>
      <point x="55" y="480"/>
      <point x="55" y="442" type="curve" smooth="yes"/>
      <point x="55" y="420"/>
      <point x="58" y="415"/>
      <point x="68" y="415" type="curve" smooth="yes"/>
      <point x="91" y="415" type="line"/>
      <point x="86" y="340"/>
      <point x="79" y="217"/>
      <point x="79" y="132" type="curve" smooth="yes"/>
      <point x="79" y="47"/>
      <point x="122" y="-13"/>
    </contour>
    <contour>
      <point x="47" y="238" type="curve"/>
      <point x="369" y="238" type="line"/>
      <point x="385" y="238"/>
      <point x="392" y="260"/>
      <point x="392" y="296" type="curve" smooth="yes"/>
      <point x="392" y="318"/>
      <point x="389" y="322"/>
      <point x="380" y="322" type="curve"/>
      <point x="57" y="322" type="line"/>
      <point x="40" y="322"/>
      <point x="34" y="303"/>
      <point x="34" y="265" type="curve" smooth="yes"/>
      <point x="34" y="243"/>
      <point x="37" y="238"/>
    </contour>
  </outline>
</glyph>
<glyph name="Iotaafrican" format="2">
  <advance width="374"/>
  <unicode hex="0196"/>
  <outline>
    <contour>
      <point x="193" y="-8" type="curve" smooth="yes"/>
      <point x="237" y="-8"/>
      <point x="334" y="109"/>
      <point x="356" y="142" type="curve" smooth="yes"/>
      <point x="363" y="152"/>
      <point x="367" y="162"/>
      <point x="367" y="172" type="curve" smooth="yes"/>
      <point x="367" y="192"/>
      <point x="350" y="216"/>
      <point x="339" y="216" type="curve" smooth="yes"/>
      <point x="335" y="216"/>
      <point x="333" y="214"/>
      <point x="327" y="206" type="curve" smooth="yes"/>
      <point x="320" y="197"/>
      <point x="301" y="173"/>
      <point x="293" y="173" type="curve" smooth="yes"/>
      <point x="285" y="173"/>
      <point x="278" y="178"/>
      <point x="282" y="231" type="curve" smooth="yes"/>
      <point x="288" y="292"/>
      <point x="301" y="421"/>
      <point x="301" y="433" type="curve" smooth="yes"/>
      <point x="301" y="494"/>
      <point x="198" y="524"/>
      <point x="117" y="524" type="curve" smooth="yes"/>
      <point x="91" y="524"/>
      <point x="84" y="516"/>
      <point x="84" y="497" type="curve" smooth="yes"/>
      <point x="84" y="440"/>
      <point x="72" y="258"/>
      <point x="64" y="147" type="curve" smooth="yes"/>
      <point x="62" y="115"/>
      <point x="63" y="90"/>
      <point x="65" y="74" type="curve" smooth="yes"/>
      <point x="72" y="23"/>
      <point x="175" y="-8"/>
    </contour>
  </outline>
</glyph>
<glyph name="Esh" format="2">
  <advance width="515"/>
  <unicode hex="01A9"/>
  <outline>
    <contour>
      <point x="91" y="0" type="curve" smooth="yes"/>
      <point x="468" y="0" type="line" smooth="yes"/>
      <point x="497" y="0"/>
      <point x="503" y="67"/>
      <point x="503" y="86" type="curve" smooth="yes"/>
      <point x="503" y="112"/>
      <point x="503" y="119"/>
      <point x="496" y="119" type="curve" smooth="yes"/>
      <point x="486" y="119"/>
      <point x="414" y="106"/>
      <point x="338" y="106" type="curve"/>
      <point x="248" y="106" type="line"/>
      <point x="266" y="138"/>
      <point x="371" y="255"/>
      <point x="393" y="283" type="curve" smooth="yes"/>
      <point x="413" y="307"/>
      <point x="413" y="318"/>
      <point x="413" y="330" type="curve" smooth="yes"/>
      <point x="413" y="345"/>
      <point x="411" y="349"/>
      <point x="401" y="361" type="curve" smooth="yes"/>
      <point x="380" y="387"/>
      <point x="258" y="511"/>
      <point x="239" y="541" type="curve"/>
      <point x="324" y="541" type="line" smooth="yes"/>
      <point x="386" y="541"/>
      <point x="469" y="537"/>
      <point x="478" y="537" type="curve" smooth="yes"/>
      <point x="488" y="537"/>
      <point x="494" y="577"/>
      <point x="494" y="606" type="curve" smooth="yes"/>
      <point x="494" y="631"/>
      <point x="489" y="639"/>
      <point x="473" y="639" type="curve" smooth="yes"/>
      <point x="108" y="639" type="line" smooth="yes"/>
      <point x="93" y="639"/>
      <point x="68" y="593"/>
      <point x="68" y="524" type="curve" smooth="yes"/>
      <point x="68" y="510"/>
      <point x="70" y="497"/>
      <point x="86" y="481" type="curve" smooth="yes"/>
      <point x="127" y="438"/>
      <point x="167" y="394"/>
      <point x="208" y="349" type="curve"/>
      <point x="157" y="285"/>
      <point x="106" y="221"/>
      <point x="54" y="156" type="curve" smooth="yes"/>
      <point x="39" y="137"/>
      <point x="40" y="128"/>
      <point x="40" y="116" type="curve" smooth="yes"/>
      <point x="40" y="56"/>
      <point x="60" y="0"/>
    </contour>
  </outline>
</glyph>
<glyph name="jdotless" format="2">
  <advance width="299"/>
  <unicode hex="0237"/>
  <anchor x="125" y="-244" name="bottom"/>
  <anchor x="147" y="524" name="top"/>
  <outline>
    <contour>
      <point x="5" y="-245" type="curve" smooth="yes"/>
      <point x="55" y="-245"/>
      <point x="114" y="-228"/>
      <point x="162" y="-184" type="curve" smooth="yes"/>
      <point x="214" y="-137"/>
      <point x="252" y="-58"/>
      <point x="255" y="64" type="curve" smooth="yes"/>
      <point x="258" y="187"/>
      <point x="264" y="419"/>
      <point x="264" y="432" type="curve" smooth="yes"/>
      <point x="264" y="493"/>
      <point x="161" y="523"/>
      <point x="81" y="523" type="curve" smooth="yes"/>
      <point x="54" y="523"/>
      <point x="48" y="515"/>
      <point x="48" y="496" type="curve" smooth="yes"/>
      <point x="48" y="477"/>
      <point x="45" y="305"/>
      <point x="42" y="145" type="curve" smooth="yes"/>
      <point x="37" y="-90"/>
      <point x="35" y="-106"/>
      <point x="8" y="-138" type="curve" smooth="yes"/>
      <point x="0" y="-147"/>
      <point x="-14" y="-152"/>
      <point x="-36" y="-152" type="curve" smooth="yes"/>
      <point x="-50" y="-152"/>
      <point x="-78" y="-146"/>
      <point x="-85" y="-146" type="curve" smooth="yes"/>
      <point x="-94" y="-146"/>
      <point x="-103" y="-162"/>
      <point x="-103" y="-178" type="curve" smooth="yes"/>
      <point x="-103" y="-204"/>
      <point x="-100" y="-223"/>
      <point x="-79" y="-232" type="curve" smooth="yes"/>
      <point x="-57" y="-241"/>
      <point x="-24" y="-245"/>
    </contour>
  </outline>
</glyph>
<glyph name="Ubar" format="2">
  <advance width="756"/>
  <unicode hex="0244"/>
  <anchor x="379" y="0" name="bottom"/>
  <anchor x="622" y="10" name="ogonek"/>
  <anchor x="413" y="652" name="top"/>
  <anchor x="705" y="652" name="topright"/>
  <outline>
    <contour>
      <point x="353" y="-13" type="curve" smooth="yes"/>
      <point x="458" y="-13"/>
      <point x="534" y="13"/>
      <point x="588" y="64" type="curve" smooth="yes"/>
      <point x="684" y="155"/>
      <point x="713" y="327"/>
      <point x="713" y="580" type="curve" smooth="yes"/>
      <point x="713" y="630"/>
      <point x="647" y="652"/>
      <point x="608" y="652" type="curve" smooth="yes"/>
      <point x="581" y="652"/>
      <point x="578" y="643"/>
      <point x="578" y="618" type="curve" smooth="yes"/>
      <point x="578" y="343"/>
      <point x="553" y="201"/>
      <point x="511" y="145" type="curve" smooth="yes"/>
      <point x="489" y="116"/>
      <point x="455" y="99"/>
      <point x="425" y="99" type="curve" smooth="yes"/>
      <point x="389" y="99"/>
      <point x="355" y="112"/>
      <point x="333" y="146" type="curve" smooth="yes"/>
      <point x="307" y="186"/>
      <point x="300" y="264"/>
      <point x="300" y="347" type="curve" smooth="yes"/>
      <point x="300" y="420"/>
      <point x="315" y="569"/>
      <point x="315" y="580" type="curve" smooth="yes"/>
      <point x="315" y="630"/>
      <point x="208" y="652"/>
      <point x="144" y="652" type="curve" smooth="yes"/>
      <point x="100" y="652"/>
      <point x="98" y="643"/>
      <point x="95" y="618" type="curve" smooth="yes"/>
      <point x="94" y="608"/>
      <point x="79" y="447"/>
      <point x="77" y="298" type="curve" smooth="yes"/>
      <point x="76" y="195"/>
      <point x="89" y="105"/>
      <point x="144" y="55" type="curve" smooth="yes"/>
      <point x="192" y="12"/>
      <point x="271" y="-13"/>
    </contour>
    <contour>
      <point x="41" y="415" type="curve"/>
      <point x="172" y="415"/>
      <point x="303" y="419"/>
      <point x="434" y="419" type="curve" smooth="yes"/>
      <point x="563" y="419"/>
      <point x="621" y="415"/>
      <point x="750" y="415" type="curve" smooth="yes"/>
      <point x="765" y="415"/>
      <point x="776" y="437"/>
      <point x="776" y="473" type="curve" smooth="yes"/>
      <point x="776" y="496"/>
      <point x="773" y="499"/>
      <point x="763" y="499" type="curve" smooth="yes"/>
      <point x="54" y="499" type="line"/>
      <point x="39" y="499"/>
      <point x="28" y="477"/>
      <point x="28" y="441" type="curve" smooth="yes"/>
      <point x="28" y="418"/>
      <point x="31" y="415"/>
    </contour>
  </outline>
</glyph>
<glyph name="Rstroke" format="2">
  <advance width="705"/>
  <unicode hex="024C"/>
  <unicode hex="024D"/>
  <anchor x="336" y="0" name="bottom"/>
  <anchor x="370" y="652" name="top"/>
  <outline>
    <contour>
      <point x="224" y="-13" type="curve"/>
      <point x="268" y="-13"/>
      <point x="273" y="-4"/>
      <point x="273" y="21" type="curve"/>
      <point x="273" y="88"/>
      <point x="277" y="170"/>
      <point x="281" y="261" type="curve"/>
      <point x="291" y="250"/>
      <point x="317" y="239"/>
      <point x="326" y="239" type="curve"/>
      <point x="385" y="125"/>
      <point x="439" y="24"/>
      <point x="451" y="7" type="curve"/>
      <point x="463" y="-10"/>
      <point x="475" y="-13"/>
      <point x="500" y="-13" type="curve"/>
      <point x="552" y="-13"/>
      <point x="668" y="37"/>
      <point x="668" y="66" type="curve"/>
      <point x="668" y="75"/>
      <point x="663" y="80"/>
      <point x="649" y="104" type="curve"/>
      <point x="619" y="156"/>
      <point x="554" y="273"/>
      <point x="540" y="298" type="curve"/>
      <point x="601" y="327"/>
      <point x="661" y="394"/>
      <point x="661" y="478" type="curve"/>
      <point x="661" y="597"/>
      <point x="590" y="639"/>
      <point x="446" y="639" type="curve"/>
      <point x="77" y="639" type="line"/>
      <point x="77" y="426"/>
      <point x="53" y="77"/>
      <point x="53" y="59" type="curve"/>
      <point x="53" y="9"/>
      <point x="160" y="-13"/>
    </contour>
    <contour>
      <point x="282" y="304" type="curve"/>
      <point x="283" y="320"/>
      <point x="294" y="523"/>
      <point x="296" y="553" type="curve"/>
      <point x="308" y="553"/>
      <point x="319" y="553"/>
      <point x="331" y="553" type="curve"/>
      <point x="399" y="553"/>
      <point x="434" y="505"/>
      <point x="434" y="451" type="curve"/>
      <point x="434" y="411"/>
      <point x="421" y="373"/>
      <point x="392" y="344" type="curve"/>
      <point x="355" y="307"/>
      <point x="305" y="304"/>
    </contour>
    <contour>
      <point x="16" y="294" type="curve" smooth="yes"/>
      <point x="19" y="294"/>
      <point x="206" y="295"/>
      <point x="211" y="295" type="curve" smooth="yes"/>
      <point x="220" y="295"/>
      <point x="225" y="314"/>
      <point x="225" y="372" type="curve" smooth="yes"/>
      <point x="225" y="378"/>
      <point x="222" y="382"/>
      <point x="217" y="382" type="curve"/>
      <point x="24" y="382" type="line"/>
      <point x="15" y="382"/>
      <point x="9" y="322"/>
      <point x="9" y="304" type="curve" smooth="yes"/>
      <point x="9" y="298"/>
      <point x="11" y="294"/>
    </contour>
  </outline>
</glyph>
<glyph name="alpha-latin" format="2">
  <advance width="630"/>
  <unicode hex="0251"/>
  <outline>
    <contour>
      <point x="449" y="-14" type="curve" smooth="yes"/>
      <point x="493" y="-14"/>
      <point x="590" y="103"/>
      <point x="612" y="136" type="curve" smooth="yes"/>
      <point x="619" y="146"/>
      <point x="623" y="156"/>
      <point x="623" y="166" type="curve" smooth="yes"/>
      <point x="623" y="186"/>
      <point x="606" y="210"/>
      <point x="595" y="210" type="curve" smooth="yes"/>
      <point x="591" y="210"/>
      <point x="589" y="208"/>
      <point x="583" y="200" type="curve" smooth="yes"/>
      <point x="576" y="191"/>
      <point x="557" y="167"/>
      <point x="549" y="167" type="curve" smooth="yes"/>
      <point x="543" y="167"/>
      <point x="536" y="172"/>
      <point x="536" y="186" type="curve" smooth="yes"/>
      <point x="536" y="213"/>
      <point x="535" y="256"/>
      <point x="537" y="297" type="curve" smooth="yes"/>
      <point x="539" y="348"/>
      <point x="549" y="433"/>
      <point x="553" y="484" type="curve" smooth="yes"/>
      <point x="555" y="509"/>
      <point x="546" y="524"/>
      <point x="521" y="524" type="curve" smooth="yes"/>
      <point x="472" y="524"/>
      <point x="439" y="524"/>
      <point x="409" y="479" type="curve"/>
      <point x="387" y="509"/>
      <point x="340" y="524"/>
      <point x="283" y="524" type="curve" smooth="yes"/>
      <point x="146" y="524"/>
      <point x="35" y="441"/>
      <point x="35" y="219" type="curve" smooth="yes"/>
      <point x="35" y="1"/>
      <point x="152" y="-13"/>
      <point x="267" y="-13" type="curve" smooth="yes"/>
      <point x="303" y="-13"/>
      <point x="354" y="26"/>
      <point x="380" y="46" type="curve"/>
      <point x="380" y="35"/>
      <point x="377" y="14"/>
      <point x="391" y="3" type="curve" smooth="yes"/>
      <point x="406" y="-9"/>
      <point x="441" y="-14"/>
    </contour>
    <contour>
      <point x="271" y="55" type="curve" smooth="yes"/>
      <point x="242" y="55"/>
      <point x="237" y="102"/>
      <point x="237" y="205" type="curve" smooth="yes"/>
      <point x="237" y="372"/>
      <point x="274" y="454"/>
      <point x="306" y="454" type="curve" smooth="yes"/>
      <point x="334" y="454"/>
      <point x="340" y="438"/>
      <point x="335" y="303" type="curve" smooth="yes"/>
      <point x="329" y="137"/>
      <point x="302" y="55"/>
    </contour>
  </outline>
</glyph>
<glyph name="oopen" format="2">
  <advance width="409"/>
  <unicode hex="0254"/>
  <anchor x="139" y="0" name="bottom"/>
  <anchor x="172" y="524" name="top"/>
  <outline>
    <contour>
      <point x="142" y="537" type="curve" smooth="yes"/>
      <point x="99" y="537"/>
      <point x="43" y="518"/>
      <point x="5" y="483" type="curve" smooth="yes"/>
      <point x="-4" y="475"/>
      <point x="-7" y="469"/>
      <point x="-7" y="457" type="curve" smooth="yes"/>
      <point x="-7" y="439"/>
      <point x="-3" y="419"/>
      <point x="6" y="419" type="curve" smooth="yes"/>
      <point x="10" y="419"/>
      <point x="14" y="421"/>
      <point x="25" y="425" type="curve" smooth="yes"/>
      <point x="38" y="430"/>
      <point x="73" y="437"/>
      <point x="93" y="437" type="curve" smooth="yes"/>
      <point x="147" y="437"/>
      <point x="172" y="415"/>
      <point x="172" y="316" type="curve" smooth="yes"/>
      <point x="172" y="158"/>
      <point x="140" y="94"/>
      <point x="108" y="94" type="curve" smooth="yes"/>
      <point x="76" y="94"/>
      <point x="49" y="115"/>
      <point x="26" y="126" type="curve" smooth="yes"/>
      <point x="19" y="129"/>
      <point x="12" y="131"/>
      <point x="5" y="131" type="curve" smooth="yes"/>
      <point x="-14" y="131"/>
      <point x="-20" y="79"/>
      <point x="-20" y="60" type="curve" smooth="yes"/>
      <point x="-20" y="44"/>
      <point x="-16" y="31"/>
      <point x="1" y="24" type="curve" smooth="yes"/>
      <point x="31" y="12"/>
      <point x="75" y="0"/>
      <point x="133" y="0" type="curve" smooth="yes"/>
      <point x="278" y="0"/>
      <point x="374" y="83"/>
      <point x="374" y="305" type="curve" smooth="yes"/>
      <point x="374" y="516"/>
      <point x="262" y="537"/>
    </contour>
  </outline>
</glyph>
<glyph name="ereversed" format="2">
  <advance width="496"/>
  <unicode hex="0258"/>
  <anchor x="285" y="0" name="bottom"/>
  <anchor x="148" y="0" name="ogonek"/>
  <anchor x="220" y="524" name="top"/>
  <outline>
    <contour>
      <point x="235" y="-13" type="curve" smooth="yes"/>
      <point x="350" y="-13"/>
      <point x="468" y="3"/>
      <point x="479" y="219" type="curve" smooth="yes"/>
      <point x="491" y="441"/>
      <point x="398" y="524"/>
      <point x="254" y="524" type="curve" smooth="yes"/>
      <point x="104" y="524"/>
      <point x="37" y="487"/>
      <point x="32" y="393" type="curve" smooth="yes"/>
      <point x="27" y="285"/>
      <point x="145" y="239"/>
      <point x="248" y="239" type="curve" smooth="yes"/>
      <point x="258" y="239"/>
      <point x="268" y="239"/>
      <point x="278" y="239" type="curve"/>
      <point x="278" y="228"/>
      <point x="277" y="217"/>
      <point x="276" y="207" type="curve" smooth="yes"/>
      <point x="271" y="103"/>
      <point x="235" y="87"/>
      <point x="174" y="87" type="curve" smooth="yes"/>
      <point x="146" y="87"/>
      <point x="109" y="104"/>
      <point x="85" y="119" type="curve" smooth="yes"/>
      <point x="75" y="125"/>
      <point x="68" y="129"/>
      <point x="64" y="129" type="curve" smooth="yes"/>
      <point x="55" y="129"/>
      <point x="50" y="111"/>
      <point x="49" y="88" type="curve" smooth="yes"/>
      <point x="49" y="82"/>
      <point x="51" y="72"/>
      <point x="63" y="60" type="curve" smooth="yes"/>
      <point x="104" y="16"/>
      <point x="174" y="-13"/>
    </contour>
    <contour>
      <point x="254" y="291" type="curve" smooth="yes"/>
      <point x="218" y="296"/>
      <point x="184" y="315"/>
      <point x="189" y="401" type="curve" smooth="yes"/>
      <point x="190" y="434"/>
      <point x="206" y="454"/>
      <point x="225" y="454" type="curve" smooth="yes"/>
      <point x="255" y="454"/>
      <point x="282" y="425"/>
      <point x="280" y="289" type="curve"/>
      <point x="277" y="289"/>
      <point x="269" y="289"/>
    </contour>
  </outline>
</glyph>
<glyph name="eopen" format="2">
  <advance width="425"/>
  <unicode hex="025B"/>
  <outline>
    <contour>
      <point x="254" y="-13" type="curve" smooth="yes"/>
      <point x="296" y="-13"/>
      <point x="352" y="7"/>
      <point x="390" y="41" type="curve" smooth="yes"/>
      <point x="399" y="49"/>
      <point x="402" y="55"/>
      <point x="402" y="67" type="curve" smooth="yes"/>
      <point x="402" y="85"/>
      <point x="397" y="105"/>
      <point x="388" y="105" type="curve" smooth="yes"/>
      <point x="376" y="105"/>
      <point x="350" y="87"/>
      <point x="303" y="87" type="curve" smooth="yes"/>
      <point x="248" y="87"/>
      <point x="225" y="118"/>
      <point x="225" y="176" type="curve" smooth="yes"/>
      <point x="225" y="202"/>
      <point x="239" y="221"/>
      <point x="321" y="221" type="curve" smooth="yes"/>
      <point x="330" y="221"/>
      <point x="331" y="276"/>
      <point x="332" y="288" type="curve" smooth="yes"/>
      <point x="333" y="300"/>
      <point x="329" y="304"/>
      <point x="318" y="304" type="curve" smooth="yes"/>
      <point x="244" y="304"/>
      <point x="237" y="326"/>
      <point x="237" y="348" type="curve" smooth="yes"/>
      <point x="237" y="392"/>
      <point x="265" y="430"/>
      <point x="288" y="430" type="curve" smooth="yes"/>
      <point x="330" y="430"/>
      <point x="361" y="393"/>
      <point x="396" y="393" type="curve" smooth="yes"/>
      <point x="412" y="393"/>
      <point x="419" y="443"/>
      <point x="419" y="462" type="curve" smooth="yes"/>
      <point x="419" y="481"/>
      <point x="415" y="493"/>
      <point x="398" y="500" type="curve" smooth="yes"/>
      <point x="367" y="512"/>
      <point x="320" y="524"/>
      <point x="262" y="524" type="curve" smooth="yes"/>
      <point x="151" y="524"/>
      <point x="58" y="457"/>
      <point x="52" y="381" type="curve" smooth="yes"/>
      <point x="48" y="327"/>
      <point x="83" y="293"/>
      <point x="134" y="275" type="curve"/>
      <point x="66" y="256"/>
      <point x="26" y="204"/>
      <point x="23" y="153" type="curve" smooth="yes"/>
      <point x="17" y="47"/>
      <point x="104" y="-13"/>
    </contour>
  </outline>
</glyph>
<glyph name="nhookleft" format="2">
  <advance width="696"/>
  <unicode hex="0272"/>
  <outline>
    <contour>
      <point x="38" y="-222" type="curve" smooth="yes"/>
      <point x="87" y="-222"/>
      <point x="151" y="-217"/>
      <point x="204" y="-170" type="curve" smooth="yes"/>
      <point x="256" y="-124"/>
      <point x="264" y="-35"/>
      <point x="264" y="14" type="curve"/>
      <point x="263" y="97" type="line"/>
      <point x="268" y="122"/>
      <point x="272" y="148"/>
      <point x="282" y="178" type="curve" smooth="yes"/>
      <point x="310" y="264"/>
      <point x="366" y="343"/>
      <point x="383" y="343" type="curve" smooth="yes"/>
      <point x="391" y="343"/>
      <point x="394" y="338"/>
      <point x="394" y="285" type="curve" smooth="yes"/>
      <point x="394" y="272"/>
      <point x="384" y="120"/>
      <point x="384" y="112" type="curve" smooth="yes"/>
      <point x="384" y="97"/>
      <point x="385" y="84"/>
      <point x="387" y="69" type="curve" smooth="yes"/>
      <point x="394" y="18"/>
      <point x="497" y="-13"/>
      <point x="515" y="-13" type="curve" smooth="yes"/>
      <point x="559" y="-13"/>
      <point x="656" y="104"/>
      <point x="678" y="137" type="curve" smooth="yes"/>
      <point x="685" y="147"/>
      <point x="689" y="157"/>
      <point x="689" y="167" type="curve" smooth="yes"/>
      <point x="689" y="187"/>
      <point x="672" y="211"/>
      <point x="661" y="211" type="curve" smooth="yes"/>
      <point x="657" y="211"/>
      <point x="655" y="209"/>
      <point x="649" y="201" type="curve"/>
      <point x="642" y="192"/>
      <point x="623" y="168"/>
      <point x="615" y="168" type="curve" smooth="yes"/>
      <point x="607" y="168"/>
      <point x="604" y="173"/>
      <point x="604" y="226" type="curve" smooth="yes"/>
      <point x="604" y="243"/>
      <point x="614" y="387"/>
      <point x="614" y="399" type="curve" smooth="yes"/>
      <point x="614" y="414"/>
      <point x="613" y="427"/>
      <point x="611" y="442" type="curve" smooth="yes"/>
      <point x="604" y="493"/>
      <point x="501" y="524"/>
      <point x="483" y="524" type="curve" smooth="yes"/>
      <point x="430" y="524"/>
      <point x="276" y="340"/>
      <point x="269" y="275" type="curve"/>
      <point x="275" y="336"/>
      <point x="284" y="421"/>
      <point x="284" y="433" type="curve" smooth="yes"/>
      <point x="284" y="494"/>
      <point x="181" y="524"/>
      <point x="100" y="524" type="curve" smooth="yes"/>
      <point x="74" y="524"/>
      <point x="67" y="516"/>
      <point x="67" y="497" type="curve" smooth="yes"/>
      <point x="67" y="486"/>
      <point x="52" y="174"/>
      <point x="47" y="78" type="curve" smooth="yes"/>
      <point x="43" y="4"/>
      <point x="40" y="-71"/>
      <point x="30" y="-92" type="curve" smooth="yes"/>
      <point x="16" y="-119"/>
      <point x="-3" y="-127"/>
      <point x="-17" y="-127" type="curve" smooth="yes"/>
      <point x="-29" y="-127"/>
      <point x="-68" y="-123"/>
      <point x="-66" y="-123" type="curve" smooth="yes"/>
      <point x="-76" y="-123"/>
      <point x="-84" y="-140"/>
      <point x="-84" y="-156" type="curve" smooth="yes"/>
      <point x="-84" y="-179"/>
      <point x="-80" y="-196"/>
      <point x="-65" y="-204" type="curve" smooth="yes"/>
      <point x="-50" y="-212"/>
      <point x="-9" y="-222"/>
    </contour>
  </outline>
</glyph>
<glyph name="tturned" format="2">
  <advance width="403"/>
  <unicode hex="0287"/>
  <outline>
    <contour>
      <point x="285" y="-152" type="curve" smooth="yes"/>
      <point x="311" y="-152"/>
      <point x="318" y="-145"/>
      <point x="318" y="-126" type="curve" smooth="yes"/>
      <point x="318" y="-122"/>
      <point x="323" y="-70"/>
      <point x="328" y="0" type="curve"/>
      <point x="345" y="0" type="line" smooth="yes"/>
      <point x="362" y="0"/>
      <point x="368" y="19"/>
      <point x="368" y="57" type="curve" smooth="yes"/>
      <point x="368" y="79"/>
      <point x="365" y="84"/>
      <point x="355" y="84" type="curve" smooth="yes"/>
      <point x="332" y="84" type="line"/>
      <point x="337" y="159"/>
      <point x="344" y="282"/>
      <point x="344" y="367" type="curve" smooth="yes"/>
      <point x="344" y="452"/>
      <point x="301" y="512"/>
      <point x="199" y="512" type="curve" smooth="yes"/>
      <point x="111" y="512"/>
      <point x="54" y="469"/>
      <point x="27" y="437" type="curve" smooth="yes"/>
      <point x="22" y="431"/>
      <point x="19" y="421"/>
      <point x="19" y="405" type="curve" smooth="yes"/>
      <point x="19" y="389"/>
      <point x="25" y="368"/>
      <point x="32" y="368" type="curve" smooth="yes"/>
      <point x="35" y="368"/>
      <point x="51" y="380"/>
      <point x="60" y="385" type="curve" smooth="yes"/>
      <point x="69" y="390"/>
      <point x="80" y="395"/>
      <point x="92" y="395" type="curve" smooth="yes"/>
      <point x="127" y="395"/>
      <point x="132" y="373"/>
      <point x="132" y="332" type="curve" smooth="yes"/>
      <point x="132" y="253"/>
      <point x="124" y="151"/>
      <point x="114" y="84" type="curve"/>
      <point x="33" y="84" type="line" smooth="yes"/>
      <point x="17" y="84"/>
      <point x="10" y="62"/>
      <point x="10" y="26" type="curve" smooth="yes"/>
      <point x="10" y="4"/>
      <point x="13" y="0"/>
      <point x="22" y="0" type="curve" smooth="yes"/>
      <point x="107" y="0" type="line"/>
      <point x="103" y="-35"/>
      <point x="101" y="-59"/>
      <point x="101" y="-61" type="curve" smooth="yes"/>
      <point x="101" y="-122"/>
      <point x="204" y="-152"/>
    </contour>
  </outline>
</glyph>
<glyph name="apostrophemod" format="2">
  <advance width="308"/>
  <unicode hex="02BC"/>
  <outline>
    <contour>
      <point x="101" y="564" type="curve" smooth="yes"/>
      <point x="128" y="564"/>
      <point x="138" y="566"/>
      <point x="160" y="582" type="curve" smooth="yes"/>
      <point x="192" y="604"/>
      <point x="259" y="671"/>
      <point x="259" y="697" type="curve" smooth="yes"/>
      <point x="259" y="712"/>
      <point x="253" y="726"/>
      <point x="234" y="746" type="curve" smooth="yes"/>
      <point x="217" y="764"/>
      <point x="177" y="794"/>
      <point x="159" y="794" type="curve" smooth="yes"/>
      <point x="149" y="794"/>
      <point x="145" y="791"/>
      <point x="138" y="772" type="curve" smooth="yes"/>
      <point x="128" y="744"/>
      <point x="78" y="645"/>
      <point x="57" y="603" type="curve" smooth="yes"/>
      <point x="52" y="593"/>
      <point x="49" y="588"/>
      <point x="49" y="585" type="curve" smooth="yes"/>
      <point x="49" y="583"/>
      <point x="77" y="564"/>
    </contour>
  </outline>
</glyph>
<glyph name="verticallinemod" format="2">
  <advance width="265"/>
  <unicode hex="02C8"/>
  <outline>
    <contour>
      <point x="166" y="547" type="curve" smooth="yes"/>
      <point x="194" y="547"/>
      <point x="198" y="554"/>
      <point x="198" y="571" type="curve" smooth="yes"/>
      <point x="198" y="580"/>
      <point x="205" y="706"/>
      <point x="205" y="712" type="curve" smooth="yes"/>
      <point x="205" y="745"/>
      <point x="139" y="761"/>
      <point x="99" y="761" type="curve" smooth="yes"/>
      <point x="71" y="761"/>
      <point x="67" y="754"/>
      <point x="67" y="737" type="curve" smooth="yes"/>
      <point x="67" y="728"/>
      <point x="60" y="602"/>
      <point x="60" y="596" type="curve" smooth="yes"/>
      <point x="60" y="563"/>
      <point x="126" y="547"/>
    </contour>
  </outline>
</glyph>
<glyph name="gravecomb" format="2">
  <unicode hex="0300"/>
  <anchor x="88" y="524" name="_top"/>
  <anchor x="75" y="745" name="top"/>
  <outline>
    <contour>
      <point x="138" y="581" type="curve"/>
      <point x="185" y="602"/>
      <point x="205" y="640"/>
      <point x="205" y="657" type="curve" smooth="yes"/>
      <point x="205" y="672"/>
      <point x="203" y="683"/>
      <point x="194" y="696" type="curve" smooth="yes"/>
      <point x="183" y="713"/>
      <point x="158" y="744"/>
      <point x="136" y="767" type="curve" smooth="yes"/>
      <point x="106" y="799"/>
      <point x="87" y="806"/>
      <point x="74" y="806" type="curve" smooth="yes"/>
      <point x="51" y="806"/>
      <point x="0" y="747"/>
      <point x="0" y="718" type="curve" smooth="yes"/>
      <point x="0" y="709"/>
      <point x="5" y="698"/>
      <point x="24" y="682" type="curve" smooth="yes"/>
      <point x="60" y="652"/>
      <point x="118" y="603"/>
    </contour>
  </outline>
</glyph>
<glyph name="brevecomb" format="2">
  <unicode hex="0306"/>
  <anchor x="103" y="524" name="_top"/>
  <anchor x="55" y="656" name="top"/>
  <outline>
    <contour>
      <point x="151" y="585" type="curve" smooth="yes"/>
      <point x="211" y="585"/>
      <point x="278" y="627"/>
      <point x="278" y="712" type="curve" smooth="yes"/>
      <point x="278" y="755"/>
      <point x="229" y="765"/>
      <point x="174" y="765" type="curve" smooth="yes"/>
      <point x="126" y="765"/>
      <point x="121" y="760"/>
      <point x="121" y="740" type="curve" smooth="yes"/>
      <point x="121" y="719"/>
      <point x="108" y="708"/>
      <point x="90" y="708" type="curve" smooth="yes"/>
      <point x="71" y="708"/>
      <point x="48" y="721"/>
      <point x="41" y="729" type="curve" smooth="yes"/>
      <point x="22" y="747"/>
      <point x="14" y="765"/>
      <point x="0" y="765" type="curve" smooth="yes"/>
      <point x="-10" y="765"/>
      <point x="-15" y="757"/>
      <point x="-15" y="732" type="curve" smooth="yes"/>
      <point x="-15" y="642"/>
      <point x="60" y="585"/>
    </contour>
  </outline>
</glyph>
<glyph name="dotaccentcomb" format="2">
  <unicode hex="0307"/>
  <anchor x="125" y="524" name="_top"/>
  <anchor x="145" y="699" name="top"/>
  <outline>
    <contour>
      <point x="126" y="594" type="curve" smooth="yes"/>
      <point x="184" y="594"/>
      <point x="261" y="630"/>
      <point x="261" y="680" type="curve" smooth="yes"/>
      <point x="261" y="737"/>
      <point x="207" y="756"/>
      <point x="153" y="756" type="curve" smooth="yes"/>
      <point x="85" y="756"/>
      <point x="20" y="736"/>
      <point x="20" y="675" type="curve" smooth="yes"/>
      <point x="20" y="640"/>
      <point x="61" y="594"/>
    </contour>
  </outline>
</glyph>
<glyph name="dieresiscomb" format="2">
  <unicode hex="0308"/>
  <anchor x="187" y="524" name="_top"/>
  <anchor x="205" y="693" name="top"/>
  <outline>
    <contour>
      <point x="328" y="573" type="curve" smooth="yes"/>
      <point x="369" y="573"/>
      <point x="417" y="608"/>
      <point x="417" y="655" type="curve" smooth="yes"/>
      <point x="417" y="710"/>
      <point x="378" y="729"/>
      <point x="340" y="729" type="curve" smooth="yes"/>
      <point x="292" y="729"/>
      <point x="246" y="709"/>
      <point x="246" y="651" type="curve" smooth="yes"/>
      <point x="246" y="618"/>
      <point x="282" y="573"/>
    </contour>
    <contour>
      <point x="75" y="574" type="curve" smooth="yes"/>
      <point x="116" y="574"/>
      <point x="171" y="609"/>
      <point x="171" y="656" type="curve" smooth="yes"/>
      <point x="171" y="711"/>
      <point x="132" y="730"/>
      <point x="94" y="730" type="curve" smooth="yes"/>
      <point x="46" y="730"/>
      <point x="0" y="710"/>
      <point x="0" y="652" type="curve" smooth="yes"/>
      <point x="0" y="619"/>
      <point x="30" y="574"/>
    </contour>
  </outline>
</glyph>
<glyph name="dblgravecomb" format="2">
  <unicode hex="030F"/>
  <anchor x="217" y="524" name="_top"/>
  <anchor x="150" y="806" name="top"/>
  <outline>
    <contour>
      <point x="364" y="581" type="curve"/>
      <point x="411" y="602"/>
      <point x="431" y="640"/>
      <point x="431" y="658" type="curve" smooth="yes"/>
      <point x="431" y="672"/>
      <point x="429" y="683"/>
      <point x="420" y="696" type="curve" smooth="yes"/>
      <point x="409" y="713"/>
      <point x="385" y="743"/>
      <point x="359" y="767" type="curve" smooth="yes"/>
      <point x="327" y="797"/>
      <point x="310" y="806"/>
      <point x="297" y="806" type="curve" smooth="yes"/>
      <point x="276" y="806"/>
      <point x="220" y="748"/>
      <point x="220" y="713" type="curve" smooth="yes"/>
      <point x="220" y="704"/>
      <point x="224" y="692"/>
      <point x="244" y="677" type="curve" smooth="yes"/>
      <point x="284" y="647"/>
      <point x="341" y="603"/>
    </contour>
    <contour>
      <point x="144" y="580" type="curve"/>
      <point x="191" y="601"/>
      <point x="211" y="639"/>
      <point x="211" y="657" type="curve" smooth="yes"/>
      <point x="211" y="671"/>
      <point x="209" y="682"/>
      <point x="200" y="695" type="curve" smooth="yes"/>
      <point x="189" y="712"/>
      <point x="165" y="742"/>
      <point x="139" y="766" type="curve" smooth="yes"/>
      <point x="107" y="796"/>
      <point x="90" y="805"/>
      <point x="77" y="805" type="curve" smooth="yes"/>
      <point x="56" y="805"/>
      <point x="0" y="747"/>
      <point x="0" y="712" type="curve" smooth="yes"/>
      <point x="0" y="703"/>
      <point x="4" y="691"/>
      <point x="24" y="676" type="curve" smooth="yes"/>
      <point x="64" y="646"/>
      <point x="121" y="602"/>
    </contour>
  </outline>
</glyph>
<glyph name="horncomb" format="2">
  <unicode hex="031B"/>
  <anchor x="221" y="524" name="_topright"/>
  <anchor x="367" y="648" name="topright"/>
  <outline>
    <contour>
      <point x="190" y="453" type="curve" smooth="yes"/>
      <point x="332" y="453"/>
      <point x="424" y="475"/>
      <point x="424" y="627" type="curve" smooth="yes"/>
      <point x="424" y="678"/>
      <point x="360" y="687"/>
      <point x="311" y="687" type="curve" smooth="yes"/>
      <point x="288" y="687"/>
      <point x="283" y="683"/>
      <point x="283" y="645" type="curve" smooth="yes"/>
      <point x="283" y="556"/>
      <point x="255" y="524"/>
      <point x="190" y="524" type="curve" smooth="yes"/>
      <point x="126" y="524"/>
      <point x="156" y="453"/>
    </contour>
  </outline>
</glyph>
<glyph name="dieresisbelowcomb" format="2">
  <unicode hex="0324"/>
  <anchor x="221" y="0" name="_bottom"/>
  <anchor x="210" y="-161" name="bottom"/>
  <outline>
    <contour>
      <point x="328" y="-217" type="curve" smooth="yes"/>
      <point x="369" y="-217"/>
      <point x="417" y="-182"/>
      <point x="417" y="-135" type="curve" smooth="yes"/>
      <point x="417" y="-80"/>
      <point x="378" y="-61"/>
      <point x="340" y="-61" type="curve" smooth="yes"/>
      <point x="292" y="-61"/>
      <point x="246" y="-81"/>
      <point x="246" y="-139" type="curve" smooth="yes"/>
      <point x="246" y="-172"/>
      <point x="282" y="-217"/>
    </contour>
    <contour>
      <point x="75" y="-216" type="curve" smooth="yes"/>
      <point x="116" y="-216"/>
      <point x="171" y="-181"/>
      <point x="171" y="-134" type="curve" smooth="yes"/>
      <point x="171" y="-79"/>
      <point x="132" y="-60"/>
      <point x="94" y="-60" type="curve" smooth="yes"/>
      <point x="46" y="-60"/>
      <point x="0" y="-80"/>
      <point x="0" y="-138" type="curve" smooth="yes"/>
      <point x="0" y="-171"/>
      <point x="30" y="-216"/>
    </contour>
  </outline>
</glyph>
<glyph name="commaaccentcomb" format="2">
  <unicode hex="0326"/>
  <anchor x="69" y="0" name="_bottom"/>
  <anchor x="69" y="-249" name="bottom"/>
  <outline>
    <contour>
      <point x="17" y="-249" type="curve" smooth="yes"/>
      <point x="46" y="-249"/>
      <point x="56" y="-246"/>
      <point x="80" y="-233" type="curve" smooth="yes"/>
      <point x="115" y="-215"/>
      <point x="188" y="-157"/>
      <point x="178" y="-135" type="curve" smooth="yes"/>
      <point x="173" y="-123"/>
      <point x="171" y="-111"/>
      <point x="151" y="-94" type="curve" smooth="yes"/>
      <point x="132" y="-79"/>
      <point x="89" y="-52"/>
      <point x="69" y="-52" type="curve" smooth="yes"/>
      <point x="58" y="-52"/>
      <point x="54" y="-56"/>
      <point x="46" y="-71" type="curve" smooth="yes"/>
      <point x="35" y="-95"/>
      <point x="-8" y="-179"/>
      <point x="-31" y="-215" type="curve" smooth="yes"/>
      <point x="-37" y="-224"/>
      <point x="-40" y="-228"/>
      <point x="-40" y="-230" type="curve" smooth="yes"/>
      <point x="-40" y="-233"/>
      <point x="-9" y="-249"/>
    </contour>
  </outline>
</glyph>
<glyph name="cedillacomb" format="2">
  <unicode hex="0327"/>
  <anchor x="87" y="0" name="_bottom"/>
  <anchor x="87" y="-190" name="bottom"/>
  <outline>
    <contour>
      <point x="147" y="-244" type="curve"/>
      <point x="186" y="-244"/>
      <point x="259" y="-205"/>
      <point x="259" y="-138" type="curve"/>
      <point x="259" y="-80"/>
      <point x="219" y="-69"/>
      <point x="183" y="-69" type="curve"/>
      <point x="103" y="-69" type="line"/>
      <point x="93" y="-69"/>
      <point x="89" y="-65"/>
      <point x="89" y="-58" type="curve"/>
      <point x="89" y="-50"/>
      <point x="93" y="-46"/>
      <point x="93" y="-40" type="curve"/>
      <point x="93" y="-35"/>
      <point x="80" y="-35"/>
      <point x="75" y="-35" type="curve"/>
      <point x="48" y="-35"/>
      <point x="14" y="-86"/>
      <point x="14" y="-142" type="curve"/>
      <point x="14" y="-178"/>
      <point x="24" y="-193"/>
      <point x="64" y="-193" type="curve"/>
      <point x="124" y="-193" type="line"/>
      <point x="137" y="-193"/>
      <point x="144" y="-196"/>
      <point x="144" y="-204" type="curve"/>
      <point x="144" y="-212"/>
      <point x="137" y="-219"/>
      <point x="130" y="-221" type="curve"/>
      <point x="127" y="-222"/>
      <point x="125" y="-224"/>
      <point x="125" y="-229" type="curve"/>
      <point x="125" y="-237"/>
      <point x="130" y="-244"/>
    </contour>
  </outline>
</glyph>
<glyph name="brevebelowcomb" format="2">
  <unicode hex="032E"/>
  <anchor x="103" y="0" name="_bottom"/>
  <anchor x="103" y="-161" name="bottom"/>
  <outline>
    <contour>
      <point x="149" y="-189" type="curve" smooth="yes"/>
      <point x="203" y="-189"/>
      <point x="263" y="-151"/>
      <point x="263" y="-75" type="curve" smooth="yes"/>
      <point x="263" y="-37"/>
      <point x="219" y="-28"/>
      <point x="170" y="-28" type="curve" smooth="yes"/>
      <point x="127" y="-28"/>
      <point x="122" y="-32"/>
      <point x="122" y="-50" type="curve" smooth="yes"/>
      <point x="122" y="-69"/>
      <point x="110" y="-79"/>
      <point x="94" y="-79" type="curve" smooth="yes"/>
      <point x="77" y="-79"/>
      <point x="57" y="-67"/>
      <point x="50" y="-60" type="curve" smooth="yes"/>
      <point x="33" y="-44"/>
      <point x="26" y="-28"/>
      <point x="14" y="-28" type="curve" smooth="yes"/>
      <point x="5" y="-28"/>
      <point x="0" y="-35"/>
      <point x="0" y="-57" type="curve" smooth="yes"/>
      <point x="0" y="-138"/>
      <point x="67" y="-189"/>
    </contour>
  </outline>
</glyph>
<glyph name="strokeshortcomb" format="2">
  <unicode hex="0335"/>
  <anchor x="287" y="294" name="_center"/>
  <outline>
    <contour>
      <point x="33" y="252" type="curve" smooth="yes"/>
      <point x="527" y="252" type="line" smooth="yes"/>
      <point x="542" y="252"/>
      <point x="553" y="274"/>
      <point x="553" y="310" type="curve" smooth="yes"/>
      <point x="553" y="333"/>
      <point x="550" y="336"/>
      <point x="540" y="336" type="curve" smooth="yes"/>
      <point x="46" y="336" type="line" smooth="yes"/>
      <point x="31" y="336"/>
      <point x="20" y="314"/>
      <point x="20" y="278" type="curve" smooth="yes"/>
      <point x="20" y="255"/>
      <point x="23" y="252"/>
    </contour>
  </outline>
</glyph>
<glyph name="dotaboverightcomb" format="2">
  <unicode hex="0358"/>
  <outline>
    <contour>
      <point x="451" y="594" type="curve" smooth="yes"/>
      <point x="509" y="594"/>
      <point x="586" y="630"/>
      <point x="586" y="680" type="curve" smooth="yes"/>
      <point x="586" y="737"/>
      <point x="532" y="756"/>
      <point x="478" y="756" type="curve" smooth="yes"/>
      <point x="410" y="756"/>
      <point x="345" y="736"/>
      <point x="345" y="675" type="curve" smooth="yes"/>
      <point x="345" y="640"/>
      <point x="386" y="594"/>
    </contour>
  </outline>
</glyph>
